# MagicaVoxel @ Ephtracy

# group
o 

# material
mtllib debris-2.mtl
usemtl palette

# normals
vn -1 0 0
vn 1 0 0
vn 0 0 1
vn 0 0 -1
vn 0 -1 0
vn 0 1 0

# texcoords
vt 0.00585938 0.5
vt 0.0449219 0.5

# verts
v -2.8 0.9 -3.5
v -2.8 0.9 -3.6
v -2.8 1 -3.5
v -2.8 1 -3.6
v -2.7 1 -3.5
v -2.7 1 -3.6
v -2.7 1.1 -3.5
v -2.7 1.1 -3.6
v -2.7 1.3 -3.5
v -2.7 1.3 -3.6
v -2.6 0.9 -3.6
v -2.6 0.9 -3.7
v -2.6 1.1 -3.6
v -2.6 1.3 -3.5
v -2.6 1.3 -3.6
v -2.6 1.3 -3.7
v -2.6 1.5 -3.5
v -2.6 1.5 -3.6
v -2.5 1.3 -3.6
v -2.5 1.3 -3.7
v -2.5 1.5 -3.5
v -2.5 1.5 -3.6
v -2.5 1.5 -3.7
v -2.5 1.6 -3.5
v -2.5 1.6 -3.6
v -2.4 1.5 -3.6
v -2.4 1.5 -3.7
v -2.4 1.6 -3.5
v -2.4 1.6 -3.6
v -2.4 1.7 -3.5
v -2.4 1.7 -3.6
v -2.4 1.7 -3.7
v -2.4 1.9 -3.5
v -2.4 1.9 -3.6
v -2.3 1.7 -3.6
v -2.3 1.7 -3.7
v -2.3 1.9 -3.5
v -2.3 1.9 -3.6
v -2.3 1.9 -3.7
v -2.3 2.1 -3.5
v -2.3 2.1 -3.6
v -2.2 1.9 -3.6
v -2.2 1.9 -3.7
v -2.2 2.1 -3.5
v -2.2 2.1 -3.6
v -2.2 2.1 -3.7
v -2.2 2.3 -3.5
v -2.2 2.3 -3.6
v -2.1 2.1 -3.6
v -2.1 2.1 -3.7
v -2.1 2.3 -3.5
v -2.1 2.3 -3.6
v -2.1 2.3 -3.7
v -2.1 2.4 -3.5
v -2.1 2.4 -3.6
v -2 2.4 -3.5
v -2 2.4 -3.6
v -2 2.5 -3.5
v -2 2.5 -3.6
v -2.4 0.9 -3.6
v -2.4 0.9 -3.7
v -2.4 1.2 -3.6
v -2.4 1.2 -3.7
v -2.3 0.9 -3.5
v -2.3 0.9 -3.6
v -2.3 1.1 -3.5
v -2.3 1.1 -3.6
v -2.3 1.2 -3.6
v -2.3 1.2 -3.7
v -2.3 1.4 -3.6
v -2.3 1.4 -3.7
v -2.2 1.1 -3.5
v -2.2 1.1 -3.6
v -2.2 1.4 -3.5
v -2.2 1.4 -3.6
v -2.2 1.4 -3.7
v -2.2 1.7 -3.6
v -2.2 1.7 -3.7
v -2.1 1.4 -3.5
v -2.1 1.4 -3.6
v -2.1 1.6 -3.5
v -2.1 1.6 -3.6
v -2.1 1.7 -3.6
v -2.1 1.7 -3.7
v -2.1 1.8 -3.6
v -2.1 1.8 -3.7
v -2 1.6 -3.5
v -2 1.6 -3.6
v -2 1.8 -3.5
v -2 1.8 -3.6
v -2 1.8 -3.7
v -2 2.1 -3.6
v -2 2.1 -3.7
v -1.9 1.8 -3.5
v -1.9 1.8 -3.6
v -1.9 2.1 -3.5
v -1.9 2.1 -3.6
v -1.9 2.1 -3.7
v -1.9 2.3 -3.6
v -1.9 2.3 -3.7
v -1.9 2.4 -3.5
v -1.9 2.4 -3.6
v -1.9 2.5 -3.5
v -1.9 2.5 -3.6
v -1.8 2.1 -3.5
v -1.8 2.1 -3.6
v -1.8 2.4 -3.5
v -1.8 2.4 -3.6
v -2.8 0.9 -3.5
v -2.8 1 -3.5
v -2.7 0.9 -3.5
v -2.7 1 -3.5
v -2.7 1.1 -3.5
v -2.7 1.3 -3.5
v -2.6 1.1 -3.5
v -2.6 1.3 -3.5
v -2.6 1.5 -3.5
v -2.5 1.3 -3.5
v -2.5 1.5 -3.5
v -2.5 1.6 -3.5
v -2.4 1.5 -3.5
v -2.4 1.6 -3.5
v -2.4 1.7 -3.5
v -2.4 1.9 -3.5
v -2.3 0.9 -3.5
v -2.3 1.1 -3.5
v -2.3 1.7 -3.5
v -2.3 1.9 -3.5
v -2.3 2.1 -3.5
v -2.2 1.1 -3.5
v -2.2 1.4 -3.5
v -2.2 1.9 -3.5
v -2.2 2.1 -3.5
v -2.2 2.3 -3.5
v -2.1 1.4 -3.5
v -2.1 1.6 -3.5
v -2.1 2.1 -3.5
v -2.1 2.3 -3.5
v -2.1 2.4 -3.5
v -2 1.6 -3.5
v -2 1.8 -3.5
v -2 2.3 -3.5
v -2 2.4 -3.5
v -2 2.5 -3.5
v -1.9 1.8 -3.5
v -1.9 2.1 -3.5
v -1.9 2.4 -3.5
v -1.9 2.5 -3.5
v -1.8 2.1 -3.5
v -1.8 2.4 -3.5
v -2.8 0.9 -3.6
v -2.8 1 -3.6
v -2.7 0.9 -3.6
v -2.7 1 -3.6
v -2.7 1.1 -3.6
v -2.7 1.3 -3.6
v -2.6 0.9 -3.6
v -2.6 1.1 -3.6
v -2.6 1.3 -3.6
v -2.6 1.5 -3.6
v -2.5 1.3 -3.6
v -2.5 1.5 -3.6
v -2.5 1.6 -3.6
v -2.4 0.9 -3.6
v -2.4 1.2 -3.6
v -2.4 1.5 -3.6
v -2.4 1.6 -3.6
v -2.4 1.7 -3.6
v -2.4 1.9 -3.6
v -2.3 0.9 -3.6
v -2.3 1.1 -3.6
v -2.3 1.2 -3.6
v -2.3 1.4 -3.6
v -2.3 1.7 -3.6
v -2.3 1.9 -3.6
v -2.3 2.1 -3.6
v -2.2 1.1 -3.6
v -2.2 1.4 -3.6
v -2.2 1.7 -3.6
v -2.2 1.9 -3.6
v -2.2 2.1 -3.6
v -2.2 2.3 -3.6
v -2.1 1.4 -3.6
v -2.1 1.6 -3.6
v -2.1 1.7 -3.6
v -2.1 1.8 -3.6
v -2.1 2.1 -3.6
v -2.1 2.3 -3.6
v -2.1 2.4 -3.6
v -2 1.6 -3.6
v -2 1.8 -3.6
v -2 2.1 -3.6
v -2 2.3 -3.6
v -2 2.4 -3.6
v -2 2.5 -3.6
v -1.9 1.8 -3.6
v -1.9 2.1 -3.6
v -1.9 2.3 -3.6
v -1.9 2.4 -3.6
v -1.9 2.5 -3.6
v -1.8 2.1 -3.6
v -1.8 2.4 -3.6
v -2.6 0.9 -3.7
v -2.6 1.3 -3.7
v -2.5 1.3 -3.7
v -2.5 1.5 -3.7
v -2.4 0.9 -3.7
v -2.4 1.2 -3.7
v -2.4 1.5 -3.7
v -2.4 1.7 -3.7
v -2.3 1.2 -3.7
v -2.3 1.4 -3.7
v -2.3 1.7 -3.7
v -2.3 1.9 -3.7
v -2.2 1.4 -3.7
v -2.2 1.7 -3.7
v -2.2 1.9 -3.7
v -2.2 2.1 -3.7
v -2.1 1.7 -3.7
v -2.1 1.8 -3.7
v -2.1 2.1 -3.7
v -2.1 2.3 -3.7
v -2 1.8 -3.7
v -2 2.1 -3.7
v -1.9 2.1 -3.7
v -1.9 2.3 -3.7
v -2.8 0.9 -3.5
v -2.7 0.9 -3.5
v -2.3 0.9 -3.5
v -2.8 0.9 -3.6
v -2.7 0.9 -3.6
v -2.6 0.9 -3.6
v -2.4 0.9 -3.6
v -2.3 0.9 -3.6
v -2.6 0.9 -3.7
v -2.4 0.9 -3.7
v -2.3 1.1 -3.5
v -2.2 1.1 -3.5
v -2.3 1.1 -3.6
v -2.2 1.1 -3.6
v -2.4 1.2 -3.6
v -2.3 1.2 -3.6
v -2.4 1.2 -3.7
v -2.3 1.2 -3.7
v -2.2 1.4 -3.5
v -2.1 1.4 -3.5
v -2.3 1.4 -3.6
v -2.2 1.4 -3.6
v -2.1 1.4 -3.6
v -2.3 1.4 -3.7
v -2.2 1.4 -3.7
v -2.1 1.6 -3.5
v -2 1.6 -3.5
v -2.1 1.6 -3.6
v -2 1.6 -3.6
v -2.2 1.7 -3.6
v -2.1 1.7 -3.6
v -2.2 1.7 -3.7
v -2.1 1.7 -3.7
v -2 1.8 -3.5
v -1.9 1.8 -3.5
v -2.1 1.8 -3.6
v -2 1.8 -3.6
v -1.9 1.8 -3.6
v -2.1 1.8 -3.7
v -2 1.8 -3.7
v -1.9 2.1 -3.5
v -1.8 2.1 -3.5
v -2 2.1 -3.6
v -1.9 2.1 -3.6
v -1.8 2.1 -3.6
v -2 2.1 -3.7
v -1.9 2.1 -3.7
v -2.8 1 -3.5
v -2.7 1 -3.5
v -2.8 1 -3.6
v -2.7 1 -3.6
v -2.7 1.3 -3.5
v -2.6 1.3 -3.5
v -2.7 1.3 -3.6
v -2.6 1.3 -3.6
v -2.5 1.3 -3.6
v -2.6 1.3 -3.7
v -2.5 1.3 -3.7
v -2.6 1.5 -3.5
v -2.5 1.5 -3.5
v -2.6 1.5 -3.6
v -2.5 1.5 -3.6
v -2.4 1.5 -3.6
v -2.5 1.5 -3.7
v -2.4 1.5 -3.7
v -2.5 1.6 -3.5
v -2.4 1.6 -3.5
v -2.5 1.6 -3.6
v -2.4 1.6 -3.6
v -2.4 1.7 -3.6
v -2.3 1.7 -3.6
v -2.4 1.7 -3.7
v -2.3 1.7 -3.7
v -2.4 1.9 -3.5
v -2.3 1.9 -3.5
v -2.4 1.9 -3.6
v -2.3 1.9 -3.6
v -2.2 1.9 -3.6
v -2.3 1.9 -3.7
v -2.2 1.9 -3.7
v -2.3 2.1 -3.5
v -2.2 2.1 -3.5
v -2.3 2.1 -3.6
v -2.2 2.1 -3.6
v -2.1 2.1 -3.6
v -2.2 2.1 -3.7
v -2.1 2.1 -3.7
v -2.2 2.3 -3.5
v -2.1 2.3 -3.5
v -2.2 2.3 -3.6
v -2.1 2.3 -3.6
v -2 2.3 -3.6
v -1.9 2.3 -3.6
v -2.1 2.3 -3.7
v -1.9 2.3 -3.7
v -2.1 2.4 -3.5
v -2 2.4 -3.5
v -1.9 2.4 -3.5
v -1.8 2.4 -3.5
v -2.1 2.4 -3.6
v -2 2.4 -3.6
v -1.9 2.4 -3.6
v -1.8 2.4 -3.6
v -2 2.5 -3.5
v -1.9 2.5 -3.5
v -2 2.5 -3.6
v -1.9 2.5 -3.6

# faces
f 3/1/1 2/1/1 1/1/1
f 4/1/1 2/1/1 3/1/1
f 7/2/1 6/2/1 5/2/1
f 8/2/1 6/2/1 7/2/1
f 9/1/1 8/1/1 7/1/1
f 10/1/1 8/1/1 9/1/1
f 13/2/1 12/2/1 11/2/1
f 15/2/1 12/2/1 13/2/1
f 16/2/1 12/2/1 15/2/1
f 17/1/1 15/1/1 14/1/1
f 18/1/1 15/1/1 17/1/1
f 22/2/1 20/2/1 19/2/1
f 23/2/1 20/2/1 22/2/1
f 24/1/1 22/1/1 21/1/1
f 25/1/1 22/1/1 24/1/1
f 29/2/1 27/2/1 26/2/1
f 30/2/1 29/2/1 28/2/1
f 31/2/1 27/2/1 29/2/1
f 31/2/1 29/2/1 30/2/1
f 32/2/1 27/2/1 31/2/1
f 33/1/1 31/1/1 30/1/1
f 34/1/1 31/1/1 33/1/1
f 38/2/1 36/2/1 35/2/1
f 39/2/1 36/2/1 38/2/1
f 40/1/1 38/1/1 37/1/1
f 41/1/1 38/1/1 40/1/1
f 45/2/1 43/2/1 42/2/1
f 46/2/1 43/2/1 45/2/1
f 47/1/1 45/1/1 44/1/1
f 48/1/1 45/1/1 47/1/1
f 52/2/1 50/2/1 49/2/1
f 53/2/1 50/2/1 52/2/1
f 54/1/1 52/1/1 51/1/1
f 55/1/1 52/1/1 54/1/1
f 58/1/1 57/1/1 56/1/1
f 59/1/1 57/1/1 58/1/1
f 60/2/2 61/2/2 62/2/2
f 62/2/2 61/2/2 63/2/2
f 64/2/2 65/2/2 66/2/2
f 66/2/2 65/2/2 67/2/2
f 68/2/2 69/2/2 70/2/2
f 70/2/2 69/2/2 71/2/2
f 72/2/2 73/2/2 74/2/2
f 74/2/2 73/2/2 75/2/2
f 75/2/2 76/2/2 77/2/2
f 77/2/2 76/2/2 78/2/2
f 79/2/2 80/2/2 81/2/2
f 81/2/2 80/2/2 82/2/2
f 83/2/2 84/2/2 85/2/2
f 85/2/2 84/2/2 86/2/2
f 87/2/2 88/2/2 89/2/2
f 89/2/2 88/2/2 90/2/2
f 90/2/2 91/2/2 92/2/2
f 92/2/2 91/2/2 93/2/2
f 94/2/2 95/2/2 96/2/2
f 96/2/2 95/2/2 97/2/2
f 97/2/2 98/2/2 99/2/2
f 99/2/2 98/2/2 100/2/2
f 101/1/2 102/1/2 103/1/2
f 103/1/2 102/1/2 104/1/2
f 105/1/2 106/1/2 107/1/2
f 107/1/2 106/1/2 108/1/2
f 111/1/3 110/1/3 109/1/3
f 112/1/3 110/1/3 111/1/3
f 115/2/3 112/2/3 111/2/3
f 115/1/3 114/1/3 113/1/3
f 115/2/3 113/2/3 112/2/3
f 116/1/3 114/1/3 115/1/3
f 118/2/3 116/2/3 115/2/3
f 118/1/3 117/1/3 116/1/3
f 119/1/3 117/1/3 118/1/3
f 121/2/3 119/2/3 118/2/3
f 121/1/3 120/1/3 119/1/3
f 122/1/3 120/1/3 121/1/3
f 125/2/3 115/2/3 111/2/3
f 125/2/3 118/2/3 115/2/3
f 125/2/3 123/2/3 122/2/3
f 125/2/3 122/2/3 121/2/3
f 125/2/3 121/2/3 118/2/3
f 126/2/3 123/2/3 125/2/3
f 127/1/3 124/1/3 123/1/3
f 127/2/3 123/2/3 126/2/3
f 128/1/3 124/1/3 127/1/3
f 130/2/3 127/2/3 126/2/3
f 130/2/3 128/2/3 127/2/3
f 131/2/3 128/2/3 130/2/3
f 132/1/3 129/1/3 128/1/3
f 132/2/3 128/2/3 131/2/3
f 133/1/3 129/1/3 132/1/3
f 135/2/3 132/2/3 131/2/3
f 135/2/3 133/2/3 132/2/3
f 136/2/3 133/2/3 135/2/3
f 137/1/3 134/1/3 133/1/3
f 137/2/3 133/2/3 136/2/3
f 138/1/3 134/1/3 137/1/3
f 140/2/3 137/2/3 136/2/3
f 140/2/3 138/2/3 137/2/3
f 141/2/3 138/2/3 140/2/3
f 142/1/3 139/1/3 138/1/3
f 142/2/3 138/2/3 141/2/3
f 143/1/3 139/1/3 142/1/3
f 145/2/3 142/2/3 141/2/3
f 145/2/3 143/2/3 142/2/3
f 146/2/3 143/2/3 145/2/3
f 147/1/3 144/1/3 143/1/3
f 147/2/3 143/2/3 146/2/3
f 148/1/3 144/1/3 147/1/3
f 149/1/3 147/1/3 146/1/3
f 150/1/3 147/1/3 149/1/3
f 151/1/4 152/1/4 153/1/4
f 153/1/4 152/1/4 154/1/4
f 153/2/4 154/2/4 157/2/4
f 154/2/4 155/2/4 157/2/4
f 155/1/4 156/1/4 158/1/4
f 157/2/4 155/2/4 158/2/4
f 158/1/4 156/1/4 159/1/4
f 159/1/4 160/1/4 161/1/4
f 161/1/4 160/1/4 162/1/4
f 162/1/4 163/1/4 166/1/4
f 166/1/4 163/1/4 167/1/4
f 164/2/4 165/2/4 170/2/4
f 170/2/4 165/2/4 171/2/4
f 171/2/4 165/2/4 172/2/4
f 168/1/4 169/1/4 174/1/4
f 174/1/4 169/1/4 175/1/4
f 172/2/4 173/2/4 177/2/4
f 171/2/4 172/2/4 177/2/4
f 177/2/4 173/2/4 178/2/4
f 175/1/4 176/1/4 180/1/4
f 180/1/4 176/1/4 181/1/4
f 178/2/4 179/2/4 183/2/4
f 183/2/4 179/2/4 184/2/4
f 184/2/4 179/2/4 185/2/4
f 181/1/4 182/1/4 187/1/4
f 187/1/4 182/1/4 188/1/4
f 185/2/4 186/2/4 190/2/4
f 184/2/4 185/2/4 190/2/4
f 190/2/4 186/2/4 191/2/4
f 188/1/4 189/1/4 193/1/4
f 193/1/4 189/1/4 194/1/4
f 191/2/4 192/2/4 196/2/4
f 196/2/4 192/2/4 197/2/4
f 193/2/4 194/2/4 198/2/4
f 194/1/4 195/1/4 199/1/4
f 198/2/4 194/2/4 199/2/4
f 199/1/4 195/1/4 200/1/4
f 197/1/4 198/1/4 201/1/4
f 198/1/4 199/1/4 201/1/4
f 201/1/4 199/1/4 202/1/4
f 203/2/4 204/2/4 205/2/4
f 203/2/4 205/2/4 207/2/4
f 205/2/4 206/2/4 207/2/4
f 207/2/4 206/2/4 208/2/4
f 208/2/4 206/2/4 209/2/4
f 209/2/4 210/2/4 211/2/4
f 208/2/4 209/2/4 211/2/4
f 211/2/4 210/2/4 212/2/4
f 212/2/4 210/2/4 213/2/4
f 213/2/4 214/2/4 215/2/4
f 212/2/4 213/2/4 215/2/4
f 215/2/4 214/2/4 216/2/4
f 216/2/4 214/2/4 217/2/4
f 217/2/4 218/2/4 219/2/4
f 216/2/4 217/2/4 219/2/4
f 219/2/4 218/2/4 220/2/4
f 220/2/4 218/2/4 221/2/4
f 221/2/4 222/2/4 223/2/4
f 220/2/4 221/2/4 223/2/4
f 223/2/4 222/2/4 224/2/4
f 224/2/4 222/2/4 225/2/4
f 225/2/4 222/2/4 226/2/4
f 230/1/5 228/1/5 227/1/5
f 231/2/5 229/2/5 228/2/5
f 231/1/5 228/1/5 230/1/5
f 232/2/5 229/2/5 231/2/5
f 233/2/5 229/2/5 232/2/5
f 234/2/5 229/2/5 233/2/5
f 235/2/5 233/2/5 232/2/5
f 236/2/5 233/2/5 235/2/5
f 239/2/5 238/2/5 237/2/5
f 240/2/5 238/2/5 239/2/5
f 243/2/5 242/2/5 241/2/5
f 244/2/5 242/2/5 243/2/5
f 248/2/5 246/2/5 245/2/5
f 249/2/5 246/2/5 248/2/5
f 250/2/5 248/2/5 247/2/5
f 251/2/5 248/2/5 250/2/5
f 254/2/5 253/2/5 252/2/5
f 255/2/5 253/2/5 254/2/5
f 258/2/5 257/2/5 256/2/5
f 259/2/5 257/2/5 258/2/5
f 263/2/5 261/2/5 260/2/5
f 264/2/5 261/2/5 263/2/5
f 265/2/5 263/2/5 262/2/5
f 266/2/5 263/2/5 265/2/5
f 270/1/5 268/1/5 267/1/5
f 271/1/5 268/1/5 270/1/5
f 272/2/5 270/2/5 269/2/5
f 273/2/5 270/2/5 272/2/5
f 274/1/6 275/1/6 276/1/6
f 276/1/6 275/1/6 277/1/6
f 278/1/6 279/1/6 280/1/6
f 280/1/6 279/1/6 281/1/6
f 281/2/6 282/2/6 283/2/6
f 283/2/6 282/2/6 284/2/6
f 285/1/6 286/1/6 287/1/6
f 287/1/6 286/1/6 288/1/6
f 288/2/6 289/2/6 290/2/6
f 290/2/6 289/2/6 291/2/6
f 292/1/6 293/1/6 294/1/6
f 294/1/6 293/1/6 295/1/6
f 296/2/6 297/2/6 298/2/6
f 298/2/6 297/2/6 299/2/6
f 300/1/6 301/1/6 302/1/6
f 302/1/6 301/1/6 303/1/6
f 303/2/6 304/2/6 305/2/6
f 305/2/6 304/2/6 306/2/6
f 307/1/6 308/1/6 309/1/6
f 309/1/6 308/1/6 310/1/6
f 310/2/6 311/2/6 312/2/6
f 312/2/6 311/2/6 313/2/6
f 314/1/6 315/1/6 316/1/6
f 316/1/6 315/1/6 317/1/6
f 318/2/6 319/2/6 320/2/6
f 317/2/6 318/2/6 320/2/6
f 320/2/6 319/2/6 321/2/6
f 322/1/6 323/1/6 326/1/6
f 326/1/6 323/1/6 327/1/6
f 324/1/6 325/1/6 328/1/6
f 328/1/6 325/1/6 329/1/6
f 330/1/6 331/1/6 332/1/6
f 332/1/6 331/1/6 333/1/6
