# MagicaVoxel @ Ephtracy

# group
o 

# material
mtllib debris-0.mtl
usemtl palette

# normals
vn -1 0 0
vn 1 0 0
vn 0 0 1
vn 0 0 -1
vn 0 -1 0
vn 0 1 0

# texcoords
vt 0.00585938 0.5
vt 0.00976563 0.5

# verts
v -7.1 0.5 -1.9
v -7.1 0.5 -2
v -7.1 0.7 -1.9
v -7.1 0.7 -2
v -7 0.4 -1.9
v -7 0.4 -2
v -7 0.5 -1.8
v -7 0.5 -1.9
v -7 0.5 -2
v -7 0.7 -1.8
v -7 0.7 -1.9
v -7 0.7 -2
v -7 0.8 -1.9
v -7 0.8 -2
v -6.9 0.7 -1.8
v -6.9 0.7 -1.9
v -6.9 0.8 -1.8
v -6.9 0.8 -1.9
v -6.9 0.8 -2
v -6.9 0.9 -1.9
v -6.9 0.9 -2
v -6.7 0.8 -1.8
v -6.7 0.8 -1.9
v -6.7 0.9 -1.8
v -6.7 0.9 -1.9
v -6.7 0.9 -2
v -6.7 1 -1.9
v -6.7 1 -2
v -6.6 0.4 -1.9
v -6.6 0.4 -2
v -6.6 0.5 -1.9
v -6.6 0.5 -2
v -6.5 0.5 -1.8
v -6.5 0.5 -1.9
v -6.5 0.7 -1.8
v -6.5 0.7 -1.9
v -6.4 0.5 -1.9
v -6.4 0.5 -2
v -6.4 0.6 -1.9
v -6.4 0.6 -2
v -6.4 0.7 -1.8
v -6.4 0.7 -1.9
v -6.4 0.8 -1.9
v -6.4 0.9 -1.8
v -6.4 0.9 -1.9
v -6.4 0.9 -2
v -6.4 1 -1.9
v -6.4 1 -2
v -6.3 0.6 -1.9
v -6.3 0.6 -2
v -6.3 0.8 -1.9
v -6.3 0.8 -2
v -6.3 0.9 -1.9
v -6.3 0.9 -2
v -7 0.5 -1.8
v -7 0.7 -1.8
v -6.9 0.7 -1.8
v -6.9 0.8 -1.8
v -6.7 0.8 -1.8
v -6.7 0.9 -1.8
v -6.5 0.5 -1.8
v -6.5 0.7 -1.8
v -6.4 0.7 -1.8
v -6.4 0.9 -1.8
v -7.1 0.5 -1.9
v -7.1 0.7 -1.9
v -7 0.4 -1.9
v -7 0.5 -1.9
v -7 0.7 -1.9
v -7 0.8 -1.9
v -6.9 0.4 -1.9
v -6.9 0.5 -1.9
v -6.9 0.7 -1.9
v -6.9 0.8 -1.9
v -6.9 0.9 -1.9
v -6.7 0.8 -1.9
v -6.7 0.9 -1.9
v -6.7 1 -1.9
v -6.6 0.4 -1.9
v -6.6 0.5 -1.9
v -6.5 0.5 -1.9
v -6.5 0.7 -1.9
v -6.4 0.5 -1.9
v -6.4 0.6 -1.9
v -6.4 0.7 -1.9
v -6.4 0.8 -1.9
v -6.4 0.9 -1.9
v -6.4 1 -1.9
v -6.3 0.6 -1.9
v -6.3 0.8 -1.9
v -6.3 0.9 -1.9
v -7.1 0.5 -2
v -7.1 0.7 -2
v -7 0.4 -2
v -7 0.5 -2
v -7 0.7 -2
v -7 0.8 -2
v -6.9 0.4 -2
v -6.9 0.5 -2
v -6.9 0.7 -2
v -6.9 0.8 -2
v -6.9 0.9 -2
v -6.7 0.8 -2
v -6.7 0.9 -2
v -6.7 1 -2
v -6.6 0.4 -2
v -6.6 0.5 -2
v -6.4 0.5 -2
v -6.4 0.6 -2
v -6.4 0.8 -2
v -6.4 0.9 -2
v -6.4 1 -2
v -6.3 0.6 -2
v -6.3 0.8 -2
v -6.3 0.9 -2
v -7 0.4 -1.9
v -6.9 0.4 -1.9
v -6.6 0.4 -1.9
v -7 0.4 -2
v -6.9 0.4 -2
v -6.6 0.4 -2
v -7 0.5 -1.8
v -6.5 0.5 -1.8
v -7.1 0.5 -1.9
v -7 0.5 -1.9
v -6.9 0.5 -1.9
v -6.6 0.5 -1.9
v -6.5 0.5 -1.9
v -6.4 0.5 -1.9
v -7.1 0.5 -2
v -7 0.5 -2
v -6.6 0.5 -2
v -6.4 0.5 -2
v -6.4 0.6 -1.9
v -6.3 0.6 -1.9
v -6.4 0.6 -2
v -6.3 0.6 -2
v -6.5 0.7 -1.8
v -6.4 0.7 -1.8
v -6.5 0.7 -1.9
v -6.4 0.7 -1.9
v -7 0.7 -1.8
v -6.9 0.7 -1.8
v -7.1 0.7 -1.9
v -7 0.7 -1.9
v -6.9 0.7 -1.9
v -7.1 0.7 -2
v -7 0.7 -2
v -6.9 0.8 -1.8
v -6.7 0.8 -1.8
v -7 0.8 -1.9
v -6.9 0.8 -1.9
v -6.7 0.8 -1.9
v -7 0.8 -2
v -6.9 0.8 -2
v -6.7 0.9 -1.8
v -6.4 0.9 -1.8
v -6.9 0.9 -1.9
v -6.7 0.9 -1.9
v -6.4 0.9 -1.9
v -6.3 0.9 -1.9
v -6.9 0.9 -2
v -6.7 0.9 -2
v -6.4 0.9 -2
v -6.3 0.9 -2
v -6.7 1 -1.9
v -6.4 1 -1.9
v -6.7 1 -2
v -6.4 1 -2

# faces
f 3/1/1 2/1/1 1/1/1
f 4/1/1 2/1/1 3/1/1
f 8/1/1 6/1/1 5/1/1
f 9/1/1 6/1/1 8/1/1
f 10/2/1 8/2/1 7/2/1
f 11/2/1 8/2/1 10/2/1
f 13/1/1 12/1/1 11/1/1
f 14/1/1 12/1/1 13/1/1
f 17/2/1 16/2/1 15/2/1
f 18/2/1 16/2/1 17/2/1
f 20/1/1 19/1/1 18/1/1
f 21/1/1 19/1/1 20/1/1
f 24/2/1 23/2/1 22/2/1
f 25/2/1 23/2/1 24/2/1
f 27/1/1 26/1/1 25/1/1
f 28/1/1 26/1/1 27/1/1
f 29/2/2 30/2/2 31/2/2
f 31/2/2 30/2/2 32/2/2
f 33/2/2 34/2/2 35/2/2
f 35/2/2 34/2/2 36/2/2
f 37/2/2 38/2/2 39/2/2
f 39/2/2 38/2/2 40/2/2
f 41/2/2 42/2/2 43/2/2
f 41/2/2 43/2/2 44/2/2
f 44/2/2 43/2/2 45/2/2
f 45/1/2 46/1/2 47/1/2
f 47/1/2 46/1/2 48/1/2
f 49/2/2 50/2/2 51/2/2
f 51/2/2 50/2/2 52/2/2
f 51/1/2 52/1/2 53/1/2
f 53/1/2 52/1/2 54/1/2
f 57/2/3 56/2/3 55/2/3
f 59/2/3 58/2/3 57/2/3
f 61/2/3 57/2/3 55/2/3
f 61/2/3 60/2/3 59/2/3
f 61/2/3 59/2/3 57/2/3
f 62/2/3 60/2/3 61/2/3
f 63/2/3 60/2/3 62/2/3
f 64/2/3 60/2/3 63/2/3
f 68/1/3 66/1/3 65/1/3
f 69/1/3 66/1/3 68/1/3
f 71/1/3 68/1/3 67/1/3
f 72/1/3 68/1/3 71/1/3
f 73/1/3 70/1/3 69/1/3
f 74/1/3 70/1/3 73/1/3
f 76/1/3 75/1/3 74/1/3
f 77/1/3 75/1/3 76/1/3
f 79/2/3 72/2/3 71/2/3
f 80/2/3 72/2/3 79/2/3
f 83/2/3 82/2/3 81/2/3
f 84/2/3 82/2/3 83/2/3
f 85/2/3 82/2/3 84/2/3
f 87/1/3 78/1/3 77/1/3
f 88/1/3 78/1/3 87/1/3
f 89/2/3 86/2/3 85/2/3
f 89/2/3 85/2/3 84/2/3
f 90/1/3 87/1/3 86/1/3
f 90/2/3 86/2/3 89/2/3
f 91/1/3 87/1/3 90/1/3
f 92/1/4 93/1/4 95/1/4
f 95/1/4 93/1/4 96/1/4
f 94/1/4 95/1/4 98/1/4
f 95/2/4 96/2/4 99/2/4
f 98/1/4 95/1/4 99/1/4
f 96/1/4 97/1/4 100/1/4
f 99/2/4 96/2/4 100/2/4
f 100/1/4 97/1/4 101/1/4
f 98/2/4 99/2/4 103/2/4
f 101/1/4 102/1/4 103/1/4
f 100/2/4 101/2/4 103/2/4
f 99/2/4 100/2/4 103/2/4
f 103/1/4 102/1/4 104/1/4
f 98/2/4 103/2/4 106/2/4
f 103/2/4 104/2/4 106/2/4
f 106/2/4 104/2/4 107/2/4
f 107/2/4 104/2/4 108/2/4
f 108/2/4 104/2/4 109/2/4
f 109/2/4 104/2/4 110/2/4
f 104/1/4 105/1/4 111/1/4
f 110/2/4 104/2/4 111/2/4
f 111/1/4 105/1/4 112/1/4
f 109/2/4 110/2/4 113/2/4
f 110/1/4 111/1/4 114/1/4
f 113/2/4 110/2/4 114/2/4
f 114/1/4 111/1/4 115/1/4
f 119/1/5 117/1/5 116/1/5
f 120/2/5 118/2/5 117/2/5
f 120/1/5 117/1/5 119/1/5
f 121/2/5 118/2/5 120/2/5
f 125/2/5 123/2/5 122/2/5
f 126/2/5 123/2/5 125/2/5
f 127/2/5 123/2/5 126/2/5
f 128/2/5 123/2/5 127/2/5
f 130/1/5 125/1/5 124/1/5
f 131/1/5 125/1/5 130/1/5
f 132/2/5 129/2/5 128/2/5
f 132/2/5 128/2/5 127/2/5
f 133/2/5 129/2/5 132/2/5
f 136/2/5 135/2/5 134/2/5
f 137/2/5 135/2/5 136/2/5
f 140/2/5 139/2/5 138/2/5
f 141/2/5 139/2/5 140/2/5
f 142/2/6 143/2/6 145/2/6
f 145/2/6 143/2/6 146/2/6
f 144/1/6 145/1/6 147/1/6
f 147/1/6 145/1/6 148/1/6
f 149/2/6 150/2/6 152/2/6
f 152/2/6 150/2/6 153/2/6
f 151/1/6 152/1/6 154/1/6
f 154/1/6 152/1/6 155/1/6
f 156/2/6 157/2/6 159/2/6
f 159/2/6 157/2/6 160/2/6
f 158/1/6 159/1/6 162/1/6
f 162/1/6 159/1/6 163/1/6
f 160/1/6 161/1/6 164/1/6
f 164/1/6 161/1/6 165/1/6
f 166/1/6 167/1/6 168/1/6
f 168/1/6 167/1/6 169/1/6
