# MagicaVoxel @ Ephtracy

# group
o 

# material
mtllib clovers-3.mtl
usemtl palette

# normals
vn -1 0 0
vn 1 0 0
vn 0 0 1
vn 0 0 -1
vn 0 -1 0
vn 0 1 0

# texcoords
vt 0.00585938 0.5
vt 0.00976563 0.5
vt 0.0136719 0.5
vt 0.0175781 0.5

# verts
v 3.2 0.5 0
v 3.2 0.5 -0.1
v 3.2 0.7 0
v 3.2 0.7 -0.1
v 3.3 0.7 0
v 3.3 0.7 -0.1
v 3.3 0.9 0
v 3.3 0.9 -0.1
v 3.3 1.3 0
v 3.3 1.3 -0.1
v 3.3 1.5 0
v 3.3 1.5 -0.1
v 3.3 1.8 0
v 3.3 1.8 -0.1
v 3.3 1.9 0
v 3.3 1.9 -0.1
v 3.3 2 0
v 3.3 2 -0.1
v 3.3 2.2 0
v 3.3 2.2 -0.1
v 3.4 1.5 0
v 3.4 1.5 -0.1
v 3.4 1.7 0
v 3.4 1.7 -0.1
v 3.4 1.9 0
v 3.4 1.9 -0.1
v 3.4 2 0
v 3.4 2 -0.1
v 3.5 0.5 0
v 3.5 0.5 -0.1
v 3.5 0.6 0
v 3.5 0.6 -0.1
v 3.5 1.2 0
v 3.5 1.2 -0.1
v 3.5 1.3 0
v 3.5 1.3 -0.1
v 3.5 2.2 0
v 3.5 2.2 -0.1
v 3.5 2.3 0
v 3.5 2.3 -0.1
v 3.6 0.3 0
v 3.6 0.3 -0.1
v 3.6 0.5 0
v 3.6 0.5 -0.1
v 3.6 1.1 0
v 3.6 1.1 -0.1
v 3.6 1.2 0
v 3.6 1.2 -0.1
v 3.6 1.9 0
v 3.6 1.9 -0.1
v 3.6 2 0
v 3.6 2 -0.1
v 4.1 2.1 0
v 4.1 2.1 -0.1
v 4.1 2.3 0
v 4.1 2.3 -0.1
v 4.2 2.3 0
v 4.2 2.3 -0.1
v 4.2 2.5 0
v 4.2 2.5 -0.1
v 4.3 2 0
v 4.3 2 -0.1
v 4.3 2.1 0
v 4.3 2.1 -0.1
v 4.4 1.9 0
v 4.4 1.9 -0.1
v 4.4 2 0
v 4.4 2 -0.1
v 3.4 0.5 0
v 3.4 0.5 -0.1
v 3.4 0.6 0
v 3.4 0.6 -0.1
v 3.4 1.8 0
v 3.4 1.8 -0.1
v 3.4 1.9 0
v 3.4 1.9 -0.1
v 3.5 0.8 0
v 3.5 0.8 -0.1
v 3.5 0.9 0
v 3.5 0.9 -0.1
v 3.5 1.9 0
v 3.5 1.9 -0.1
v 3.5 2 0
v 3.5 2 -0.1
v 3.6 0.5 0
v 3.6 0.5 -0.1
v 3.6 0.6 0
v 3.6 0.6 -0.1
v 3.6 1.2 0
v 3.6 1.2 -0.1
v 3.6 1.3 0
v 3.6 1.3 -0.1
v 3.6 1.5 0
v 3.6 1.5 -0.1
v 3.6 1.6 0
v 3.6 1.6 -0.1
v 3.6 1.7 0
v 3.6 1.7 -0.1
v 3.7 0.3 0
v 3.7 0.3 -0.1
v 3.7 0.5 0
v 3.7 0.5 -0.1
v 3.7 0.6 0
v 3.7 0.6 -0.1
v 3.7 0.8 0
v 3.7 0.8 -0.1
v 3.7 1.1 0
v 3.7 1.1 -0.1
v 3.7 1.2 0
v 3.7 1.2 -0.1
v 3.7 2.1 0
v 3.7 2.1 -0.1
v 3.7 2.3 0
v 3.7 2.3 -0.1
v 3.8 1.3 0
v 3.8 1.3 -0.1
v 3.8 1.5 0
v 3.8 1.5 -0.1
v 3.8 1.9 0
v 3.8 1.9 -0.1
v 3.8 2.1 0
v 3.8 2.1 -0.1
v 4.4 2 0
v 4.4 2 -0.1
v 4.4 2.1 0
v 4.4 2.1 -0.1
v 4.4 2.3 0
v 4.4 2.3 -0.1
v 4.4 2.4 0
v 4.4 2.4 -0.1
v 4.4 2.5 0
v 4.4 2.5 -0.1
v 4.5 1.9 0
v 4.5 1.9 -0.1
v 4.5 2 0
v 4.5 2 -0.1
v 4.6 2.1 0
v 4.6 2.1 -0.1
v 4.6 2.3 0
v 4.6 2.3 -0.1
v 3.2 0.5 0
v 3.2 0.7 0
v 3.3 0.6 0
v 3.3 0.7 0
v 3.3 0.9 0
v 3.3 1.3 0
v 3.3 1.5 0
v 3.3 1.8 0
v 3.3 1.9 0
v 3.3 2 0
v 3.3 2.2 0
v 3.4 0.5 0
v 3.4 0.6 0
v 3.4 0.7 0
v 3.4 0.8 0
v 3.4 0.9 0
v 3.4 1.4 0
v 3.4 1.5 0
v 3.4 1.7 0
v 3.4 1.8 0
v 3.4 1.9 0
v 3.4 2 0
v 3.4 2.1 0
v 3.4 2.2 0
v 3.5 0.5 0
v 3.5 0.6 0
v 3.5 0.7 0
v 3.5 0.8 0
v 3.5 0.9 0
v 3.5 1.2 0
v 3.5 1.3 0
v 3.5 1.4 0
v 3.5 1.5 0
v 3.5 1.6 0
v 3.5 1.7 0
v 3.5 1.9 0
v 3.5 2 0
v 3.5 2.1 0
v 3.5 2.2 0
v 3.5 2.3 0
v 3.6 0.3 0
v 3.6 0.5 0
v 3.6 0.6 0
v 3.6 0.7 0
v 3.6 0.8 0
v 3.6 1.1 0
v 3.6 1.2 0
v 3.6 1.3 0
v 3.6 1.4 0
v 3.6 1.5 0
v 3.6 1.6 0
v 3.6 1.7 0
v 3.6 1.9 0
v 3.6 2 0
v 3.6 2.1 0
v 3.6 2.2 0
v 3.6 2.3 0
v 3.7 0.3 0
v 3.7 0.5 0
v 3.7 0.6 0
v 3.7 0.8 0
v 3.7 1.1 0
v 3.7 1.2 0
v 3.7 1.4 0
v 3.7 1.5 0
v 3.7 2 0
v 3.7 2.1 0
v 3.7 2.3 0
v 3.8 1.3 0
v 3.8 1.5 0
v 3.8 1.9 0
v 3.8 2.1 0
v 4.1 2.1 0
v 4.1 2.3 0
v 4.2 2.2 0
v 4.2 2.3 0
v 4.2 2.5 0
v 4.3 2 0
v 4.3 2.1 0
v 4.3 2.2 0
v 4.3 2.3 0
v 4.3 2.4 0
v 4.3 2.5 0
v 4.4 1.9 0
v 4.4 2 0
v 4.4 2.1 0
v 4.4 2.2 0
v 4.4 2.3 0
v 4.4 2.4 0
v 4.4 2.5 0
v 4.5 1.9 0
v 4.5 2 0
v 4.5 2.2 0
v 4.5 2.3 0
v 4.6 2.1 0
v 4.6 2.3 0
v 3.2 0.5 -0.1
v 3.2 0.7 -0.1
v 3.3 0.6 -0.1
v 3.3 0.7 -0.1
v 3.3 0.9 -0.1
v 3.3 1.3 -0.1
v 3.3 1.5 -0.1
v 3.3 1.8 -0.1
v 3.3 1.9 -0.1
v 3.3 2 -0.1
v 3.3 2.2 -0.1
v 3.4 0.5 -0.1
v 3.4 0.6 -0.1
v 3.4 0.7 -0.1
v 3.4 0.8 -0.1
v 3.4 0.9 -0.1
v 3.4 1.4 -0.1
v 3.4 1.5 -0.1
v 3.4 1.7 -0.1
v 3.4 1.8 -0.1
v 3.4 1.9 -0.1
v 3.4 2 -0.1
v 3.4 2.1 -0.1
v 3.4 2.2 -0.1
v 3.5 0.5 -0.1
v 3.5 0.6 -0.1
v 3.5 0.7 -0.1
v 3.5 0.8 -0.1
v 3.5 0.9 -0.1
v 3.5 1.2 -0.1
v 3.5 1.3 -0.1
v 3.5 1.4 -0.1
v 3.5 1.5 -0.1
v 3.5 1.6 -0.1
v 3.5 1.7 -0.1
v 3.5 1.9 -0.1
v 3.5 2 -0.1
v 3.5 2.1 -0.1
v 3.5 2.2 -0.1
v 3.5 2.3 -0.1
v 3.6 0.3 -0.1
v 3.6 0.5 -0.1
v 3.6 0.6 -0.1
v 3.6 0.7 -0.1
v 3.6 0.8 -0.1
v 3.6 1.1 -0.1
v 3.6 1.2 -0.1
v 3.6 1.3 -0.1
v 3.6 1.4 -0.1
v 3.6 1.5 -0.1
v 3.6 1.6 -0.1
v 3.6 1.7 -0.1
v 3.6 1.9 -0.1
v 3.6 2 -0.1
v 3.6 2.1 -0.1
v 3.6 2.2 -0.1
v 3.6 2.3 -0.1
v 3.7 0.3 -0.1
v 3.7 0.5 -0.1
v 3.7 0.6 -0.1
v 3.7 0.8 -0.1
v 3.7 1.1 -0.1
v 3.7 1.2 -0.1
v 3.7 1.4 -0.1
v 3.7 1.5 -0.1
v 3.7 2 -0.1
v 3.7 2.1 -0.1
v 3.7 2.3 -0.1
v 3.8 1.3 -0.1
v 3.8 1.5 -0.1
v 3.8 1.9 -0.1
v 3.8 2.1 -0.1
v 4.1 2.1 -0.1
v 4.1 2.3 -0.1
v 4.2 2.2 -0.1
v 4.2 2.3 -0.1
v 4.2 2.5 -0.1
v 4.3 2 -0.1
v 4.3 2.1 -0.1
v 4.3 2.2 -0.1
v 4.3 2.3 -0.1
v 4.3 2.4 -0.1
v 4.3 2.5 -0.1
v 4.4 1.9 -0.1
v 4.4 2 -0.1
v 4.4 2.1 -0.1
v 4.4 2.2 -0.1
v 4.4 2.3 -0.1
v 4.4 2.4 -0.1
v 4.4 2.5 -0.1
v 4.5 1.9 -0.1
v 4.5 2 -0.1
v 4.5 2.2 -0.1
v 4.5 2.3 -0.1
v 4.6 2.1 -0.1
v 4.6 2.3 -0.1
v 3.6 0.3 0
v 3.7 0.3 0
v 3.6 0.3 -0.1
v 3.7 0.3 -0.1
v 3.2 0.5 0
v 3.4 0.5 0
v 3.5 0.5 0
v 3.6 0.5 0
v 3.2 0.5 -0.1
v 3.4 0.5 -0.1
v 3.5 0.5 -0.1
v 3.6 0.5 -0.1
v 3.4 0.6 0
v 3.5 0.6 0
v 3.6 0.6 0
v 3.7 0.6 0
v 3.4 0.6 -0.1
v 3.5 0.6 -0.1
v 3.6 0.6 -0.1
v 3.7 0.6 -0.1
v 3.6 1.1 0
v 3.7 1.1 0
v 3.6 1.1 -0.1
v 3.7 1.1 -0.1
v 3.5 1.2 0
v 3.6 1.2 0
v 3.5 1.2 -0.1
v 3.6 1.2 -0.1
v 3.3 1.3 0
v 3.5 1.3 0
v 3.6 1.3 0
v 3.8 1.3 0
v 3.3 1.3 -0.1
v 3.5 1.3 -0.1
v 3.6 1.3 -0.1
v 3.8 1.3 -0.1
v 3.3 1.8 0
v 3.4 1.8 0
v 3.3 1.8 -0.1
v 3.4 1.8 -0.1
v 3.4 1.9 0
v 3.5 1.9 0
v 3.6 1.9 0
v 3.8 1.9 0
v 4.4 1.9 0
v 4.5 1.9 0
v 3.4 1.9 -0.1
v 3.5 1.9 -0.1
v 3.6 1.9 -0.1
v 3.8 1.9 -0.1
v 4.4 1.9 -0.1
v 4.5 1.9 -0.1
v 3.3 2 0
v 3.4 2 0
v 3.5 2 0
v 3.6 2 0
v 4.3 2 0
v 4.4 2 0
v 3.3 2 -0.1
v 3.4 2 -0.1
v 3.5 2 -0.1
v 3.6 2 -0.1
v 4.3 2 -0.1
v 4.4 2 -0.1
v 4.1 2.1 0
v 4.3 2.1 0
v 4.4 2.1 0
v 4.6 2.1 0
v 4.1 2.1 -0.1
v 4.3 2.1 -0.1
v 4.4 2.1 -0.1
v 4.6 2.1 -0.1
v 3.6 0.5 0
v 3.7 0.5 0
v 3.6 0.5 -0.1
v 3.7 0.5 -0.1
v 3.2 0.7 0
v 3.3 0.7 0
v 3.2 0.7 -0.1
v 3.3 0.7 -0.1
v 3.5 0.8 0
v 3.6 0.8 0
v 3.7 0.8 0
v 3.5 0.8 -0.1
v 3.6 0.8 -0.1
v 3.7 0.8 -0.1
v 3.3 0.9 0
v 3.4 0.9 0
v 3.5 0.9 0
v 3.3 0.9 -0.1
v 3.4 0.9 -0.1
v 3.5 0.9 -0.1
v 3.6 1.2 0
v 3.7 1.2 0
v 3.6 1.2 -0.1
v 3.7 1.2 -0.1
v 3.3 1.5 0
v 3.4 1.5 0
v 3.6 1.5 0
v 3.7 1.5 0
v 3.8 1.5 0
v 3.3 1.5 -0.1
v 3.4 1.5 -0.1
v 3.6 1.5 -0.1
v 3.7 1.5 -0.1
v 3.8 1.5 -0.1
v 3.4 1.7 0
v 3.5 1.7 0
v 3.6 1.7 0
v 3.4 1.7 -0.1
v 3.5 1.7 -0.1
v 3.6 1.7 -0.1
v 3.3 1.9 0
v 3.4 1.9 0
v 3.3 1.9 -0.1
v 3.4 1.9 -0.1
v 4.4 2 0
v 4.5 2 0
v 4.4 2 -0.1
v 4.5 2 -0.1
v 3.7 2.1 0
v 3.8 2.1 0
v 3.7 2.1 -0.1
v 3.8 2.1 -0.1
v 3.3 2.2 0
v 3.4 2.2 0
v 3.5 2.2 0
v 3.3 2.2 -0.1
v 3.4 2.2 -0.1
v 3.5 2.2 -0.1
v 3.5 2.3 0
v 3.6 2.3 0
v 3.7 2.3 0
v 4.1 2.3 0
v 4.2 2.3 0
v 4.4 2.3 0
v 4.5 2.3 0
v 4.6 2.3 0
v 3.5 2.3 -0.1
v 3.6 2.3 -0.1
v 3.7 2.3 -0.1
v 4.1 2.3 -0.1
v 4.2 2.3 -0.1
v 4.4 2.3 -0.1
v 4.5 2.3 -0.1
v 4.6 2.3 -0.1
v 4.2 2.5 0
v 4.3 2.5 0
v 4.4 2.5 0
v 4.2 2.5 -0.1
v 4.3 2.5 -0.1
v 4.4 2.5 -0.1

# faces
f 3/1/1 2/1/1 1/1/1
f 4/1/1 2/1/1 3/1/1
f 7/1/1 6/1/1 5/1/1
f 8/1/1 6/1/1 7/1/1
f 11/1/1 10/1/1 9/1/1
f 12/1/1 10/1/1 11/1/1
f 15/1/1 14/1/1 13/1/1
f 16/1/1 14/1/1 15/1/1
f 19/1/1 18/1/1 17/1/1
f 20/1/1 18/1/1 19/1/1
f 23/1/1 22/1/1 21/1/1
f 24/1/1 22/1/1 23/1/1
f 27/1/1 26/1/1 25/1/1
f 28/1/1 26/1/1 27/1/1
f 31/1/1 30/1/1 29/1/1
f 32/1/1 30/1/1 31/1/1
f 35/1/1 34/1/1 33/1/1
f 36/1/1 34/1/1 35/1/1
f 39/4/1 38/4/1 37/4/1
f 40/4/1 38/4/1 39/4/1
f 43/1/1 42/1/1 41/1/1
f 44/1/1 42/1/1 43/1/1
f 47/1/1 46/1/1 45/1/1
f 48/1/1 46/1/1 47/1/1
f 51/1/1 50/1/1 49/1/1
f 52/1/1 50/1/1 51/1/1
f 55/1/1 54/1/1 53/1/1
f 56/1/1 54/1/1 55/1/1
f 59/1/1 58/1/1 57/1/1
f 60/1/1 58/1/1 59/1/1
f 63/1/1 62/1/1 61/1/1
f 64/1/1 62/1/1 63/1/1
f 67/1/1 66/1/1 65/1/1
f 68/1/1 66/1/1 67/1/1
f 69/1/2 70/1/2 71/1/2
f 71/1/2 70/1/2 72/1/2
f 73/1/2 74/1/2 75/1/2
f 75/1/2 74/1/2 76/1/2
f 77/3/2 78/3/2 79/3/2
f 79/3/2 78/3/2 80/3/2
f 81/1/2 82/1/2 83/1/2
f 83/1/2 82/1/2 84/1/2
f 85/1/2 86/1/2 87/1/2
f 87/1/2 86/1/2 88/1/2
f 89/1/2 90/1/2 91/1/2
f 91/1/2 90/1/2 92/1/2
f 93/1/2 94/1/2 95/1/2
f 95/1/2 94/1/2 96/1/2
f 95/3/2 96/3/2 97/3/2
f 97/3/2 96/3/2 98/3/2
f 99/1/2 100/1/2 101/1/2
f 101/1/2 100/1/2 102/1/2
f 103/1/2 104/1/2 105/1/2
f 105/1/2 104/1/2 106/1/2
f 107/1/2 108/1/2 109/1/2
f 109/1/2 108/1/2 110/1/2
f 111/1/2 112/1/2 113/1/2
f 113/1/2 112/1/2 114/1/2
f 115/1/2 116/1/2 117/1/2
f 117/1/2 116/1/2 118/1/2
f 119/1/2 120/1/2 121/1/2
f 121/1/2 120/1/2 122/1/2
f 123/1/2 124/1/2 125/1/2
f 125/1/2 124/1/2 126/1/2
f 127/1/2 128/1/2 129/1/2
f 129/1/2 128/1/2 130/1/2
f 129/3/2 130/3/2 131/3/2
f 131/3/2 130/3/2 132/3/2
f 133/1/2 134/1/2 135/1/2
f 135/1/2 134/1/2 136/1/2
f 137/1/2 138/1/2 139/1/2
f 139/1/2 138/1/2 140/1/2
f 143/1/3 142/1/3 141/1/3
f 144/1/3 142/1/3 143/1/3
f 152/1/3 143/1/3 141/1/3
f 153/2/3 144/2/3 143/2/3
f 153/1/3 143/1/3 152/1/3
f 154/1/3 145/1/3 144/1/3
f 154/2/3 144/2/3 153/2/3
f 155/1/3 145/1/3 154/1/3
f 156/1/3 145/1/3 155/1/3
f 157/1/3 147/1/3 146/1/3
f 158/1/3 147/1/3 157/1/3
f 160/1/3 149/1/3 148/1/3
f 161/1/3 149/1/3 160/1/3
f 162/1/3 151/1/3 150/1/3
f 163/1/3 151/1/3 162/1/3
f 164/1/3 151/1/3 163/1/3
f 166/1/3 154/1/3 153/1/3
f 166/1/3 155/1/3 154/1/3
f 167/1/3 155/1/3 166/1/3
f 168/3/3 156/3/3 155/3/3
f 168/1/3 155/1/3 167/1/3
f 169/3/3 156/3/3 168/3/3
f 171/1/3 157/1/3 146/1/3
f 172/4/3 158/4/3 157/4/3
f 172/1/3 157/1/3 171/1/3
f 173/1/3 159/1/3 158/1/3
f 173/4/3 158/4/3 172/4/3
f 174/1/3 159/1/3 173/1/3
f 175/1/3 159/1/3 174/1/3
f 176/1/3 163/1/3 162/1/3
f 176/1/3 162/1/3 161/1/3
f 177/1/3 163/1/3 176/1/3
f 178/3/3 164/3/3 163/3/3
f 178/1/3 163/1/3 177/1/3
f 179/3/3 164/3/3 178/3/3
f 182/1/3 167/1/3 166/1/3
f 182/1/3 166/1/3 165/1/3
f 183/1/3 167/1/3 182/1/3
f 184/4/3 168/4/3 167/4/3
f 184/1/3 167/1/3 183/1/3
f 185/4/3 168/4/3 184/4/3
f 187/1/3 172/1/3 171/1/3
f 187/1/3 174/1/3 173/1/3
f 187/1/3 171/1/3 170/1/3
f 187/1/3 173/1/3 172/1/3
f 188/1/3 174/1/3 187/1/3
f 189/1/3 174/1/3 188/1/3
f 190/1/3 174/1/3 189/1/3
f 191/3/3 175/3/3 174/3/3
f 191/1/3 174/1/3 190/1/3
f 192/3/3 175/3/3 191/3/3
f 194/1/3 179/1/3 178/1/3
f 194/1/3 178/1/3 177/1/3
f 195/1/3 179/1/3 194/1/3
f 196/4/3 180/4/3 179/4/3
f 196/1/3 179/1/3 195/1/3
f 197/4/3 180/4/3 196/4/3
f 198/1/3 182/1/3 181/1/3
f 199/1/3 182/1/3 198/1/3
f 200/1/3 185/1/3 184/1/3
f 200/1/3 184/1/3 183/1/3
f 201/1/3 185/1/3 200/1/3
f 202/1/3 187/1/3 186/1/3
f 203/1/3 187/1/3 202/1/3
f 204/2/3 190/2/3 189/2/3
f 204/1/3 189/1/3 188/1/3
f 205/2/3 190/2/3 204/2/3
f 206/2/3 195/2/3 194/2/3
f 206/1/3 194/1/3 193/1/3
f 207/1/3 197/1/3 196/1/3
f 207/2/3 195/2/3 206/2/3
f 207/1/3 196/1/3 195/1/3
f 208/1/3 197/1/3 207/1/3
f 209/1/3 205/1/3 204/1/3
f 209/1/3 204/1/3 188/1/3
f 210/1/3 205/1/3 209/1/3
f 211/1/3 207/1/3 206/1/3
f 211/1/3 206/1/3 193/1/3
f 212/1/3 207/1/3 211/1/3
f 215/1/3 214/1/3 213/1/3
f 216/1/3 214/1/3 215/1/3
f 219/1/3 215/1/3 213/1/3
f 220/4/3 216/4/3 215/4/3
f 220/1/3 215/1/3 219/1/3
f 221/1/3 217/1/3 216/1/3
f 221/4/3 216/4/3 220/4/3
f 222/1/3 217/1/3 221/1/3
f 223/1/3 217/1/3 222/1/3
f 225/1/3 219/1/3 218/1/3
f 225/1/3 220/1/3 219/1/3
f 225/1/3 221/1/3 220/1/3
f 225/1/3 222/1/3 221/1/3
f 226/1/3 222/1/3 225/1/3
f 227/1/3 222/1/3 226/1/3
f 228/1/3 222/1/3 227/1/3
f 229/3/3 223/3/3 222/3/3
f 229/1/3 222/1/3 228/1/3
f 230/3/3 223/3/3 229/3/3
f 231/1/3 225/1/3 224/1/3
f 232/1/3 225/1/3 231/1/3
f 233/2/3 228/2/3 227/2/3
f 233/1/3 227/1/3 226/1/3
f 234/2/3 228/2/3 233/2/3
f 235/1/3 233/1/3 226/1/3
f 235/1/3 234/1/3 233/1/3
f 236/1/3 234/1/3 235/1/3
f 237/1/4 238/1/4 239/1/4
f 239/1/4 238/1/4 240/1/4
f 237/1/4 239/1/4 248/1/4
f 239/2/4 240/2/4 249/2/4
f 248/1/4 239/1/4 249/1/4
f 240/1/4 241/1/4 250/1/4
f 249/2/4 240/2/4 250/2/4
f 250/1/4 241/1/4 251/1/4
f 251/1/4 241/1/4 252/1/4
f 242/1/4 243/1/4 253/1/4
f 253/1/4 243/1/4 254/1/4
f 244/1/4 245/1/4 256/1/4
f 256/1/4 245/1/4 257/1/4
f 246/1/4 247/1/4 258/1/4
f 258/1/4 247/1/4 259/1/4
f 259/1/4 247/1/4 260/1/4
f 249/1/4 250/1/4 262/1/4
f 250/1/4 251/1/4 262/1/4
f 262/1/4 251/1/4 263/1/4
f 251/3/4 252/3/4 264/3/4
f 263/1/4 251/1/4 264/1/4
f 264/3/4 252/3/4 265/3/4
f 242/1/4 253/1/4 267/1/4
f 253/4/4 254/4/4 268/4/4
f 267/1/4 253/1/4 268/1/4
f 254/1/4 255/1/4 269/1/4
f 268/4/4 254/4/4 269/4/4
f 269/1/4 255/1/4 270/1/4
f 270/1/4 255/1/4 271/1/4
f 258/1/4 259/1/4 272/1/4
f 257/1/4 258/1/4 272/1/4
f 272/1/4 259/1/4 273/1/4
f 259/3/4 260/3/4 274/3/4
f 273/1/4 259/1/4 274/1/4
f 274/3/4 260/3/4 275/3/4
f 262/1/4 263/1/4 278/1/4
f 261/1/4 262/1/4 278/1/4
f 278/1/4 263/1/4 279/1/4
f 263/4/4 264/4/4 280/4/4
f 279/1/4 263/1/4 280/1/4
f 280/4/4 264/4/4 281/4/4
f 267/1/4 268/1/4 283/1/4
f 269/1/4 270/1/4 283/1/4
f 266/1/4 267/1/4 283/1/4
f 268/1/4 269/1/4 283/1/4
f 283/1/4 270/1/4 284/1/4
f 284/1/4 270/1/4 285/1/4
f 285/1/4 270/1/4 286/1/4
f 270/3/4 271/3/4 287/3/4
f 286/1/4 270/1/4 287/1/4
f 287/3/4 271/3/4 288/3/4
f 274/1/4 275/1/4 290/1/4
f 273/1/4 274/1/4 290/1/4
f 290/1/4 275/1/4 291/1/4
f 275/4/4 276/4/4 292/4/4
f 291/1/4 275/1/4 292/1/4
f 292/4/4 276/4/4 293/4/4
f 277/1/4 278/1/4 294/1/4
f 294/1/4 278/1/4 295/1/4
f 280/1/4 281/1/4 296/1/4
f 279/1/4 280/1/4 296/1/4
f 296/1/4 281/1/4 297/1/4
f 282/1/4 283/1/4 298/1/4
f 298/1/4 283/1/4 299/1/4
f 285/2/4 286/2/4 300/2/4
f 284/1/4 285/1/4 300/1/4
f 300/2/4 286/2/4 301/2/4
f 290/2/4 291/2/4 302/2/4
f 289/1/4 290/1/4 302/1/4
f 292/1/4 293/1/4 303/1/4
f 302/2/4 291/2/4 303/2/4
f 291/1/4 292/1/4 303/1/4
f 303/1/4 293/1/4 304/1/4
f 300/1/4 301/1/4 305/1/4
f 284/1/4 300/1/4 305/1/4
f 305/1/4 301/1/4 306/1/4
f 302/1/4 303/1/4 307/1/4
f 289/1/4 302/1/4 307/1/4
f 307/1/4 303/1/4 308/1/4
f 309/1/4 310/1/4 311/1/4
f 311/1/4 310/1/4 312/1/4
f 309/1/4 311/1/4 315/1/4
f 311/4/4 312/4/4 316/4/4
f 315/1/4 311/1/4 316/1/4
f 312/1/4 313/1/4 317/1/4
f 316/4/4 312/4/4 317/4/4
f 317/1/4 313/1/4 318/1/4
f 318/1/4 313/1/4 319/1/4
f 314/1/4 315/1/4 321/1/4
f 315/1/4 316/1/4 321/1/4
f 316/1/4 317/1/4 321/1/4
f 317/1/4 318/1/4 321/1/4
f 321/1/4 318/1/4 322/1/4
f 322/1/4 318/1/4 323/1/4
f 323/1/4 318/1/4 324/1/4
f 318/3/4 319/3/4 325/3/4
f 324/1/4 318/1/4 325/1/4
f 325/3/4 319/3/4 326/3/4
f 320/1/4 321/1/4 327/1/4
f 327/1/4 321/1/4 328/1/4
f 323/2/4 324/2/4 329/2/4
f 322/1/4 323/1/4 329/1/4
f 329/2/4 324/2/4 330/2/4
f 322/1/4 329/1/4 331/1/4
f 329/1/4 330/1/4 331/1/4
f 331/1/4 330/1/4 332/1/4
f 335/1/5 334/1/5 333/1/5
f 336/1/5 334/1/5 335/1/5
f 341/1/5 338/1/5 337/1/5
f 342/1/5 338/1/5 341/1/5
f 343/1/5 340/1/5 339/1/5
f 344/1/5 340/1/5 343/1/5
f 349/1/5 346/1/5 345/1/5
f 350/1/5 346/1/5 349/1/5
f 351/1/5 348/1/5 347/1/5
f 352/1/5 348/1/5 351/1/5
f 355/1/5 354/1/5 353/1/5
f 356/1/5 354/1/5 355/1/5
f 359/1/5 358/1/5 357/1/5
f 360/1/5 358/1/5 359/1/5
f 365/1/5 362/1/5 361/1/5
f 366/1/5 362/1/5 365/1/5
f 367/1/5 364/1/5 363/1/5
f 368/1/5 364/1/5 367/1/5
f 371/1/5 370/1/5 369/1/5
f 372/1/5 370/1/5 371/1/5
f 379/1/5 374/1/5 373/1/5
f 380/1/5 374/1/5 379/1/5
f 381/1/5 376/1/5 375/1/5
f 382/1/5 376/1/5 381/1/5
f 383/1/5 378/1/5 377/1/5
f 384/1/5 378/1/5 383/1/5
f 391/1/5 386/1/5 385/1/5
f 392/1/5 386/1/5 391/1/5
f 393/1/5 388/1/5 387/1/5
f 394/1/5 388/1/5 393/1/5
f 395/1/5 390/1/5 389/1/5
f 396/1/5 390/1/5 395/1/5
f 401/1/5 398/1/5 397/1/5
f 402/1/5 398/1/5 401/1/5
f 403/1/5 400/1/5 399/1/5
f 404/1/5 400/1/5 403/1/5
f 405/1/6 406/1/6 407/1/6
f 407/1/6 406/1/6 408/1/6
f 409/1/6 410/1/6 411/1/6
f 411/1/6 410/1/6 412/1/6
f 413/4/6 414/4/6 416/4/6
f 414/1/6 415/1/6 417/1/6
f 416/4/6 414/4/6 417/4/6
f 417/1/6 415/1/6 418/1/6
f 419/1/6 420/1/6 422/1/6
f 420/3/6 421/3/6 423/3/6
f 422/1/6 420/1/6 423/1/6
f 423/3/6 421/3/6 424/3/6
f 425/1/6 426/1/6 427/1/6
f 427/1/6 426/1/6 428/1/6
f 429/1/6 430/1/6 434/1/6
f 434/1/6 430/1/6 435/1/6
f 431/2/6 432/2/6 436/2/6
f 432/1/6 433/1/6 437/1/6
f 436/2/6 432/2/6 437/2/6
f 437/1/6 433/1/6 438/1/6
f 439/1/6 440/1/6 442/1/6
f 440/3/6 441/3/6 443/3/6
f 442/1/6 440/1/6 443/1/6
f 443/3/6 441/3/6 444/3/6
f 445/1/6 446/1/6 447/1/6
f 447/1/6 446/1/6 448/1/6
f 449/1/6 450/1/6 451/1/6
f 451/1/6 450/1/6 452/1/6
f 453/1/6 454/1/6 455/1/6
f 455/1/6 454/1/6 456/1/6
f 457/1/6 458/1/6 460/1/6
f 458/3/6 459/3/6 461/3/6
f 460/1/6 458/1/6 461/1/6
f 461/3/6 459/3/6 462/3/6
f 463/4/6 464/4/6 471/4/6
f 464/1/6 465/1/6 472/1/6
f 471/4/6 464/4/6 472/4/6
f 472/1/6 465/1/6 473/1/6
f 466/1/6 467/1/6 474/1/6
f 474/1/6 467/1/6 475/1/6
f 468/2/6 469/2/6 476/2/6
f 469/1/6 470/1/6 477/1/6
f 476/2/6 469/2/6 477/2/6
f 477/1/6 470/1/6 478/1/6
f 479/1/6 480/1/6 482/1/6
f 480/3/6 481/3/6 483/3/6
f 482/1/6 480/1/6 483/1/6
f 483/3/6 481/3/6 484/3/6
