# MagicaVoxel @ Ephtracy

# group
o 

# material
mtllib clovers-1.mtl
usemtl palette

# normals
vn -1 0 0
vn 1 0 0
vn 0 0 1
vn 0 0 -1
vn 0 -1 0
vn 0 1 0

# texcoords
vt 0.00585938 0.5
vt 0.00976563 0.5
vt 0.0136719 0.5
vt 0.0175781 0.5

# verts
v 1.7 3 0
v 1.7 3 -0.1
v 1.7 3.2 0
v 1.7 3.2 -0.1
v 1.8 2.7 0
v 1.8 2.7 -0.1
v 1.8 3 0
v 1.8 3 -0.1
v 1.9 3.2 0
v 1.9 3.2 -0.1
v 1.9 3.3 0
v 1.9 3.3 -0.1
v 2.2 3.7 0
v 2.2 3.7 -0.1
v 2.2 3.9 0
v 2.2 3.9 -0.1
v 2.3 3.5 0
v 2.3 3.5 -0.1
v 2.3 3.6 0
v 2.3 3.6 -0.1
v 2.4 3.6 0
v 2.4 3.6 -0.1
v 2.4 3.7 0
v 2.4 3.7 -0.1
v 2.4 3.9 0
v 2.4 3.9 -0.1
v 2.4 4 0
v 2.4 4 -0.1
v 2.4 4.1 0
v 2.4 4.1 -0.1
v 2.6 2.6 0
v 2.6 2.6 -0.1
v 2.6 2.8 0
v 2.6 2.8 -0.1
v 2.7 2.8 0
v 2.7 2.8 -0.1
v 2.7 3 0
v 2.7 3 -0.1
v 2.9 2.6 0
v 2.9 2.6 -0.1
v 2.9 2.7 0
v 2.9 2.7 -0.1
v 3 2.4 0
v 3 2.4 -0.1
v 3 2.6 0
v 3 2.6 -0.1
v 1.9 2.7 0
v 1.9 2.7 -0.1
v 1.9 2.9 0
v 1.9 2.9 -0.1
v 2.1 3.1 0
v 2.1 3.1 -0.1
v 2.1 3.3 0
v 2.1 3.3 -0.1
v 2.2 2.9 0
v 2.2 2.9 -0.1
v 2.2 3.1 0
v 2.2 3.1 -0.1
v 2.4 3.5 0
v 2.4 3.5 -0.1
v 2.4 3.6 0
v 2.4 3.6 -0.1
v 2.5 3.6 0
v 2.5 3.6 -0.1
v 2.5 3.7 0
v 2.5 3.7 -0.1
v 2.6 3.9 0
v 2.6 3.9 -0.1
v 2.6 4.1 0
v 2.6 4.1 -0.1
v 2.7 3.7 0
v 2.7 3.7 -0.1
v 2.7 3.9 0
v 2.7 3.9 -0.1
v 2.8 2.6 0
v 2.8 2.6 -0.1
v 2.8 2.7 0
v 2.8 2.7 -0.1
v 2.9 2.9 0
v 2.9 2.9 -0.1
v 2.9 3 0
v 2.9 3 -0.1
v 3 2.6 0
v 3 2.6 -0.1
v 3 2.7 0
v 3 2.7 -0.1
v 3.1 2.4 0
v 3.1 2.4 -0.1
v 3.1 2.6 0
v 3.1 2.6 -0.1
v 3.1 2.7 0
v 3.1 2.7 -0.1
v 3.1 2.9 0
v 3.1 2.9 -0.1
v 1.7 3 0
v 1.7 3.2 0
v 1.8 2.7 0
v 1.8 3 0
v 1.8 3.1 0
v 1.8 3.2 0
v 1.9 2.7 0
v 1.9 2.9 0
v 1.9 3.1 0
v 1.9 3.2 0
v 1.9 3.3 0
v 2 3 0
v 2 3.1 0
v 2 3.2 0
v 2 3.3 0
v 2.1 3 0
v 2.1 3.1 0
v 2.1 3.3 0
v 2.2 2.9 0
v 2.2 3.1 0
v 2.2 3.7 0
v 2.2 3.9 0
v 2.3 3.5 0
v 2.3 3.6 0
v 2.3 3.8 0
v 2.3 3.9 0
v 2.4 3.5 0
v 2.4 3.6 0
v 2.4 3.7 0
v 2.4 3.8 0
v 2.4 3.9 0
v 2.4 4 0
v 2.4 4.1 0
v 2.5 3.6 0
v 2.5 3.7 0
v 2.5 3.8 0
v 2.5 3.9 0
v 2.5 4 0
v 2.5 4.1 0
v 2.6 2.6 0
v 2.6 2.8 0
v 2.6 3.8 0
v 2.6 3.9 0
v 2.6 4.1 0
v 2.7 2.7 0
v 2.7 2.8 0
v 2.7 3 0
v 2.7 3.7 0
v 2.7 3.9 0
v 2.8 2.6 0
v 2.8 2.7 0
v 2.8 2.8 0
v 2.8 2.9 0
v 2.8 3 0
v 2.9 2.6 0
v 2.9 2.7 0
v 2.9 2.8 0
v 2.9 2.9 0
v 2.9 3 0
v 3 2.4 0
v 3 2.6 0
v 3 2.7 0
v 3 2.8 0
v 3 2.9 0
v 3.1 2.4 0
v 3.1 2.6 0
v 3.1 2.7 0
v 3.1 2.9 0
v 1.7 3 -0.1
v 1.7 3.2 -0.1
v 1.8 2.7 -0.1
v 1.8 3 -0.1
v 1.8 3.1 -0.1
v 1.8 3.2 -0.1
v 1.9 2.7 -0.1
v 1.9 2.9 -0.1
v 1.9 3.1 -0.1
v 1.9 3.2 -0.1
v 1.9 3.3 -0.1
v 2 3 -0.1
v 2 3.1 -0.1
v 2 3.2 -0.1
v 2 3.3 -0.1
v 2.1 3 -0.1
v 2.1 3.1 -0.1
v 2.1 3.3 -0.1
v 2.2 2.9 -0.1
v 2.2 3.1 -0.1
v 2.2 3.7 -0.1
v 2.2 3.9 -0.1
v 2.3 3.5 -0.1
v 2.3 3.6 -0.1
v 2.3 3.8 -0.1
v 2.3 3.9 -0.1
v 2.4 3.5 -0.1
v 2.4 3.6 -0.1
v 2.4 3.7 -0.1
v 2.4 3.8 -0.1
v 2.4 3.9 -0.1
v 2.4 4 -0.1
v 2.4 4.1 -0.1
v 2.5 3.6 -0.1
v 2.5 3.7 -0.1
v 2.5 3.8 -0.1
v 2.5 3.9 -0.1
v 2.5 4 -0.1
v 2.5 4.1 -0.1
v 2.6 2.6 -0.1
v 2.6 2.8 -0.1
v 2.6 3.8 -0.1
v 2.6 3.9 -0.1
v 2.6 4.1 -0.1
v 2.7 2.7 -0.1
v 2.7 2.8 -0.1
v 2.7 3 -0.1
v 2.7 3.7 -0.1
v 2.7 3.9 -0.1
v 2.8 2.6 -0.1
v 2.8 2.7 -0.1
v 2.8 2.8 -0.1
v 2.8 2.9 -0.1
v 2.8 3 -0.1
v 2.9 2.6 -0.1
v 2.9 2.7 -0.1
v 2.9 2.8 -0.1
v 2.9 2.9 -0.1
v 2.9 3 -0.1
v 3 2.4 -0.1
v 3 2.6 -0.1
v 3 2.7 -0.1
v 3 2.8 -0.1
v 3 2.9 -0.1
v 3.1 2.4 -0.1
v 3.1 2.6 -0.1
v 3.1 2.7 -0.1
v 3.1 2.9 -0.1
v 3 2.4 0
v 3.1 2.4 0
v 3 2.4 -0.1
v 3.1 2.4 -0.1
v 2.6 2.6 0
v 2.8 2.6 0
v 2.9 2.6 0
v 3 2.6 0
v 2.6 2.6 -0.1
v 2.8 2.6 -0.1
v 2.9 2.6 -0.1
v 3 2.6 -0.1
v 1.8 2.7 0
v 1.9 2.7 0
v 2.8 2.7 0
v 2.9 2.7 0
v 3 2.7 0
v 3.1 2.7 0
v 1.8 2.7 -0.1
v 1.9 2.7 -0.1
v 2.8 2.7 -0.1
v 2.9 2.7 -0.1
v 3 2.7 -0.1
v 3.1 2.7 -0.1
v 1.9 2.9 0
v 2.2 2.9 0
v 1.9 2.9 -0.1
v 2.2 2.9 -0.1
v 1.7 3 0
v 1.8 3 0
v 1.7 3 -0.1
v 1.8 3 -0.1
v 2.3 3.5 0
v 2.4 3.5 0
v 2.3 3.5 -0.1
v 2.4 3.5 -0.1
v 2.4 3.6 0
v 2.5 3.6 0
v 2.4 3.6 -0.1
v 2.5 3.6 -0.1
v 2.2 3.7 0
v 2.4 3.7 0
v 2.5 3.7 0
v 2.7 3.7 0
v 2.2 3.7 -0.1
v 2.4 3.7 -0.1
v 2.5 3.7 -0.1
v 2.7 3.7 -0.1
v 3 2.6 0
v 3.1 2.6 0
v 3 2.6 -0.1
v 3.1 2.6 -0.1
v 2.6 2.8 0
v 2.7 2.8 0
v 2.6 2.8 -0.1
v 2.7 2.8 -0.1
v 2.9 2.9 0
v 3 2.9 0
v 3.1 2.9 0
v 2.9 2.9 -0.1
v 3 2.9 -0.1
v 3.1 2.9 -0.1
v 2.7 3 0
v 2.8 3 0
v 2.9 3 0
v 2.7 3 -0.1
v 2.8 3 -0.1
v 2.9 3 -0.1
v 2.1 3.1 0
v 2.2 3.1 0
v 2.1 3.1 -0.1
v 2.2 3.1 -0.1
v 1.7 3.2 0
v 1.8 3.2 0
v 1.9 3.2 0
v 1.7 3.2 -0.1
v 1.8 3.2 -0.1
v 1.9 3.2 -0.1
v 1.9 3.3 0
v 2 3.3 0
v 2.1 3.3 0
v 1.9 3.3 -0.1
v 2 3.3 -0.1
v 2.1 3.3 -0.1
v 2.3 3.6 0
v 2.4 3.6 0
v 2.3 3.6 -0.1
v 2.4 3.6 -0.1
v 2.2 3.9 0
v 2.3 3.9 0
v 2.4 3.9 0
v 2.6 3.9 0
v 2.7 3.9 0
v 2.2 3.9 -0.1
v 2.3 3.9 -0.1
v 2.4 3.9 -0.1
v 2.6 3.9 -0.1
v 2.7 3.9 -0.1
v 2.4 4.1 0
v 2.5 4.1 0
v 2.6 4.1 0
v 2.4 4.1 -0.1
v 2.5 4.1 -0.1
v 2.6 4.1 -0.1

# faces
f 3/1/1 2/1/1 1/1/1
f 4/1/1 2/1/1 3/1/1
f 7/1/1 6/1/1 5/1/1
f 8/1/1 6/1/1 7/1/1
f 11/4/1 10/4/1 9/4/1
f 12/4/1 10/4/1 11/4/1
f 15/1/1 14/1/1 13/1/1
f 16/1/1 14/1/1 15/1/1
f 19/1/1 18/1/1 17/1/1
f 20/1/1 18/1/1 19/1/1
f 23/1/1 22/1/1 21/1/1
f 24/1/1 22/1/1 23/1/1
f 27/1/1 26/1/1 25/1/1
f 28/1/1 26/1/1 27/1/1
f 29/3/1 28/3/1 27/3/1
f 30/3/1 28/3/1 29/3/1
f 33/1/1 32/1/1 31/1/1
f 34/1/1 32/1/1 33/1/1
f 37/1/1 36/1/1 35/1/1
f 38/1/1 36/1/1 37/1/1
f 41/1/1 40/1/1 39/1/1
f 42/1/1 40/1/1 41/1/1
f 45/1/1 44/1/1 43/1/1
f 46/1/1 44/1/1 45/1/1
f 47/1/2 48/1/2 49/1/2
f 49/1/2 48/1/2 50/1/2
f 51/1/2 52/1/2 53/1/2
f 53/1/2 52/1/2 54/1/2
f 55/1/2 56/1/2 57/1/2
f 57/1/2 56/1/2 58/1/2
f 59/1/2 60/1/2 61/1/2
f 61/1/2 60/1/2 62/1/2
f 63/1/2 64/1/2 65/1/2
f 65/1/2 64/1/2 66/1/2
f 67/1/2 68/1/2 69/1/2
f 69/1/2 68/1/2 70/1/2
f 71/1/2 72/1/2 73/1/2
f 73/1/2 72/1/2 74/1/2
f 75/1/2 76/1/2 77/1/2
f 77/1/2 76/1/2 78/1/2
f 79/3/2 80/3/2 81/3/2
f 81/3/2 80/3/2 82/3/2
f 83/1/2 84/1/2 85/1/2
f 85/1/2 84/1/2 86/1/2
f 87/1/2 88/1/2 89/1/2
f 89/1/2 88/1/2 90/1/2
f 91/1/2 92/1/2 93/1/2
f 93/1/2 92/1/2 94/1/2
f 98/1/3 96/1/3 95/1/3
f 99/1/3 96/1/3 98/1/3
f 100/1/3 96/1/3 99/1/3
f 101/1/3 98/1/3 97/1/3
f 101/1/3 99/1/3 98/1/3
f 102/1/3 99/1/3 101/1/3
f 103/2/3 100/2/3 99/2/3
f 103/1/3 99/1/3 102/1/3
f 104/2/3 100/2/3 103/2/3
f 106/1/3 104/1/3 103/1/3
f 106/1/3 103/1/3 102/1/3
f 107/1/3 104/1/3 106/1/3
f 108/4/3 105/4/3 104/4/3
f 108/1/3 104/1/3 107/1/3
f 109/4/3 105/4/3 108/4/3
f 110/3/3 107/3/3 106/3/3
f 110/1/3 106/1/3 102/1/3
f 111/1/3 109/1/3 108/1/3
f 111/3/3 107/3/3 110/3/3
f 111/1/3 108/1/3 107/1/3
f 112/1/3 109/1/3 111/1/3
f 113/1/3 110/1/3 102/1/3
f 113/1/3 111/1/3 110/1/3
f 114/1/3 111/1/3 113/1/3
f 119/1/3 116/1/3 115/1/3
f 120/1/3 116/1/3 119/1/3
f 121/1/3 118/1/3 117/1/3
f 122/1/3 118/1/3 121/1/3
f 123/1/3 119/1/3 115/1/3
f 124/2/3 120/2/3 119/2/3
f 124/1/3 119/1/3 123/1/3
f 125/2/3 120/2/3 124/2/3
f 128/1/3 125/1/3 124/1/3
f 128/1/3 126/1/3 125/1/3
f 128/1/3 124/1/3 123/1/3
f 128/1/3 123/1/3 122/1/3
f 129/1/3 126/1/3 128/1/3
f 130/1/3 126/1/3 129/1/3
f 131/1/3 126/1/3 130/1/3
f 132/3/3 127/3/3 126/3/3
f 132/1/3 126/1/3 131/1/3
f 133/3/3 127/3/3 132/3/3
f 136/4/3 131/4/3 130/4/3
f 136/1/3 130/1/3 129/1/3
f 137/1/3 133/1/3 132/1/3
f 137/4/3 131/4/3 136/4/3
f 137/1/3 132/1/3 131/1/3
f 138/1/3 133/1/3 137/1/3
f 139/1/3 135/1/3 134/1/3
f 140/1/3 135/1/3 139/1/3
f 142/1/3 136/1/3 129/1/3
f 142/1/3 137/1/3 136/1/3
f 143/1/3 137/1/3 142/1/3
f 144/1/3 139/1/3 134/1/3
f 145/2/3 140/2/3 139/2/3
f 145/1/3 139/1/3 144/1/3
f 146/1/3 141/1/3 140/1/3
f 146/2/3 140/2/3 145/2/3
f 147/1/3 141/1/3 146/1/3
f 148/1/3 141/1/3 147/1/3
f 150/1/3 146/1/3 145/1/3
f 150/1/3 147/1/3 146/1/3
f 151/1/3 147/1/3 150/1/3
f 152/3/3 148/3/3 147/3/3
f 152/1/3 147/1/3 151/1/3
f 153/3/3 148/3/3 152/3/3
f 155/1/3 151/1/3 150/1/3
f 155/1/3 150/1/3 149/1/3
f 156/1/3 151/1/3 155/1/3
f 157/4/3 152/4/3 151/4/3
f 157/1/3 151/1/3 156/1/3
f 158/4/3 152/4/3 157/4/3
f 159/1/3 155/1/3 154/1/3
f 160/1/3 155/1/3 159/1/3
f 161/1/3 158/1/3 157/1/3
f 161/1/3 157/1/3 156/1/3
f 162/1/3 158/1/3 161/1/3
f 163/1/4 164/1/4 166/1/4
f 166/1/4 164/1/4 167/1/4
f 167/1/4 164/1/4 168/1/4
f 165/1/4 166/1/4 169/1/4
f 166/1/4 167/1/4 169/1/4
f 169/1/4 167/1/4 170/1/4
f 167/2/4 168/2/4 171/2/4
f 170/1/4 167/1/4 171/1/4
f 171/2/4 168/2/4 172/2/4
f 171/1/4 172/1/4 174/1/4
f 170/1/4 171/1/4 174/1/4
f 174/1/4 172/1/4 175/1/4
f 172/4/4 173/4/4 176/4/4
f 175/1/4 172/1/4 176/1/4
f 176/4/4 173/4/4 177/4/4
f 174/3/4 175/3/4 178/3/4
f 170/1/4 174/1/4 178/1/4
f 176/1/4 177/1/4 179/1/4
f 178/3/4 175/3/4 179/3/4
f 175/1/4 176/1/4 179/1/4
f 179/1/4 177/1/4 180/1/4
f 170/1/4 178/1/4 181/1/4
f 178/1/4 179/1/4 181/1/4
f 181/1/4 179/1/4 182/1/4
f 183/1/4 184/1/4 187/1/4
f 187/1/4 184/1/4 188/1/4
f 185/1/4 186/1/4 189/1/4
f 189/1/4 186/1/4 190/1/4
f 183/1/4 187/1/4 191/1/4
f 187/2/4 188/2/4 192/2/4
f 191/1/4 187/1/4 192/1/4
f 192/2/4 188/2/4 193/2/4
f 192/1/4 193/1/4 196/1/4
f 193/1/4 194/1/4 196/1/4
f 191/1/4 192/1/4 196/1/4
f 190/1/4 191/1/4 196/1/4
f 196/1/4 194/1/4 197/1/4
f 197/1/4 194/1/4 198/1/4
f 198/1/4 194/1/4 199/1/4
f 194/3/4 195/3/4 200/3/4
f 199/1/4 194/1/4 200/1/4
f 200/3/4 195/3/4 201/3/4
f 198/4/4 199/4/4 204/4/4
f 197/1/4 198/1/4 204/1/4
f 200/1/4 201/1/4 205/1/4
f 204/4/4 199/4/4 205/4/4
f 199/1/4 200/1/4 205/1/4
f 205/1/4 201/1/4 206/1/4
f 202/1/4 203/1/4 207/1/4
f 207/1/4 203/1/4 208/1/4
f 197/1/4 204/1/4 210/1/4
f 204/1/4 205/1/4 210/1/4
f 210/1/4 205/1/4 211/1/4
f 202/1/4 207/1/4 212/1/4
f 207/2/4 208/2/4 213/2/4
f 212/1/4 207/1/4 213/1/4
f 208/1/4 209/1/4 214/1/4
f 213/2/4 208/2/4 214/2/4
f 214/1/4 209/1/4 215/1/4
f 215/1/4 209/1/4 216/1/4
f 213/1/4 214/1/4 218/1/4
f 214/1/4 215/1/4 218/1/4
f 218/1/4 215/1/4 219/1/4
f 215/3/4 216/3/4 220/3/4
f 219/1/4 215/1/4 220/1/4
f 220/3/4 216/3/4 221/3/4
f 218/1/4 219/1/4 223/1/4
f 217/1/4 218/1/4 223/1/4
f 223/1/4 219/1/4 224/1/4
f 219/4/4 220/4/4 225/4/4
f 224/1/4 219/1/4 225/1/4
f 225/4/4 220/4/4 226/4/4
f 222/1/4 223/1/4 227/1/4
f 227/1/4 223/1/4 228/1/4
f 225/1/4 226/1/4 229/1/4
f 224/1/4 225/1/4 229/1/4
f 229/1/4 226/1/4 230/1/4
f 233/1/5 232/1/5 231/1/5
f 234/1/5 232/1/5 233/1/5
f 239/1/5 236/1/5 235/1/5
f 240/1/5 236/1/5 239/1/5
f 241/1/5 238/1/5 237/1/5
f 242/1/5 238/1/5 241/1/5
f 249/1/5 244/1/5 243/1/5
f 250/1/5 244/1/5 249/1/5
f 251/1/5 246/1/5 245/1/5
f 252/1/5 246/1/5 251/1/5
f 253/1/5 248/1/5 247/1/5
f 254/1/5 248/1/5 253/1/5
f 257/1/5 256/1/5 255/1/5
f 258/1/5 256/1/5 257/1/5
f 261/1/5 260/1/5 259/1/5
f 262/1/5 260/1/5 261/1/5
f 265/1/5 264/1/5 263/1/5
f 266/1/5 264/1/5 265/1/5
f 269/1/5 268/1/5 267/1/5
f 270/1/5 268/1/5 269/1/5
f 275/1/5 272/1/5 271/1/5
f 276/1/5 272/1/5 275/1/5
f 277/1/5 274/1/5 273/1/5
f 278/1/5 274/1/5 277/1/5
f 279/1/6 280/1/6 281/1/6
f 281/1/6 280/1/6 282/1/6
f 283/1/6 284/1/6 285/1/6
f 285/1/6 284/1/6 286/1/6
f 287/4/6 288/4/6 290/4/6
f 288/1/6 289/1/6 291/1/6
f 290/4/6 288/4/6 291/4/6
f 291/1/6 289/1/6 292/1/6
f 293/1/6 294/1/6 296/1/6
f 294/3/6 295/3/6 297/3/6
f 296/1/6 294/1/6 297/1/6
f 297/3/6 295/3/6 298/3/6
f 299/1/6 300/1/6 301/1/6
f 301/1/6 300/1/6 302/1/6
f 303/1/6 304/1/6 306/1/6
f 304/2/6 305/2/6 307/2/6
f 306/1/6 304/1/6 307/1/6
f 307/2/6 305/2/6 308/2/6
f 309/4/6 310/4/6 312/4/6
f 310/1/6 311/1/6 313/1/6
f 312/4/6 310/4/6 313/4/6
f 313/1/6 311/1/6 314/1/6
f 315/1/6 316/1/6 317/1/6
f 317/1/6 316/1/6 318/1/6
f 319/1/6 320/1/6 324/1/6
f 320/2/6 321/2/6 325/2/6
f 324/1/6 320/1/6 325/1/6
f 325/2/6 321/2/6 326/2/6
f 322/1/6 323/1/6 327/1/6
f 327/1/6 323/1/6 328/1/6
f 329/3/6 330/3/6 332/3/6
f 330/1/6 331/1/6 333/1/6
f 332/3/6 330/3/6 333/3/6
f 333/1/6 331/1/6 334/1/6
