# MagicaVoxel @ Ephtracy

# group
o 

# material
mtllib clovers-2.mtl
usemtl palette

# normals
vn -1 0 0
vn 1 0 0
vn 0 0 1
vn 0 0 -1
vn 0 -1 0
vn 0 1 0

# texcoords
vt 0.00585938 0.5
vt 0.00976563 0.5
vt 0.0136719 0.5
vt 0.0175781 0.5

# verts
v 1.7 4.5 0
v 1.7 4.5 -0.1
v 1.7 4.7 0
v 1.7 4.7 -0.1
v 1.7 5.3 0
v 1.7 5.3 -0.1
v 1.7 5.5 0
v 1.7 5.5 -0.1
v 1.8 4.7 0
v 1.8 4.7 -0.1
v 1.8 4.8 0
v 1.8 4.8 -0.1
v 1.8 4.9 0
v 1.8 4.9 -0.1
v 1.8 5.5 0
v 1.8 5.5 -0.1
v 1.8 5.7 0
v 1.8 5.7 -0.1
v 1.9 4.3 0
v 1.9 4.3 -0.1
v 1.9 4.5 0
v 1.9 4.5 -0.1
v 2 5.1 0
v 2 5.1 -0.1
v 2 5.3 0
v 2 5.3 -0.1
v 2.6 4.5 0
v 2.6 4.5 -0.1
v 2.6 4.7 0
v 2.6 4.7 -0.1
v 2.6 5.1 0
v 2.6 5.1 -0.1
v 2.6 5.3 0
v 2.6 5.3 -0.1
v 2.6 5.4 0
v 2.6 5.4 -0.1
v 2.6 5.6 0
v 2.6 5.6 -0.1
v 2.7 4.3 0
v 2.7 4.3 -0.1
v 2.7 4.4 0
v 2.7 4.4 -0.1
v 2.7 5.3 0
v 2.7 5.3 -0.1
v 2.7 5.4 0
v 2.7 5.4 -0.1
v 2.8 4.4 0
v 2.8 4.4 -0.1
v 2.8 4.5 0
v 2.8 4.5 -0.1
v 2.8 4.7 0
v 2.8 4.7 -0.1
v 2.8 4.8 0
v 2.8 4.8 -0.1
v 2.8 4.9 0
v 2.8 4.9 -0.1
v 2.8 5.6 0
v 2.8 5.6 -0.1
v 2.8 5.7 0
v 2.8 5.7 -0.1
v 2.9 5.3 0
v 2.9 5.3 -0.1
v 2.9 5.4 0
v 2.9 5.4 -0.1
v 2 4.3 0
v 2 4.3 -0.1
v 2 4.6 0
v 2 4.6 -0.1
v 2 4.8 0
v 2 4.8 -0.1
v 2 4.9 0
v 2 4.9 -0.1
v 2 5.6 0
v 2 5.6 -0.1
v 2 5.7 0
v 2 5.7 -0.1
v 2.1 5.1 0
v 2.1 5.1 -0.1
v 2.1 5.4 0
v 2.1 5.4 -0.1
v 2.2 4.6 0
v 2.2 4.6 -0.1
v 2.2 4.8 0
v 2.2 4.8 -0.1
v 2.2 5.4 0
v 2.2 5.4 -0.1
v 2.2 5.6 0
v 2.2 5.6 -0.1
v 2.7 5.1 0
v 2.7 5.1 -0.1
v 2.7 5.3 0
v 2.7 5.3 -0.1
v 2.8 4.3 0
v 2.8 4.3 -0.1
v 2.8 4.4 0
v 2.8 4.4 -0.1
v 2.8 5.3 0
v 2.8 5.3 -0.1
v 2.8 5.4 0
v 2.8 5.4 -0.1
v 2.9 4.4 0
v 2.9 4.4 -0.1
v 2.9 4.5 0
v 2.9 4.5 -0.1
v 3 4.7 0
v 3 4.7 -0.1
v 3 4.9 0
v 3 4.9 -0.1
v 3 5.5 0
v 3 5.5 -0.1
v 3 5.7 0
v 3 5.7 -0.1
v 3.1 4.5 0
v 3.1 4.5 -0.1
v 3.1 4.7 0
v 3.1 4.7 -0.1
v 3.1 5.3 0
v 3.1 5.3 -0.1
v 3.1 5.5 0
v 3.1 5.5 -0.1
v 1.7 4.5 0
v 1.7 4.7 0
v 1.7 5.3 0
v 1.7 5.5 0
v 1.8 4.6 0
v 1.8 4.7 0
v 1.8 4.8 0
v 1.8 4.9 0
v 1.8 5.4 0
v 1.8 5.5 0
v 1.8 5.7 0
v 1.9 4.3 0
v 1.9 4.5 0
v 1.9 4.6 0
v 1.9 4.7 0
v 1.9 4.8 0
v 1.9 4.9 0
v 1.9 5.4 0
v 1.9 5.5 0
v 1.9 5.6 0
v 1.9 5.7 0
v 2 4.3 0
v 2 4.6 0
v 2 4.7 0
v 2 4.8 0
v 2 4.9 0
v 2 5.1 0
v 2 5.3 0
v 2 5.5 0
v 2 5.6 0
v 2 5.7 0
v 2.1 4.7 0
v 2.1 4.8 0
v 2.1 5.1 0
v 2.1 5.4 0
v 2.1 5.5 0
v 2.1 5.6 0
v 2.2 4.6 0
v 2.2 4.8 0
v 2.2 5.4 0
v 2.2 5.6 0
v 2.6 4.5 0
v 2.6 4.7 0
v 2.6 5.1 0
v 2.6 5.3 0
v 2.6 5.4 0
v 2.6 5.6 0
v 2.7 4.3 0
v 2.7 4.4 0
v 2.7 4.6 0
v 2.7 4.7 0
v 2.7 5.1 0
v 2.7 5.3 0
v 2.7 5.4 0
v 2.7 5.5 0
v 2.7 5.6 0
v 2.8 4.3 0
v 2.8 4.4 0
v 2.8 4.5 0
v 2.8 4.6 0
v 2.8 4.7 0
v 2.8 4.8 0
v 2.8 4.9 0
v 2.8 5.3 0
v 2.8 5.4 0
v 2.8 5.5 0
v 2.8 5.6 0
v 2.8 5.7 0
v 2.9 4.4 0
v 2.9 4.5 0
v 2.9 4.6 0
v 2.9 4.7 0
v 2.9 4.8 0
v 2.9 4.9 0
v 2.9 5.3 0
v 2.9 5.4 0
v 2.9 5.5 0
v 2.9 5.6 0
v 2.9 5.7 0
v 3 4.6 0
v 3 4.7 0
v 3 4.9 0
v 3 5.4 0
v 3 5.5 0
v 3 5.7 0
v 3.1 4.5 0
v 3.1 4.7 0
v 3.1 5.3 0
v 3.1 5.5 0
v 1.7 4.5 -0.1
v 1.7 4.7 -0.1
v 1.7 5.3 -0.1
v 1.7 5.5 -0.1
v 1.8 4.6 -0.1
v 1.8 4.7 -0.1
v 1.8 4.8 -0.1
v 1.8 4.9 -0.1
v 1.8 5.4 -0.1
v 1.8 5.5 -0.1
v 1.8 5.7 -0.1
v 1.9 4.3 -0.1
v 1.9 4.5 -0.1
v 1.9 4.6 -0.1
v 1.9 4.7 -0.1
v 1.9 4.8 -0.1
v 1.9 4.9 -0.1
v 1.9 5.4 -0.1
v 1.9 5.5 -0.1
v 1.9 5.6 -0.1
v 1.9 5.7 -0.1
v 2 4.3 -0.1
v 2 4.6 -0.1
v 2 4.7 -0.1
v 2 4.8 -0.1
v 2 4.9 -0.1
v 2 5.1 -0.1
v 2 5.3 -0.1
v 2 5.5 -0.1
v 2 5.6 -0.1
v 2 5.7 -0.1
v 2.1 4.7 -0.1
v 2.1 4.8 -0.1
v 2.1 5.1 -0.1
v 2.1 5.4 -0.1
v 2.1 5.5 -0.1
v 2.1 5.6 -0.1
v 2.2 4.6 -0.1
v 2.2 4.8 -0.1
v 2.2 5.4 -0.1
v 2.2 5.6 -0.1
v 2.6 4.5 -0.1
v 2.6 4.7 -0.1
v 2.6 5.1 -0.1
v 2.6 5.3 -0.1
v 2.6 5.4 -0.1
v 2.6 5.6 -0.1
v 2.7 4.3 -0.1
v 2.7 4.4 -0.1
v 2.7 4.6 -0.1
v 2.7 4.7 -0.1
v 2.7 5.1 -0.1
v 2.7 5.3 -0.1
v 2.7 5.4 -0.1
v 2.7 5.5 -0.1
v 2.7 5.6 -0.1
v 2.8 4.3 -0.1
v 2.8 4.4 -0.1
v 2.8 4.5 -0.1
v 2.8 4.6 -0.1
v 2.8 4.7 -0.1
v 2.8 4.8 -0.1
v 2.8 4.9 -0.1
v 2.8 5.3 -0.1
v 2.8 5.4 -0.1
v 2.8 5.5 -0.1
v 2.8 5.6 -0.1
v 2.8 5.7 -0.1
v 2.9 4.4 -0.1
v 2.9 4.5 -0.1
v 2.9 4.6 -0.1
v 2.9 4.7 -0.1
v 2.9 4.8 -0.1
v 2.9 4.9 -0.1
v 2.9 5.3 -0.1
v 2.9 5.4 -0.1
v 2.9 5.5 -0.1
v 2.9 5.6 -0.1
v 2.9 5.7 -0.1
v 3 4.6 -0.1
v 3 4.7 -0.1
v 3 4.9 -0.1
v 3 5.4 -0.1
v 3 5.5 -0.1
v 3 5.7 -0.1
v 3.1 4.5 -0.1
v 3.1 4.7 -0.1
v 3.1 5.3 -0.1
v 3.1 5.5 -0.1
v 1.9 4.3 0
v 2 4.3 0
v 2.7 4.3 0
v 2.8 4.3 0
v 1.9 4.3 -0.1
v 2 4.3 -0.1
v 2.7 4.3 -0.1
v 2.8 4.3 -0.1
v 2.8 4.4 0
v 2.9 4.4 0
v 2.8 4.4 -0.1
v 2.9 4.4 -0.1
v 1.7 4.5 0
v 1.9 4.5 0
v 2.6 4.5 0
v 2.8 4.5 0
v 2.9 4.5 0
v 3.1 4.5 0
v 1.7 4.5 -0.1
v 1.9 4.5 -0.1
v 2.6 4.5 -0.1
v 2.8 4.5 -0.1
v 2.9 4.5 -0.1
v 3.1 4.5 -0.1
v 2 4.6 0
v 2.2 4.6 0
v 2 4.6 -0.1
v 2.2 4.6 -0.1
v 2 5.1 0
v 2.1 5.1 0
v 2.6 5.1 0
v 2.7 5.1 0
v 2 5.1 -0.1
v 2.1 5.1 -0.1
v 2.6 5.1 -0.1
v 2.7 5.1 -0.1
v 1.7 5.3 0
v 2 5.3 0
v 2.7 5.3 0
v 2.8 5.3 0
v 2.9 5.3 0
v 3.1 5.3 0
v 1.7 5.3 -0.1
v 2 5.3 -0.1
v 2.7 5.3 -0.1
v 2.8 5.3 -0.1
v 2.9 5.3 -0.1
v 3.1 5.3 -0.1
v 2.1 5.4 0
v 2.2 5.4 0
v 2.6 5.4 0
v 2.7 5.4 0
v 2.8 5.4 0
v 2.9 5.4 0
v 2.1 5.4 -0.1
v 2.2 5.4 -0.1
v 2.6 5.4 -0.1
v 2.7 5.4 -0.1
v 2.8 5.4 -0.1
v 2.9 5.4 -0.1
v 2.7 4.4 0
v 2.8 4.4 0
v 2.7 4.4 -0.1
v 2.8 4.4 -0.1
v 1.7 4.7 0
v 1.8 4.7 0
v 2.6 4.7 0
v 2.7 4.7 0
v 2.8 4.7 0
v 3 4.7 0
v 3.1 4.7 0
v 1.7 4.7 -0.1
v 1.8 4.7 -0.1
v 2.6 4.7 -0.1
v 2.7 4.7 -0.1
v 2.8 4.7 -0.1
v 3 4.7 -0.1
v 3.1 4.7 -0.1
v 2 4.8 0
v 2.1 4.8 0
v 2.2 4.8 0
v 2 4.8 -0.1
v 2.1 4.8 -0.1
v 2.2 4.8 -0.1
v 1.8 4.9 0
v 1.9 4.9 0
v 2 4.9 0
v 2.8 4.9 0
v 2.9 4.9 0
v 3 4.9 0
v 1.8 4.9 -0.1
v 1.9 4.9 -0.1
v 2 4.9 -0.1
v 2.8 4.9 -0.1
v 2.9 4.9 -0.1
v 3 4.9 -0.1
v 2.6 5.3 0
v 2.7 5.3 0
v 2.6 5.3 -0.1
v 2.7 5.3 -0.1
v 1.7 5.5 0
v 1.8 5.5 0
v 3 5.5 0
v 3.1 5.5 0
v 1.7 5.5 -0.1
v 1.8 5.5 -0.1
v 3 5.5 -0.1
v 3.1 5.5 -0.1
v 2 5.6 0
v 2.1 5.6 0
v 2.2 5.6 0
v 2.6 5.6 0
v 2.7 5.6 0
v 2.8 5.6 0
v 2 5.6 -0.1
v 2.1 5.6 -0.1
v 2.2 5.6 -0.1
v 2.6 5.6 -0.1
v 2.7 5.6 -0.1
v 2.8 5.6 -0.1
v 1.8 5.7 0
v 1.9 5.7 0
v 2 5.7 0
v 2.8 5.7 0
v 2.9 5.7 0
v 3 5.7 0
v 1.8 5.7 -0.1
v 1.9 5.7 -0.1
v 2 5.7 -0.1
v 2.8 5.7 -0.1
v 2.9 5.7 -0.1
v 3 5.7 -0.1

# faces
f 3/1/1 2/1/1 1/1/1
f 4/1/1 2/1/1 3/1/1
f 7/1/1 6/1/1 5/1/1
f 8/1/1 6/1/1 7/1/1
f 11/1/1 10/1/1 9/1/1
f 12/1/1 10/1/1 11/1/1
f 13/3/1 12/3/1 11/3/1
f 14/3/1 12/3/1 13/3/1
f 17/1/1 16/1/1 15/1/1
f 18/1/1 16/1/1 17/1/1
f 21/1/1 20/1/1 19/1/1
f 22/1/1 20/1/1 21/1/1
f 25/1/1 24/1/1 23/1/1
f 26/1/1 24/1/1 25/1/1
f 29/1/1 28/1/1 27/1/1
f 30/1/1 28/1/1 29/1/1
f 33/1/1 32/1/1 31/1/1
f 34/1/1 32/1/1 33/1/1
f 37/1/1 36/1/1 35/1/1
f 38/1/1 36/1/1 37/1/1
f 41/1/1 40/1/1 39/1/1
f 42/1/1 40/1/1 41/1/1
f 45/1/1 44/1/1 43/1/1
f 46/1/1 44/1/1 45/1/1
f 49/1/1 48/1/1 47/1/1
f 50/1/1 48/1/1 49/1/1
f 53/1/1 52/1/1 51/1/1
f 54/1/1 52/1/1 53/1/1
f 55/3/1 54/3/1 53/3/1
f 56/3/1 54/3/1 55/3/1
f 59/3/1 58/3/1 57/3/1
f 60/3/1 58/3/1 59/3/1
f 63/1/1 62/1/1 61/1/1
f 64/1/1 62/1/1 63/1/1
f 65/1/2 66/1/2 67/1/2
f 67/1/2 66/1/2 68/1/2
f 69/1/2 70/1/2 71/1/2
f 71/1/2 70/1/2 72/1/2
f 73/4/2 74/4/2 75/4/2
f 75/4/2 74/4/2 76/4/2
f 77/1/2 78/1/2 79/1/2
f 79/1/2 78/1/2 80/1/2
f 81/1/2 82/1/2 83/1/2
f 83/1/2 82/1/2 84/1/2
f 85/1/2 86/1/2 87/1/2
f 87/1/2 86/1/2 88/1/2
f 89/1/2 90/1/2 91/1/2
f 91/1/2 90/1/2 92/1/2
f 93/1/2 94/1/2 95/1/2
f 95/1/2 94/1/2 96/1/2
f 97/1/2 98/1/2 99/1/2
f 99/1/2 98/1/2 100/1/2
f 101/1/2 102/1/2 103/1/2
f 103/1/2 102/1/2 104/1/2
f 105/1/2 106/1/2 107/1/2
f 107/1/2 106/1/2 108/1/2
f 109/1/2 110/1/2 111/1/2
f 111/1/2 110/1/2 112/1/2
f 113/1/2 114/1/2 115/1/2
f 115/1/2 114/1/2 116/1/2
f 117/1/2 118/1/2 119/1/2
f 119/1/2 118/1/2 120/1/2
f 125/1/3 122/1/3 121/1/3
f 126/1/3 122/1/3 125/1/3
f 129/1/3 124/1/3 123/1/3
f 130/1/3 124/1/3 129/1/3
f 133/1/3 125/1/3 121/1/3
f 134/2/3 126/2/3 125/2/3
f 134/1/3 125/1/3 133/1/3
f 135/1/3 127/1/3 126/1/3
f 135/2/3 126/2/3 134/2/3
f 136/3/3 128/3/3 127/3/3
f 136/1/3 127/1/3 135/1/3
f 137/3/3 128/3/3 136/3/3
f 138/1/3 129/1/3 123/1/3
f 138/3/3 130/3/3 129/3/3
f 139/1/3 131/1/3 130/1/3
f 139/3/3 130/3/3 138/3/3
f 140/1/3 131/1/3 139/1/3
f 141/1/3 131/1/3 140/1/3
f 142/1/3 135/1/3 134/1/3
f 142/1/3 133/1/3 132/1/3
f 142/1/3 134/1/3 133/1/3
f 142/1/3 137/1/3 136/1/3
f 142/1/3 136/1/3 135/1/3
f 143/1/3 137/1/3 142/1/3
f 144/1/3 137/1/3 143/1/3
f 145/1/3 137/1/3 144/1/3
f 146/1/3 137/1/3 145/1/3
f 148/1/3 138/1/3 123/1/3
f 148/1/3 140/1/3 139/1/3
f 148/1/3 139/1/3 138/1/3
f 149/1/3 140/1/3 148/1/3
f 150/4/3 141/4/3 140/4/3
f 150/1/3 140/1/3 149/1/3
f 151/4/3 141/4/3 150/4/3
f 152/4/3 145/4/3 144/4/3
f 152/1/3 144/1/3 143/1/3
f 153/4/3 145/4/3 152/4/3
f 154/1/3 149/1/3 148/1/3
f 154/1/3 148/1/3 147/1/3
f 155/1/3 149/1/3 154/1/3
f 156/2/3 150/2/3 149/2/3
f 156/1/3 149/1/3 155/1/3
f 157/2/3 150/2/3 156/2/3
f 158/1/3 153/1/3 152/1/3
f 158/1/3 152/1/3 143/1/3
f 159/1/3 153/1/3 158/1/3
f 160/1/3 157/1/3 156/1/3
f 160/1/3 156/1/3 155/1/3
f 161/1/3 157/1/3 160/1/3
f 170/1/3 163/1/3 162/1/3
f 171/1/3 163/1/3 170/1/3
f 172/1/3 165/1/3 164/1/3
f 173/1/3 165/1/3 172/1/3
f 174/1/3 167/1/3 166/1/3
f 175/1/3 167/1/3 174/1/3
f 176/1/3 167/1/3 175/1/3
f 177/1/3 169/1/3 168/1/3
f 178/1/3 169/1/3 177/1/3
f 179/1/3 170/1/3 162/1/3
f 180/2/3 171/2/3 170/2/3
f 180/1/3 170/1/3 179/1/3
f 181/2/3 171/2/3 180/2/3
f 184/1/3 174/1/3 173/1/3
f 184/1/3 175/1/3 174/1/3
f 185/1/3 175/1/3 184/1/3
f 186/4/3 176/4/3 175/4/3
f 186/1/3 175/1/3 185/1/3
f 187/4/3 176/4/3 186/4/3
f 189/1/3 179/1/3 178/1/3
f 189/1/3 181/1/3 180/1/3
f 189/1/3 180/1/3 179/1/3
f 189/1/3 182/1/3 181/1/3
f 190/1/3 182/1/3 189/1/3
f 191/1/3 182/1/3 190/1/3
f 192/1/3 182/1/3 191/1/3
f 193/3/3 183/3/3 182/3/3
f 193/1/3 182/1/3 192/1/3
f 194/3/3 183/3/3 193/3/3
f 196/1/3 187/1/3 186/1/3
f 196/1/3 186/1/3 185/1/3
f 197/1/3 187/1/3 196/1/3
f 198/3/3 188/3/3 187/3/3
f 198/1/3 187/1/3 197/1/3
f 199/3/3 188/3/3 198/3/3
f 200/4/3 192/4/3 191/4/3
f 200/1/3 191/1/3 190/1/3
f 201/1/3 194/1/3 193/1/3
f 201/4/3 192/4/3 200/4/3
f 201/1/3 193/1/3 192/1/3
f 202/1/3 194/1/3 201/1/3
f 203/1/3 196/1/3 195/1/3
f 203/2/3 197/2/3 196/2/3
f 204/1/3 199/1/3 198/1/3
f 204/2/3 197/2/3 203/2/3
f 204/1/3 198/1/3 197/1/3
f 205/1/3 199/1/3 204/1/3
f 206/1/3 200/1/3 190/1/3
f 206/1/3 201/1/3 200/1/3
f 207/1/3 201/1/3 206/1/3
f 208/1/3 204/1/3 203/1/3
f 208/1/3 203/1/3 195/1/3
f 209/1/3 204/1/3 208/1/3
f 210/1/4 211/1/4 214/1/4
f 214/1/4 211/1/4 215/1/4
f 212/1/4 213/1/4 218/1/4
f 218/1/4 213/1/4 219/1/4
f 210/1/4 214/1/4 222/1/4
f 214/2/4 215/2/4 223/2/4
f 222/1/4 214/1/4 223/1/4
f 215/1/4 216/1/4 224/1/4
f 223/2/4 215/2/4 224/2/4
f 216/3/4 217/3/4 225/3/4
f 224/1/4 216/1/4 225/1/4
f 225/3/4 217/3/4 226/3/4
f 212/1/4 218/1/4 227/1/4
f 218/3/4 219/3/4 227/3/4
f 219/1/4 220/1/4 228/1/4
f 227/3/4 219/3/4 228/3/4
f 228/1/4 220/1/4 229/1/4
f 229/1/4 220/1/4 230/1/4
f 223/1/4 224/1/4 231/1/4
f 221/1/4 222/1/4 231/1/4
f 222/1/4 223/1/4 231/1/4
f 225/1/4 226/1/4 231/1/4
f 224/1/4 225/1/4 231/1/4
f 231/1/4 226/1/4 232/1/4
f 232/1/4 226/1/4 233/1/4
f 233/1/4 226/1/4 234/1/4
f 234/1/4 226/1/4 235/1/4
f 212/1/4 227/1/4 237/1/4
f 228/1/4 229/1/4 237/1/4
f 227/1/4 228/1/4 237/1/4
f 237/1/4 229/1/4 238/1/4
f 229/4/4 230/4/4 239/4/4
f 238/1/4 229/1/4 239/1/4
f 239/4/4 230/4/4 240/4/4
f 233/4/4 234/4/4 241/4/4
f 232/1/4 233/1/4 241/1/4
f 241/4/4 234/4/4 242/4/4
f 237/1/4 238/1/4 243/1/4
f 236/1/4 237/1/4 243/1/4
f 243/1/4 238/1/4 244/1/4
f 238/2/4 239/2/4 245/2/4
f 244/1/4 238/1/4 245/1/4
f 245/2/4 239/2/4 246/2/4
f 241/1/4 242/1/4 247/1/4
f 232/1/4 241/1/4 247/1/4
f 247/1/4 242/1/4 248/1/4
f 245/1/4 246/1/4 249/1/4
f 244/1/4 245/1/4 249/1/4
f 249/1/4 246/1/4 250/1/4
f 251/1/4 252/1/4 259/1/4
f 259/1/4 252/1/4 260/1/4
f 253/1/4 254/1/4 261/1/4
f 261/1/4 254/1/4 262/1/4
f 255/1/4 256/1/4 263/1/4
f 263/1/4 256/1/4 264/1/4
f 264/1/4 256/1/4 265/1/4
f 257/1/4 258/1/4 266/1/4
f 266/1/4 258/1/4 267/1/4
f 251/1/4 259/1/4 268/1/4
f 259/2/4 260/2/4 269/2/4
f 268/1/4 259/1/4 269/1/4
f 269/2/4 260/2/4 270/2/4
f 262/1/4 263/1/4 273/1/4
f 263/1/4 264/1/4 273/1/4
f 273/1/4 264/1/4 274/1/4
f 264/4/4 265/4/4 275/4/4
f 274/1/4 264/1/4 275/1/4
f 275/4/4 265/4/4 276/4/4
f 267/1/4 268/1/4 278/1/4
f 269/1/4 270/1/4 278/1/4
f 268/1/4 269/1/4 278/1/4
f 270/1/4 271/1/4 278/1/4
f 278/1/4 271/1/4 279/1/4
f 279/1/4 271/1/4 280/1/4
f 280/1/4 271/1/4 281/1/4
f 271/3/4 272/3/4 282/3/4
f 281/1/4 271/1/4 282/1/4
f 282/3/4 272/3/4 283/3/4
f 275/1/4 276/1/4 285/1/4
f 274/1/4 275/1/4 285/1/4
f 285/1/4 276/1/4 286/1/4
f 276/3/4 277/3/4 287/3/4
f 286/1/4 276/1/4 287/1/4
f 287/3/4 277/3/4 288/3/4
f 280/4/4 281/4/4 289/4/4
f 279/1/4 280/1/4 289/1/4
f 282/1/4 283/1/4 290/1/4
f 289/4/4 281/4/4 290/4/4
f 281/1/4 282/1/4 290/1/4
f 290/1/4 283/1/4 291/1/4
f 284/1/4 285/1/4 292/1/4
f 285/2/4 286/2/4 292/2/4
f 287/1/4 288/1/4 293/1/4
f 292/2/4 286/2/4 293/2/4
f 286/1/4 287/1/4 293/1/4
f 293/1/4 288/1/4 294/1/4
f 279/1/4 289/1/4 295/1/4
f 289/1/4 290/1/4 295/1/4
f 295/1/4 290/1/4 296/1/4
f 292/1/4 293/1/4 297/1/4
f 284/1/4 292/1/4 297/1/4
f 297/1/4 293/1/4 298/1/4
f 303/1/5 300/1/5 299/1/5
f 304/1/5 300/1/5 303/1/5
f 305/1/5 302/1/5 301/1/5
f 306/1/5 302/1/5 305/1/5
f 309/1/5 308/1/5 307/1/5
f 310/1/5 308/1/5 309/1/5
f 317/1/5 312/1/5 311/1/5
f 318/1/5 312/1/5 317/1/5
f 319/1/5 314/1/5 313/1/5
f 320/1/5 314/1/5 319/1/5
f 321/1/5 316/1/5 315/1/5
f 322/1/5 316/1/5 321/1/5
f 325/1/5 324/1/5 323/1/5
f 326/1/5 324/1/5 325/1/5
f 331/1/5 328/1/5 327/1/5
f 332/1/5 328/1/5 331/1/5
f 333/1/5 330/1/5 329/1/5
f 334/1/5 330/1/5 333/1/5
f 341/1/5 336/1/5 335/1/5
f 342/1/5 336/1/5 341/1/5
f 343/1/5 338/1/5 337/1/5
f 344/1/5 338/1/5 343/1/5
f 345/1/5 340/1/5 339/1/5
f 346/1/5 340/1/5 345/1/5
f 353/1/5 348/1/5 347/1/5
f 354/1/5 348/1/5 353/1/5
f 355/1/5 350/1/5 349/1/5
f 356/1/5 350/1/5 355/1/5
f 357/1/5 352/1/5 351/1/5
f 358/1/5 352/1/5 357/1/5
f 359/1/6 360/1/6 361/1/6
f 361/1/6 360/1/6 362/1/6
f 363/1/6 364/1/6 370/1/6
f 370/1/6 364/1/6 371/1/6
f 365/1/6 366/1/6 372/1/6
f 366/2/6 367/2/6 373/2/6
f 372/1/6 366/1/6 373/1/6
f 373/2/6 367/2/6 374/2/6
f 368/1/6 369/1/6 375/1/6
f 375/1/6 369/1/6 376/1/6
f 377/4/6 378/4/6 380/4/6
f 378/1/6 379/1/6 381/1/6
f 380/4/6 378/4/6 381/4/6
f 381/1/6 379/1/6 382/1/6
f 383/3/6 384/3/6 389/3/6
f 384/1/6 385/1/6 390/1/6
f 389/3/6 384/3/6 390/3/6
f 390/1/6 385/1/6 391/1/6
f 386/3/6 387/3/6 392/3/6
f 387/1/6 388/1/6 393/1/6
f 392/3/6 387/3/6 393/3/6
f 393/1/6 388/1/6 394/1/6
f 395/1/6 396/1/6 397/1/6
f 397/1/6 396/1/6 398/1/6
f 399/1/6 400/1/6 403/1/6
f 403/1/6 400/1/6 404/1/6
f 401/1/6 402/1/6 405/1/6
f 405/1/6 402/1/6 406/1/6
f 407/2/6 408/2/6 413/2/6
f 408/1/6 409/1/6 414/1/6
f 413/2/6 408/2/6 414/2/6
f 414/1/6 409/1/6 415/1/6
f 410/1/6 411/1/6 416/1/6
f 411/4/6 412/4/6 417/4/6
f 416/1/6 411/1/6 417/1/6
f 417/4/6 412/4/6 418/4/6
f 419/1/6 420/1/6 425/1/6
f 420/4/6 421/4/6 426/4/6
f 425/1/6 420/1/6 426/1/6
f 426/4/6 421/4/6 427/4/6
f 422/3/6 423/3/6 428/3/6
f 423/1/6 424/1/6 429/1/6
f 428/3/6 423/3/6 429/3/6
f 429/1/6 424/1/6 430/1/6
