# MagicaVoxel @ Ephtracy

# group
o 

# material
mtllib clovers-5.mtl
usemtl palette

# normals
vn -1 0 0
vn 1 0 0
vn 0 0 1
vn 0 0 -1
vn 0 -1 0
vn 0 1 0

# texcoords
vt 0.00585938 0.5
vt 0.00976563 0.5
vt 0.0136719 0.5
vt 0.0175781 0.5

# verts
v 3.3 5.1 0
v 3.3 5.1 -0.1
v 3.3 5.3 0
v 3.3 5.3 -0.1
v 3.3 6.1 0
v 3.3 6.1 -0.1
v 3.3 6.3 0
v 3.3 6.3 -0.1
v 3.4 5.3 0
v 3.4 5.3 -0.1
v 3.4 5.4 0
v 3.4 5.4 -0.1
v 3.4 5.5 0
v 3.4 5.5 -0.1
v 3.4 6.3 0
v 3.4 6.3 -0.1
v 3.4 6.5 0
v 3.4 6.5 -0.1
v 3.5 4.9 0
v 3.5 4.9 -0.1
v 3.5 5.1 0
v 3.5 5.1 -0.1
v 3.6 5.9 0
v 3.6 5.9 -0.1
v 3.6 6.1 0
v 3.6 6.1 -0.1
v 3.8 5.6 0
v 3.8 5.6 -0.1
v 3.8 5.8 0
v 3.8 5.8 -0.1
v 3.9 5.4 0
v 3.9 5.4 -0.1
v 3.9 5.5 0
v 3.9 5.5 -0.1
v 4 5.5 0
v 4 5.5 -0.1
v 4 5.6 0
v 4 5.6 -0.1
v 4 5.8 0
v 4 5.8 -0.1
v 4 5.9 0
v 4 5.9 -0.1
v 4 6 0
v 4 6 -0.1
v 4.4 5.2 0
v 4.4 5.2 -0.1
v 4.4 5.4 0
v 4.4 5.4 -0.1
v 4.4 6.1 0
v 4.4 6.1 -0.1
v 4.4 6.3 0
v 4.4 6.3 -0.1
v 4.5 5 0
v 4.5 5 -0.1
v 4.5 5.1 0
v 4.5 5.1 -0.1
v 4.5 5.8 0
v 4.5 5.8 -0.1
v 4.5 6.1 0
v 4.5 6.1 -0.1
v 4.6 5.1 0
v 4.6 5.1 -0.1
v 4.6 5.2 0
v 4.6 5.2 -0.1
v 4.6 5.4 0
v 4.6 5.4 -0.1
v 4.6 5.5 0
v 4.6 5.5 -0.1
v 4.6 5.6 0
v 4.6 5.6 -0.1
v 4.6 6.3 0
v 4.6 6.3 -0.1
v 4.6 6.4 0
v 4.6 6.4 -0.1
v 4.7 6 0
v 4.7 6 -0.1
v 4.7 6.1 0
v 4.7 6.1 -0.1
v 3.6 4.9 0
v 3.6 4.9 -0.1
v 3.6 5.2 0
v 3.6 5.2 -0.1
v 3.6 5.4 0
v 3.6 5.4 -0.1
v 3.6 5.5 0
v 3.6 5.5 -0.1
v 3.6 6.4 0
v 3.6 6.4 -0.1
v 3.6 6.5 0
v 3.6 6.5 -0.1
v 3.7 5.9 0
v 3.7 5.9 -0.1
v 3.7 6.2 0
v 3.7 6.2 -0.1
v 3.8 5.2 0
v 3.8 5.2 -0.1
v 3.8 5.4 0
v 3.8 5.4 -0.1
v 3.8 6.2 0
v 3.8 6.2 -0.1
v 3.8 6.4 0
v 3.8 6.4 -0.1
v 4 5.4 0
v 4 5.4 -0.1
v 4 5.5 0
v 4 5.5 -0.1
v 4.1 5.5 0
v 4.1 5.5 -0.1
v 4.1 5.6 0
v 4.1 5.6 -0.1
v 4.2 5.8 0
v 4.2 5.8 -0.1
v 4.2 6 0
v 4.2 6 -0.1
v 4.3 5.6 0
v 4.3 5.6 -0.1
v 4.3 5.8 0
v 4.3 5.8 -0.1
v 4.6 5 0
v 4.6 5 -0.1
v 4.6 5.1 0
v 4.6 5.1 -0.1
v 4.6 5.8 0
v 4.6 5.8 -0.1
v 4.6 6.1 0
v 4.6 6.1 -0.1
v 4.7 5.1 0
v 4.7 5.1 -0.1
v 4.7 5.2 0
v 4.7 5.2 -0.1
v 4.8 5.4 0
v 4.8 5.4 -0.1
v 4.8 5.6 0
v 4.8 5.6 -0.1
v 4.8 6.2 0
v 4.8 6.2 -0.1
v 4.8 6.4 0
v 4.8 6.4 -0.1
v 4.9 5.2 0
v 4.9 5.2 -0.1
v 4.9 5.4 0
v 4.9 5.4 -0.1
v 4.9 6 0
v 4.9 6 -0.1
v 4.9 6.2 0
v 4.9 6.2 -0.1
v 3.3 5.1 0
v 3.3 5.3 0
v 3.3 6.1 0
v 3.3 6.3 0
v 3.4 5.2 0
v 3.4 5.3 0
v 3.4 5.4 0
v 3.4 5.5 0
v 3.4 6.2 0
v 3.4 6.3 0
v 3.4 6.5 0
v 3.5 4.9 0
v 3.5 5.1 0
v 3.5 5.2 0
v 3.5 5.3 0
v 3.5 5.4 0
v 3.5 5.5 0
v 3.5 6.2 0
v 3.5 6.3 0
v 3.5 6.4 0
v 3.5 6.5 0
v 3.6 4.9 0
v 3.6 5.2 0
v 3.6 5.3 0
v 3.6 5.4 0
v 3.6 5.5 0
v 3.6 5.9 0
v 3.6 6.1 0
v 3.6 6.3 0
v 3.6 6.4 0
v 3.6 6.5 0
v 3.7 5.3 0
v 3.7 5.4 0
v 3.7 5.9 0
v 3.7 6.2 0
v 3.7 6.3 0
v 3.7 6.4 0
v 3.8 5.2 0
v 3.8 5.4 0
v 3.8 5.6 0
v 3.8 5.8 0
v 3.8 6.2 0
v 3.8 6.4 0
v 3.9 5.4 0
v 3.9 5.5 0
v 3.9 5.7 0
v 3.9 5.8 0
v 4 5.4 0
v 4 5.5 0
v 4 5.6 0
v 4 5.7 0
v 4 5.8 0
v 4 5.9 0
v 4 6 0
v 4.1 5.5 0
v 4.1 5.6 0
v 4.1 5.7 0
v 4.1 5.8 0
v 4.1 5.9 0
v 4.1 6 0
v 4.2 5.7 0
v 4.2 5.8 0
v 4.2 6 0
v 4.3 5.6 0
v 4.3 5.8 0
v 4.4 5.2 0
v 4.4 5.4 0
v 4.4 6.1 0
v 4.4 6.3 0
v 4.5 5 0
v 4.5 5.1 0
v 4.5 5.3 0
v 4.5 5.4 0
v 4.5 5.8 0
v 4.5 6.1 0
v 4.5 6.2 0
v 4.5 6.3 0
v 4.6 5 0
v 4.6 5.1 0
v 4.6 5.2 0
v 4.6 5.3 0
v 4.6 5.4 0
v 4.6 5.5 0
v 4.6 5.6 0
v 4.6 5.8 0
v 4.6 6.1 0
v 4.6 6.2 0
v 4.6 6.3 0
v 4.6 6.4 0
v 4.7 5.1 0
v 4.7 5.2 0
v 4.7 5.3 0
v 4.7 5.4 0
v 4.7 5.5 0
v 4.7 5.6 0
v 4.7 6 0
v 4.7 6.1 0
v 4.7 6.2 0
v 4.7 6.3 0
v 4.7 6.4 0
v 4.8 5.3 0
v 4.8 5.4 0
v 4.8 5.6 0
v 4.8 6.1 0
v 4.8 6.2 0
v 4.8 6.4 0
v 4.9 5.2 0
v 4.9 5.4 0
v 4.9 6 0
v 4.9 6.2 0
v 3.3 5.1 -0.1
v 3.3 5.3 -0.1
v 3.3 6.1 -0.1
v 3.3 6.3 -0.1
v 3.4 5.2 -0.1
v 3.4 5.3 -0.1
v 3.4 5.4 -0.1
v 3.4 5.5 -0.1
v 3.4 6.2 -0.1
v 3.4 6.3 -0.1
v 3.4 6.5 -0.1
v 3.5 4.9 -0.1
v 3.5 5.1 -0.1
v 3.5 5.2 -0.1
v 3.5 5.3 -0.1
v 3.5 5.4 -0.1
v 3.5 5.5 -0.1
v 3.5 6.2 -0.1
v 3.5 6.3 -0.1
v 3.5 6.4 -0.1
v 3.5 6.5 -0.1
v 3.6 4.9 -0.1
v 3.6 5.2 -0.1
v 3.6 5.3 -0.1
v 3.6 5.4 -0.1
v 3.6 5.5 -0.1
v 3.6 5.9 -0.1
v 3.6 6.1 -0.1
v 3.6 6.3 -0.1
v 3.6 6.4 -0.1
v 3.6 6.5 -0.1
v 3.7 5.3 -0.1
v 3.7 5.4 -0.1
v 3.7 5.9 -0.1
v 3.7 6.2 -0.1
v 3.7 6.3 -0.1
v 3.7 6.4 -0.1
v 3.8 5.2 -0.1
v 3.8 5.4 -0.1
v 3.8 5.6 -0.1
v 3.8 5.8 -0.1
v 3.8 6.2 -0.1
v 3.8 6.4 -0.1
v 3.9 5.4 -0.1
v 3.9 5.5 -0.1
v 3.9 5.7 -0.1
v 3.9 5.8 -0.1
v 4 5.4 -0.1
v 4 5.5 -0.1
v 4 5.6 -0.1
v 4 5.7 -0.1
v 4 5.8 -0.1
v 4 5.9 -0.1
v 4 6 -0.1
v 4.1 5.5 -0.1
v 4.1 5.6 -0.1
v 4.1 5.7 -0.1
v 4.1 5.8 -0.1
v 4.1 5.9 -0.1
v 4.1 6 -0.1
v 4.2 5.7 -0.1
v 4.2 5.8 -0.1
v 4.2 6 -0.1
v 4.3 5.6 -0.1
v 4.3 5.8 -0.1
v 4.4 5.2 -0.1
v 4.4 5.4 -0.1
v 4.4 6.1 -0.1
v 4.4 6.3 -0.1
v 4.5 5 -0.1
v 4.5 5.1 -0.1
v 4.5 5.3 -0.1
v 4.5 5.4 -0.1
v 4.5 5.8 -0.1
v 4.5 6.1 -0.1
v 4.5 6.2 -0.1
v 4.5 6.3 -0.1
v 4.6 5 -0.1
v 4.6 5.1 -0.1
v 4.6 5.2 -0.1
v 4.6 5.3 -0.1
v 4.6 5.4 -0.1
v 4.6 5.5 -0.1
v 4.6 5.6 -0.1
v 4.6 5.8 -0.1
v 4.6 6.1 -0.1
v 4.6 6.2 -0.1
v 4.6 6.3 -0.1
v 4.6 6.4 -0.1
v 4.7 5.1 -0.1
v 4.7 5.2 -0.1
v 4.7 5.3 -0.1
v 4.7 5.4 -0.1
v 4.7 5.5 -0.1
v 4.7 5.6 -0.1
v 4.7 6 -0.1
v 4.7 6.1 -0.1
v 4.7 6.2 -0.1
v 4.7 6.3 -0.1
v 4.7 6.4 -0.1
v 4.8 5.3 -0.1
v 4.8 5.4 -0.1
v 4.8 5.6 -0.1
v 4.8 6.1 -0.1
v 4.8 6.2 -0.1
v 4.8 6.4 -0.1
v 4.9 5.2 -0.1
v 4.9 5.4 -0.1
v 4.9 6 -0.1
v 4.9 6.2 -0.1
v 3.5 4.9 0
v 3.6 4.9 0
v 3.5 4.9 -0.1
v 3.6 4.9 -0.1
v 4.5 5 0
v 4.6 5 0
v 4.5 5 -0.1
v 4.6 5 -0.1
v 3.3 5.1 0
v 3.5 5.1 0
v 4.6 5.1 0
v 4.7 5.1 0
v 3.3 5.1 -0.1
v 3.5 5.1 -0.1
v 4.6 5.1 -0.1
v 4.7 5.1 -0.1
v 3.6 5.2 0
v 3.8 5.2 0
v 4.4 5.2 0
v 4.6 5.2 0
v 4.7 5.2 0
v 4.9 5.2 0
v 3.6 5.2 -0.1
v 3.8 5.2 -0.1
v 4.4 5.2 -0.1
v 4.6 5.2 -0.1
v 4.7 5.2 -0.1
v 4.9 5.2 -0.1
v 3.9 5.4 0
v 4 5.4 0
v 3.9 5.4 -0.1
v 4 5.4 -0.1
v 4 5.5 0
v 4.1 5.5 0
v 4 5.5 -0.1
v 4.1 5.5 -0.1
v 3.8 5.6 0
v 4 5.6 0
v 4.1 5.6 0
v 4.3 5.6 0
v 3.8 5.6 -0.1
v 4 5.6 -0.1
v 4.1 5.6 -0.1
v 4.3 5.6 -0.1
v 4.5 5.8 0
v 4.6 5.8 0
v 4.5 5.8 -0.1
v 4.6 5.8 -0.1
v 3.6 5.9 0
v 3.7 5.9 0
v 3.6 5.9 -0.1
v 3.7 5.9 -0.1
v 4.7 6 0
v 4.9 6 0
v 4.7 6 -0.1
v 4.9 6 -0.1
v 3.3 6.1 0
v 3.6 6.1 0
v 4.4 6.1 0
v 4.5 6.1 0
v 4.6 6.1 0
v 4.7 6.1 0
v 3.3 6.1 -0.1
v 3.6 6.1 -0.1
v 4.4 6.1 -0.1
v 4.5 6.1 -0.1
v 4.6 6.1 -0.1
v 4.7 6.1 -0.1
v 3.7 6.2 0
v 3.8 6.2 0
v 3.7 6.2 -0.1
v 3.8 6.2 -0.1
v 4.5 5.1 0
v 4.6 5.1 0
v 4.5 5.1 -0.1
v 4.6 5.1 -0.1
v 3.3 5.3 0
v 3.4 5.3 0
v 3.3 5.3 -0.1
v 3.4 5.3 -0.1
v 3.6 5.4 0
v 3.7 5.4 0
v 3.8 5.4 0
v 4.4 5.4 0
v 4.5 5.4 0
v 4.6 5.4 0
v 4.8 5.4 0
v 4.9 5.4 0
v 3.6 5.4 -0.1
v 3.7 5.4 -0.1
v 3.8 5.4 -0.1
v 4.4 5.4 -0.1
v 4.5 5.4 -0.1
v 4.6 5.4 -0.1
v 4.8 5.4 -0.1
v 4.9 5.4 -0.1
v 3.4 5.5 0
v 3.5 5.5 0
v 3.6 5.5 0
v 3.9 5.5 0
v 4 5.5 0
v 3.4 5.5 -0.1
v 3.5 5.5 -0.1
v 3.6 5.5 -0.1
v 3.9 5.5 -0.1
v 4 5.5 -0.1
v 4.6 5.6 0
v 4.7 5.6 0
v 4.8 5.6 0
v 4.6 5.6 -0.1
v 4.7 5.6 -0.1
v 4.8 5.6 -0.1
v 3.8 5.8 0
v 3.9 5.8 0
v 4 5.8 0
v 4.2 5.8 0
v 4.3 5.8 0
v 3.8 5.8 -0.1
v 3.9 5.8 -0.1
v 4 5.8 -0.1
v 4.2 5.8 -0.1
v 4.3 5.8 -0.1
v 4 6 0
v 4.1 6 0
v 4.2 6 0
v 4 6 -0.1
v 4.1 6 -0.1
v 4.2 6 -0.1
v 4.8 6.2 0
v 4.9 6.2 0
v 4.8 6.2 -0.1
v 4.9 6.2 -0.1
v 3.3 6.3 0
v 3.4 6.3 0
v 4.4 6.3 0
v 4.5 6.3 0
v 4.6 6.3 0
v 3.3 6.3 -0.1
v 3.4 6.3 -0.1
v 4.4 6.3 -0.1
v 4.5 6.3 -0.1
v 4.6 6.3 -0.1
v 3.6 6.4 0
v 3.7 6.4 0
v 3.8 6.4 0
v 4.6 6.4 0
v 4.7 6.4 0
v 4.8 6.4 0
v 3.6 6.4 -0.1
v 3.7 6.4 -0.1
v 3.8 6.4 -0.1
v 4.6 6.4 -0.1
v 4.7 6.4 -0.1
v 4.8 6.4 -0.1
v 3.4 6.5 0
v 3.5 6.5 0
v 3.6 6.5 0
v 3.4 6.5 -0.1
v 3.5 6.5 -0.1
v 3.6 6.5 -0.1

# faces
f 3/1/1 2/1/1 1/1/1
f 4/1/1 2/1/1 3/1/1
f 7/1/1 6/1/1 5/1/1
f 8/1/1 6/1/1 7/1/1
f 11/1/1 10/1/1 9/1/1
f 12/1/1 10/1/1 11/1/1
f 13/3/1 12/3/1 11/3/1
f 14/3/1 12/3/1 13/3/1
f 17/1/1 16/1/1 15/1/1
f 18/1/1 16/1/1 17/1/1
f 21/1/1 20/1/1 19/1/1
f 22/1/1 20/1/1 21/1/1
f 25/1/1 24/1/1 23/1/1
f 26/1/1 24/1/1 25/1/1
f 29/1/1 28/1/1 27/1/1
f 30/1/1 28/1/1 29/1/1
f 33/1/1 32/1/1 31/1/1
f 34/1/1 32/1/1 33/1/1
f 37/1/1 36/1/1 35/1/1
f 38/1/1 36/1/1 37/1/1
f 41/1/1 40/1/1 39/1/1
f 42/1/1 40/1/1 41/1/1
f 43/3/1 42/3/1 41/3/1
f 44/3/1 42/3/1 43/3/1
f 47/1/1 46/1/1 45/1/1
f 48/1/1 46/1/1 47/1/1
f 51/1/1 50/1/1 49/1/1
f 52/1/1 50/1/1 51/1/1
f 55/1/1 54/1/1 53/1/1
f 56/1/1 54/1/1 55/1/1
f 59/1/1 58/1/1 57/1/1
f 60/1/1 58/1/1 59/1/1
f 63/1/1 62/1/1 61/1/1
f 64/1/1 62/1/1 63/1/1
f 67/1/1 66/1/1 65/1/1
f 68/1/1 66/1/1 67/1/1
f 69/3/1 68/3/1 67/3/1
f 70/3/1 68/3/1 69/3/1
f 73/3/1 72/3/1 71/3/1
f 74/3/1 72/3/1 73/3/1
f 77/1/1 76/1/1 75/1/1
f 78/1/1 76/1/1 77/1/1
f 79/1/2 80/1/2 81/1/2
f 81/1/2 80/1/2 82/1/2
f 83/1/2 84/1/2 85/1/2
f 85/1/2 84/1/2 86/1/2
f 87/4/2 88/4/2 89/4/2
f 89/4/2 88/4/2 90/4/2
f 91/1/2 92/1/2 93/1/2
f 93/1/2 92/1/2 94/1/2
f 95/1/2 96/1/2 97/1/2
f 97/1/2 96/1/2 98/1/2
f 99/1/2 100/1/2 101/1/2
f 101/1/2 100/1/2 102/1/2
f 103/1/2 104/1/2 105/1/2
f 105/1/2 104/1/2 106/1/2
f 107/1/2 108/1/2 109/1/2
f 109/1/2 108/1/2 110/1/2
f 111/1/2 112/1/2 113/1/2
f 113/1/2 112/1/2 114/1/2
f 115/1/2 116/1/2 117/1/2
f 117/1/2 116/1/2 118/1/2
f 119/1/2 120/1/2 121/1/2
f 121/1/2 120/1/2 122/1/2
f 123/1/2 124/1/2 125/1/2
f 125/1/2 124/1/2 126/1/2
f 127/1/2 128/1/2 129/1/2
f 129/1/2 128/1/2 130/1/2
f 131/1/2 132/1/2 133/1/2
f 133/1/2 132/1/2 134/1/2
f 135/1/2 136/1/2 137/1/2
f 137/1/2 136/1/2 138/1/2
f 139/1/2 140/1/2 141/1/2
f 141/1/2 140/1/2 142/1/2
f 143/1/2 144/1/2 145/1/2
f 145/1/2 144/1/2 146/1/2
f 151/1/3 148/1/3 147/1/3
f 152/1/3 148/1/3 151/1/3
f 155/1/3 150/1/3 149/1/3
f 156/1/3 150/1/3 155/1/3
f 159/1/3 151/1/3 147/1/3
f 160/2/3 152/2/3 151/2/3
f 160/1/3 151/1/3 159/1/3
f 161/1/3 153/1/3 152/1/3
f 161/2/3 152/2/3 160/2/3
f 162/3/3 154/3/3 153/3/3
f 162/1/3 153/1/3 161/1/3
f 163/3/3 154/3/3 162/3/3
f 164/1/3 155/1/3 149/1/3
f 164/3/3 156/3/3 155/3/3
f 165/1/3 157/1/3 156/1/3
f 165/3/3 156/3/3 164/3/3
f 166/1/3 157/1/3 165/1/3
f 167/1/3 157/1/3 166/1/3
f 168/1/3 161/1/3 160/1/3
f 168/1/3 159/1/3 158/1/3
f 168/1/3 160/1/3 159/1/3
f 168/1/3 163/1/3 162/1/3
f 168/1/3 162/1/3 161/1/3
f 169/1/3 163/1/3 168/1/3
f 170/1/3 163/1/3 169/1/3
f 171/1/3 163/1/3 170/1/3
f 172/1/3 163/1/3 171/1/3
f 174/1/3 164/1/3 149/1/3
f 174/1/3 166/1/3 165/1/3
f 174/1/3 165/1/3 164/1/3
f 175/1/3 166/1/3 174/1/3
f 176/4/3 167/4/3 166/4/3
f 176/1/3 166/1/3 175/1/3
f 177/4/3 167/4/3 176/4/3
f 178/4/3 171/4/3 170/4/3
f 178/1/3 170/1/3 169/1/3
f 179/4/3 171/4/3 178/4/3
f 180/1/3 175/1/3 174/1/3
f 180/1/3 174/1/3 173/1/3
f 181/1/3 175/1/3 180/1/3
f 182/2/3 176/2/3 175/2/3
f 182/1/3 175/1/3 181/1/3
f 183/2/3 176/2/3 182/2/3
f 184/1/3 179/1/3 178/1/3
f 184/1/3 178/1/3 169/1/3
f 185/1/3 179/1/3 184/1/3
f 188/1/3 183/1/3 182/1/3
f 188/1/3 182/1/3 181/1/3
f 189/1/3 183/1/3 188/1/3
f 192/1/3 187/1/3 186/1/3
f 193/1/3 187/1/3 192/1/3
f 194/1/3 191/1/3 190/1/3
f 195/1/3 191/1/3 194/1/3
f 196/1/3 192/1/3 186/1/3
f 197/2/3 193/2/3 192/2/3
f 197/1/3 192/1/3 196/1/3
f 198/2/3 193/2/3 197/2/3
f 201/1/3 198/1/3 197/1/3
f 201/1/3 199/1/3 198/1/3
f 201/1/3 197/1/3 196/1/3
f 201/1/3 196/1/3 195/1/3
f 202/1/3 199/1/3 201/1/3
f 203/1/3 199/1/3 202/1/3
f 204/1/3 199/1/3 203/1/3
f 205/3/3 200/3/3 199/3/3
f 205/1/3 199/1/3 204/1/3
f 206/3/3 200/3/3 205/3/3
f 207/4/3 204/4/3 203/4/3
f 207/1/3 203/1/3 202/1/3
f 208/1/3 206/1/3 205/1/3
f 208/4/3 204/4/3 207/4/3
f 208/1/3 205/1/3 204/1/3
f 209/1/3 206/1/3 208/1/3
f 210/1/3 207/1/3 202/1/3
f 210/1/3 208/1/3 207/1/3
f 211/1/3 208/1/3 210/1/3
f 218/1/3 213/1/3 212/1/3
f 219/1/3 213/1/3 218/1/3
f 221/1/3 215/1/3 214/1/3
f 222/1/3 215/1/3 221/1/3
f 223/1/3 215/1/3 222/1/3
f 224/1/3 217/1/3 216/1/3
f 225/1/3 217/1/3 224/1/3
f 226/1/3 218/1/3 212/1/3
f 227/2/3 219/2/3 218/2/3
f 227/1/3 218/1/3 226/1/3
f 228/2/3 219/2/3 227/2/3
f 231/1/3 221/1/3 220/1/3
f 231/1/3 222/1/3 221/1/3
f 232/1/3 222/1/3 231/1/3
f 233/4/3 223/4/3 222/4/3
f 233/1/3 222/1/3 232/1/3
f 234/4/3 223/4/3 233/4/3
f 236/1/3 226/1/3 225/1/3
f 236/1/3 229/1/3 228/1/3
f 236/1/3 228/1/3 227/1/3
f 236/1/3 227/1/3 226/1/3
f 237/1/3 229/1/3 236/1/3
f 238/1/3 229/1/3 237/1/3
f 239/1/3 229/1/3 238/1/3
f 240/3/3 230/3/3 229/3/3
f 240/1/3 229/1/3 239/1/3
f 241/3/3 230/3/3 240/3/3
f 243/1/3 234/1/3 233/1/3
f 243/1/3 233/1/3 232/1/3
f 244/1/3 234/1/3 243/1/3
f 245/3/3 235/3/3 234/3/3
f 245/1/3 234/1/3 244/1/3
f 246/3/3 235/3/3 245/3/3
f 247/4/3 239/4/3 238/4/3
f 247/1/3 238/1/3 237/1/3
f 248/1/3 241/1/3 240/1/3
f 248/4/3 239/4/3 247/4/3
f 248/1/3 240/1/3 239/1/3
f 249/1/3 241/1/3 248/1/3
f 250/2/3 244/2/3 243/2/3
f 250/1/3 243/1/3 242/1/3
f 251/1/3 246/1/3 245/1/3
f 251/2/3 244/2/3 250/2/3
f 251/1/3 245/1/3 244/1/3
f 252/1/3 246/1/3 251/1/3
f 253/1/3 247/1/3 237/1/3
f 253/1/3 248/1/3 247/1/3
f 254/1/3 248/1/3 253/1/3
f 255/1/3 251/1/3 250/1/3
f 255/1/3 250/1/3 242/1/3
f 256/1/3 251/1/3 255/1/3
f 257/1/4 258/1/4 261/1/4
f 261/1/4 258/1/4 262/1/4
f 259/1/4 260/1/4 265/1/4
f 265/1/4 260/1/4 266/1/4
f 257/1/4 261/1/4 269/1/4
f 261/2/4 262/2/4 270/2/4
f 269/1/4 261/1/4 270/1/4
f 262/1/4 263/1/4 271/1/4
f 270/2/4 262/2/4 271/2/4
f 263/3/4 264/3/4 272/3/4
f 271/1/4 263/1/4 272/1/4
f 272/3/4 264/3/4 273/3/4
f 259/1/4 265/1/4 274/1/4
f 265/3/4 266/3/4 274/3/4
f 266/1/4 267/1/4 275/1/4
f 274/3/4 266/3/4 275/3/4
f 275/1/4 267/1/4 276/1/4
f 276/1/4 267/1/4 277/1/4
f 270/1/4 271/1/4 278/1/4
f 268/1/4 269/1/4 278/1/4
f 269/1/4 270/1/4 278/1/4
f 272/1/4 273/1/4 278/1/4
f 271/1/4 272/1/4 278/1/4
f 278/1/4 273/1/4 279/1/4
f 279/1/4 273/1/4 280/1/4
f 280/1/4 273/1/4 281/1/4
f 281/1/4 273/1/4 282/1/4
f 259/1/4 274/1/4 284/1/4
f 275/1/4 276/1/4 284/1/4
f 274/1/4 275/1/4 284/1/4
f 284/1/4 276/1/4 285/1/4
f 276/4/4 277/4/4 286/4/4
f 285/1/4 276/1/4 286/1/4
f 286/4/4 277/4/4 287/4/4
f 280/4/4 281/4/4 288/4/4
f 279/1/4 280/1/4 288/1/4
f 288/4/4 281/4/4 289/4/4
f 284/1/4 285/1/4 290/1/4
f 283/1/4 284/1/4 290/1/4
f 290/1/4 285/1/4 291/1/4
f 285/2/4 286/2/4 292/2/4
f 291/1/4 285/1/4 292/1/4
f 292/2/4 286/2/4 293/2/4
f 288/1/4 289/1/4 294/1/4
f 279/1/4 288/1/4 294/1/4
f 294/1/4 289/1/4 295/1/4
f 292/1/4 293/1/4 298/1/4
f 291/1/4 292/1/4 298/1/4
f 298/1/4 293/1/4 299/1/4
f 296/1/4 297/1/4 302/1/4
f 302/1/4 297/1/4 303/1/4
f 300/1/4 301/1/4 304/1/4
f 304/1/4 301/1/4 305/1/4
f 296/1/4 302/1/4 306/1/4
f 302/2/4 303/2/4 307/2/4
f 306/1/4 302/1/4 307/1/4
f 307/2/4 303/2/4 308/2/4
f 307/1/4 308/1/4 311/1/4
f 308/1/4 309/1/4 311/1/4
f 306/1/4 307/1/4 311/1/4
f 305/1/4 306/1/4 311/1/4
f 311/1/4 309/1/4 312/1/4
f 312/1/4 309/1/4 313/1/4
f 313/1/4 309/1/4 314/1/4
f 309/3/4 310/3/4 315/3/4
f 314/1/4 309/1/4 315/1/4
f 315/3/4 310/3/4 316/3/4
f 313/4/4 314/4/4 317/4/4
f 312/1/4 313/1/4 317/1/4
f 315/1/4 316/1/4 318/1/4
f 317/4/4 314/4/4 318/4/4
f 314/1/4 315/1/4 318/1/4
f 318/1/4 316/1/4 319/1/4
f 312/1/4 317/1/4 320/1/4
f 317/1/4 318/1/4 320/1/4
f 320/1/4 318/1/4 321/1/4
f 322/1/4 323/1/4 328/1/4
f 328/1/4 323/1/4 329/1/4
f 324/1/4 325/1/4 331/1/4
f 331/1/4 325/1/4 332/1/4
f 332/1/4 325/1/4 333/1/4
f 326/1/4 327/1/4 334/1/4
f 334/1/4 327/1/4 335/1/4
f 322/1/4 328/1/4 336/1/4
f 328/2/4 329/2/4 337/2/4
f 336/1/4 328/1/4 337/1/4
f 337/2/4 329/2/4 338/2/4
f 330/1/4 331/1/4 341/1/4
f 331/1/4 332/1/4 341/1/4
f 341/1/4 332/1/4 342/1/4
f 332/4/4 333/4/4 343/4/4
f 342/1/4 332/1/4 343/1/4
f 343/4/4 333/4/4 344/4/4
f 335/1/4 336/1/4 346/1/4
f 338/1/4 339/1/4 346/1/4
f 337/1/4 338/1/4 346/1/4
f 336/1/4 337/1/4 346/1/4
f 346/1/4 339/1/4 347/1/4
f 347/1/4 339/1/4 348/1/4
f 348/1/4 339/1/4 349/1/4
f 339/3/4 340/3/4 350/3/4
f 349/1/4 339/1/4 350/1/4
f 350/3/4 340/3/4 351/3/4
f 343/1/4 344/1/4 353/1/4
f 342/1/4 343/1/4 353/1/4
f 353/1/4 344/1/4 354/1/4
f 344/3/4 345/3/4 355/3/4
f 354/1/4 344/1/4 355/1/4
f 355/3/4 345/3/4 356/3/4
f 348/4/4 349/4/4 357/4/4
f 347/1/4 348/1/4 357/1/4
f 350/1/4 351/1/4 358/1/4
f 357/4/4 349/4/4 358/4/4
f 349/1/4 350/1/4 358/1/4
f 358/1/4 351/1/4 359/1/4
f 353/2/4 354/2/4 360/2/4
f 352/1/4 353/1/4 360/1/4
f 355/1/4 356/1/4 361/1/4
f 360/2/4 354/2/4 361/2/4
f 354/1/4 355/1/4 361/1/4
f 361/1/4 356/1/4 362/1/4
f 347/1/4 357/1/4 363/1/4
f 357/1/4 358/1/4 363/1/4
f 363/1/4 358/1/4 364/1/4
f 360/1/4 361/1/4 365/1/4
f 352/1/4 360/1/4 365/1/4
f 365/1/4 361/1/4 366/1/4
f 369/1/5 368/1/5 367/1/5
f 370/1/5 368/1/5 369/1/5
f 373/1/5 372/1/5 371/1/5
f 374/1/5 372/1/5 373/1/5
f 379/1/5 376/1/5 375/1/5
f 380/1/5 376/1/5 379/1/5
f 381/1/5 378/1/5 377/1/5
f 382/1/5 378/1/5 381/1/5
f 389/1/5 384/1/5 383/1/5
f 390/1/5 384/1/5 389/1/5
f 391/1/5 386/1/5 385/1/5
f 392/1/5 386/1/5 391/1/5
f 393/1/5 388/1/5 387/1/5
f 394/1/5 388/1/5 393/1/5
f 397/1/5 396/1/5 395/1/5
f 398/1/5 396/1/5 397/1/5
f 401/1/5 400/1/5 399/1/5
f 402/1/5 400/1/5 401/1/5
f 407/1/5 404/1/5 403/1/5
f 408/1/5 404/1/5 407/1/5
f 409/1/5 406/1/5 405/1/5
f 410/1/5 406/1/5 409/1/5
f 413/1/5 412/1/5 411/1/5
f 414/1/5 412/1/5 413/1/5
f 417/1/5 416/1/5 415/1/5
f 418/1/5 416/1/5 417/1/5
f 421/1/5 420/1/5 419/1/5
f 422/1/5 420/1/5 421/1/5
f 429/1/5 424/1/5 423/1/5
f 430/1/5 424/1/5 429/1/5
f 431/1/5 426/1/5 425/1/5
f 432/1/5 426/1/5 431/1/5
f 433/1/5 428/1/5 427/1/5
f 434/1/5 428/1/5 433/1/5
f 437/1/5 436/1/5 435/1/5
f 438/1/5 436/1/5 437/1/5
f 439/1/6 440/1/6 441/1/6
f 441/1/6 440/1/6 442/1/6
f 443/1/6 444/1/6 445/1/6
f 445/1/6 444/1/6 446/1/6
f 447/4/6 448/4/6 455/4/6
f 448/1/6 449/1/6 456/1/6
f 455/4/6 448/4/6 456/4/6
f 456/1/6 449/1/6 457/1/6
f 450/1/6 451/1/6 458/1/6
f 451/2/6 452/2/6 459/2/6
f 458/1/6 451/1/6 459/1/6
f 459/2/6 452/2/6 460/2/6
f 453/1/6 454/1/6 461/1/6
f 461/1/6 454/1/6 462/1/6
f 463/3/6 464/3/6 468/3/6
f 464/1/6 465/1/6 469/1/6
f 468/3/6 464/3/6 469/3/6
f 469/1/6 465/1/6 470/1/6
f 466/1/6 467/1/6 471/1/6
f 471/1/6 467/1/6 472/1/6
f 473/3/6 474/3/6 476/3/6
f 474/1/6 475/1/6 477/1/6
f 476/3/6 474/3/6 477/3/6
f 477/1/6 475/1/6 478/1/6
f 479/1/6 480/1/6 484/1/6
f 480/2/6 481/2/6 485/2/6
f 484/1/6 480/1/6 485/1/6
f 485/2/6 481/2/6 486/2/6
f 482/1/6 483/1/6 487/1/6
f 487/1/6 483/1/6 488/1/6
f 489/3/6 490/3/6 492/3/6
f 490/1/6 491/1/6 493/1/6
f 492/3/6 490/3/6 493/3/6
f 493/1/6 491/1/6 494/1/6
f 495/1/6 496/1/6 497/1/6
f 497/1/6 496/1/6 498/1/6
f 499/1/6 500/1/6 504/1/6
f 504/1/6 500/1/6 505/1/6
f 501/1/6 502/1/6 506/1/6
f 502/4/6 503/4/6 507/4/6
f 506/1/6 502/1/6 507/1/6
f 507/4/6 503/4/6 508/4/6
f 509/2/6 510/2/6 515/2/6
f 510/1/6 511/1/6 516/1/6
f 515/2/6 510/2/6 516/2/6
f 516/1/6 511/1/6 517/1/6
f 512/3/6 513/3/6 518/3/6
f 513/1/6 514/1/6 519/1/6
f 518/3/6 513/3/6 519/3/6
f 519/1/6 514/1/6 520/1/6
f 521/1/6 522/1/6 524/1/6
f 522/4/6 523/4/6 525/4/6
f 524/1/6 522/1/6 525/1/6
f 525/4/6 523/4/6 526/4/6
