# MagicaVoxel @ Ephtracy

# group
o 

# material
mtllib studydebris-6.mtl
usemtl palette

# normals
vn -1 0 0
vn 1 0 0
vn 0 0 1
vn 0 0 -1
vn 0 -1 0
vn 0 1 0

# texcoords
vt 0.138672 0.5
vt 0.142578 0.5
vt 0.146484 0.5
vt 0.150391 0.5
vt 0.154297 0.5
vt 0.158203 0.5
vt 0.162109 0.5
vt 0.166016 0.5
vt 0.169922 0.5
vt 0.173828 0.5
vt 0.177734 0.5
vt 0.181641 0.5
vt 0.185547 0.5
vt 0.189453 0.5
vt 0.201172 0.5
vt 0.205078 0.5
vt 0.208984 0.5
vt 0.212891 0.5
vt 0.216797 0.5
vt 0.220703 0.5
vt 0.224609 0.5
vt 0.228516 0.5
vt 0.236328 0.5
vt 0.240234 0.5
vt 0.244141 0.5
vt 0.248047 0.5
vt 0.251953 0.5
vt 0.255859 0.5
vt 0.259766 0.5
vt 0.263672 0.5
vt 0.267578 0.5
vt 0.271484 0.5
vt 0.275391 0.5
vt 0.279297 0.5

# verts
v -13.2 0 2.4
v -13.2 0 2.2
v -13.2 0.1 2.4
v -13.2 0.1 2.2
v -13.1 0 2.5
v -13.1 0 2.4
v -13.1 0.1 2.5
v -13.1 0.1 2.4
v -13 0 2.6
v -13 0 2.5
v -13 0 2.2
v -13 0 2.1
v -13 0.1 2.6
v -13 0.1 2.5
v -13 0.1 2.2
v -13 0.1 2.1
v -12.9 0 2.7
v -12.9 0 2.6
v -12.9 0.1 2.7
v -12.9 0.1 2.6
v -12.8 0 2.8
v -12.8 0 2.7
v -12.8 0 2.1
v -12.8 0 2
v -12.8 0.1 2.8
v -12.8 0.1 2.7
v -12.8 0.1 2.1
v -12.8 0.1 2
v -12.7 0 2.9
v -12.7 0 2.8
v -12.7 0 2
v -12.7 0 1.9
v -12.7 0.1 2.9
v -12.7 0.1 2.8
v -12.7 0.1 2
v -12.7 0.1 1.9
v -12.6 0 3
v -12.6 0 2.9
v -12.6 0.1 3
v -12.6 0.1 2.9
v -12.5 0 3.1
v -12.5 0 3
v -12.5 0 1.9
v -12.5 0 1.8
v -12.5 0.1 3.1
v -12.5 0.1 3
v -12.5 0.1 1.9
v -12.5 0.1 1.8
v -12.4 0 3.2
v -12.4 0 3.1
v -12.4 0.1 3.2
v -12.4 0.1 3.1
v -12.3 0 1.9
v -12.3 0 1.8
v -12.3 0.1 1.9
v -12.3 0.1 1.8
v -12.2 0 3.2
v -12.2 0 3.1
v -12.2 0 2
v -12.2 0 1.9
v -12.2 0.1 3.2
v -12.2 0.1 3.1
v -12.2 0.1 2
v -12.2 0.1 1.9
v -12.1 0 2.1
v -12.1 0 2
v -12.1 0.1 2.1
v -12.1 0.1 2
v -12 0 3.1
v -12 0 3
v -12 0 2.2
v -12 0 2.1
v -12 0.1 3.1
v -12 0.1 3
v -12 0.1 2.2
v -12 0.1 2.1
v -11.9 0 3
v -11.9 0 2.9
v -11.9 0 2.3
v -11.9 0 2.2
v -11.9 0.1 3
v -11.9 0.1 2.9
v -11.9 0.1 2.3
v -11.9 0.1 2.2
v -11.8 0 2.4
v -11.8 0 2.3
v -11.8 0.1 2.4
v -11.8 0.1 2.3
v -11.7 0 2.9
v -11.7 0 2.8
v -11.7 0 2.5
v -11.7 0 2.4
v -11.7 0.1 2.9
v -11.7 0.1 2.8
v -11.7 0.1 2.5
v -11.7 0.1 2.4
v -11.6 0 2.8
v -11.6 0 2.7
v -11.6 0 2.6
v -11.6 0 2.5
v -11.6 0.1 2.8
v -11.6 0.1 2.7
v -11.6 0.1 2.6
v -11.6 0.1 2.5
v -11.5 0 2.7
v -11.5 0 2.6
v -11.5 0.1 2.7
v -11.5 0.1 2.6
v -12.4 0 3.2
v -12.4 0.1 3.2
v -12.2 0 3.2
v -12.2 0.1 3.2
v -12.5 0 3.1
v -12.5 0.1 3.1
v -12.4 0 3.1
v -12.4 0.1 3.1
v -12.2 0 3.1
v -12.2 0.1 3.1
v -12.1 0 3.1
v -12.1 0.1 3.1
v -12 0 3.1
v -12 0.1 3.1
v -12.6 0 3
v -12.6 0.1 3
v -12.5 0 3
v -12.5 0.1 3
v -12 0 3
v -12 0.1 3
v -11.9 0 3
v -11.9 0.1 3
v -12.7 0 2.9
v -12.7 0.1 2.9
v -12.6 0 2.9
v -12.6 0.1 2.9
v -11.9 0 2.9
v -11.9 0.1 2.9
v -11.8 0 2.9
v -11.8 0.1 2.9
v -11.7 0 2.9
v -11.7 0.1 2.9
v -12.8 0 2.8
v -12.8 0.1 2.8
v -12.7 0 2.8
v -12.7 0.1 2.8
v -11.7 0 2.8
v -11.7 0.1 2.8
v -11.6 0 2.8
v -11.6 0.1 2.8
v -12.9 0 2.7
v -12.9 0.1 2.7
v -12.8 0 2.7
v -12.8 0.1 2.7
v -11.6 0 2.7
v -11.6 0.1 2.7
v -11.5 0 2.7
v -11.5 0.1 2.7
v -13 0 2.6
v -13 0.1 2.6
v -12.9 0 2.6
v -12.9 0.1 2.6
v -13.1 0 2.5
v -13.1 0.1 2.5
v -13 0 2.5
v -13 0.1 2.5
v -13.2 0 2.4
v -13.2 0.1 2.4
v -13.1 0 2.4
v -13.1 0.1 2.4
v -11.6 0 2.6
v -11.6 0.1 2.6
v -11.5 0 2.6
v -11.5 0.1 2.6
v -11.7 0 2.5
v -11.7 0.1 2.5
v -11.6 0 2.5
v -11.6 0.1 2.5
v -11.8 0 2.4
v -11.8 0.1 2.4
v -11.7 0 2.4
v -11.7 0.1 2.4
v -11.9 0 2.3
v -11.9 0.1 2.3
v -11.8 0 2.3
v -11.8 0.1 2.3
v -13.2 0 2.2
v -13.2 0.1 2.2
v -13.1 0 2.2
v -13.1 0.1 2.2
v -13 0 2.2
v -13 0.1 2.2
v -12 0 2.2
v -12 0.1 2.2
v -11.9 0 2.2
v -11.9 0.1 2.2
v -13 0 2.1
v -13 0.1 2.1
v -12.9 0 2.1
v -12.9 0.1 2.1
v -12.8 0 2.1
v -12.8 0.1 2.1
v -12.1 0 2.1
v -12.1 0.1 2.1
v -12 0 2.1
v -12 0.1 2.1
v -12.8 0 2
v -12.8 0.1 2
v -12.7 0 2
v -12.7 0.1 2
v -12.2 0 2
v -12.2 0.1 2
v -12.1 0 2
v -12.1 0.1 2
v -12.7 0 1.9
v -12.7 0.1 1.9
v -12.6 0 1.9
v -12.6 0.1 1.9
v -12.5 0 1.9
v -12.5 0.1 1.9
v -12.3 0 1.9
v -12.3 0.1 1.9
v -12.2 0 1.9
v -12.2 0.1 1.9
v -12.5 0 1.8
v -12.5 0.1 1.8
v -12.3 0 1.8
v -12.3 0.1 1.8
v -12.4 0 3.2
v -12.2 0 3.2
v -12.5 0 3.1
v -12.4 0 3.1
v -12.3 0 3.1
v -12.2 0 3.1
v -12.1 0 3.1
v -12 0 3.1
v -12.6 0 3
v -12.5 0 3
v -12.4 0 3
v -12.3 0 3
v -12.2 0 3
v -12.1 0 3
v -12 0 3
v -11.9 0 3
v -12.7 0 2.9
v -12.6 0 2.9
v -12.5 0 2.9
v -12.4 0 2.9
v -12.3 0 2.9
v -12.2 0 2.9
v -12 0 2.9
v -11.9 0 2.9
v -11.8 0 2.9
v -11.7 0 2.9
v -12.8 0 2.8
v -12.7 0 2.8
v -12.6 0 2.8
v -12.5 0 2.8
v -12.4 0 2.8
v -12.3 0 2.8
v -12.2 0 2.8
v -12.1 0 2.8
v -12 0 2.8
v -11.9 0 2.8
v -11.8 0 2.8
v -11.7 0 2.8
v -11.6 0 2.8
v -12.9 0 2.7
v -12.8 0 2.7
v -12.7 0 2.7
v -12.6 0 2.7
v -12.5 0 2.7
v -12.3 0 2.7
v -12.2 0 2.7
v -12.1 0 2.7
v -11.8 0 2.7
v -11.7 0 2.7
v -11.6 0 2.7
v -11.5 0 2.7
v -13 0 2.6
v -12.9 0 2.6
v -12.8 0 2.6
v -12.5 0 2.6
v -12.4 0 2.6
v -12.3 0 2.6
v -12.2 0 2.6
v -12.1 0 2.6
v -12 0 2.6
v -11.9 0 2.6
v -11.8 0 2.6
v -11.7 0 2.6
v -11.6 0 2.6
v -11.5 0 2.6
v -13.1 0 2.5
v -13 0 2.5
v -12.9 0 2.5
v -12.8 0 2.5
v -12.7 0 2.5
v -12.6 0 2.5
v -12.5 0 2.5
v -12.4 0 2.5
v -12.2 0 2.5
v -12.1 0 2.5
v -12 0 2.5
v -11.8 0 2.5
v -11.7 0 2.5
v -11.6 0 2.5
v -13.2 0 2.4
v -13.1 0 2.4
v -13 0 2.4
v -12.4 0 2.4
v -12.3 0 2.4
v -12.2 0 2.4
v -12.1 0 2.4
v -12 0 2.4
v -11.9 0 2.4
v -11.8 0 2.4
v -11.7 0 2.4
v -13.1 0 2.3
v -13 0 2.3
v -12.9 0 2.3
v -12.8 0 2.3
v -12.7 0 2.3
v -12.6 0 2.3
v -12.5 0 2.3
v -12.4 0 2.3
v -12.3 0 2.3
v -12.1 0 2.3
v -12 0 2.3
v -11.9 0 2.3
v -11.8 0 2.3
v -13.2 0 2.2
v -13.1 0 2.2
v -13 0 2.2
v -12.9 0 2.2
v -12.8 0 2.2
v -12.7 0 2.2
v -12.6 0 2.2
v -12.3 0 2.2
v -12.2 0 2.2
v -12.1 0 2.2
v -12 0 2.2
v -11.9 0 2.2
v -13 0 2.1
v -12.9 0 2.1
v -12.8 0 2.1
v -12.7 0 2.1
v -12.5 0 2.1
v -12.4 0 2.1
v -12.3 0 2.1
v -12.2 0 2.1
v -12.1 0 2.1
v -12 0 2.1
v -12.8 0 2
v -12.7 0 2
v -12.6 0 2
v -12.5 0 2
v -12.3 0 2
v -12.2 0 2
v -12.1 0 2
v -12.7 0 1.9
v -12.6 0 1.9
v -12.5 0 1.9
v -12.4 0 1.9
v -12.3 0 1.9
v -12.2 0 1.9
v -12.5 0 1.8
v -12.3 0 1.8
v -12.4 0.1 3.2
v -12.2 0.1 3.2
v -12.5 0.1 3.1
v -12.4 0.1 3.1
v -12.3 0.1 3.1
v -12.2 0.1 3.1
v -12.1 0.1 3.1
v -12 0.1 3.1
v -12.6 0.1 3
v -12.5 0.1 3
v -12.4 0.1 3
v -12.3 0.1 3
v -12.2 0.1 3
v -12.1 0.1 3
v -12 0.1 3
v -11.9 0.1 3
v -12.7 0.1 2.9
v -12.6 0.1 2.9
v -12.5 0.1 2.9
v -12.4 0.1 2.9
v -12.3 0.1 2.9
v -12.2 0.1 2.9
v -12 0.1 2.9
v -11.9 0.1 2.9
v -11.8 0.1 2.9
v -11.7 0.1 2.9
v -12.8 0.1 2.8
v -12.7 0.1 2.8
v -12.6 0.1 2.8
v -12.5 0.1 2.8
v -12.4 0.1 2.8
v -12.3 0.1 2.8
v -12.2 0.1 2.8
v -12.1 0.1 2.8
v -12 0.1 2.8
v -11.9 0.1 2.8
v -11.8 0.1 2.8
v -11.7 0.1 2.8
v -11.6 0.1 2.8
v -12.9 0.1 2.7
v -12.8 0.1 2.7
v -12.7 0.1 2.7
v -12.6 0.1 2.7
v -12.5 0.1 2.7
v -12.3 0.1 2.7
v -12.2 0.1 2.7
v -12.1 0.1 2.7
v -11.8 0.1 2.7
v -11.7 0.1 2.7
v -11.6 0.1 2.7
v -11.5 0.1 2.7
v -13 0.1 2.6
v -12.9 0.1 2.6
v -12.8 0.1 2.6
v -12.5 0.1 2.6
v -12.4 0.1 2.6
v -12.3 0.1 2.6
v -12.2 0.1 2.6
v -12.1 0.1 2.6
v -12 0.1 2.6
v -11.9 0.1 2.6
v -11.8 0.1 2.6
v -11.7 0.1 2.6
v -11.6 0.1 2.6
v -11.5 0.1 2.6
v -13.1 0.1 2.5
v -13 0.1 2.5
v -12.9 0.1 2.5
v -12.8 0.1 2.5
v -12.7 0.1 2.5
v -12.6 0.1 2.5
v -12.5 0.1 2.5
v -12.4 0.1 2.5
v -12.2 0.1 2.5
v -12.1 0.1 2.5
v -12 0.1 2.5
v -11.8 0.1 2.5
v -11.7 0.1 2.5
v -11.6 0.1 2.5
v -13.2 0.1 2.4
v -13.1 0.1 2.4
v -13 0.1 2.4
v -12.4 0.1 2.4
v -12.3 0.1 2.4
v -12.2 0.1 2.4
v -12.1 0.1 2.4
v -12 0.1 2.4
v -11.9 0.1 2.4
v -11.8 0.1 2.4
v -11.7 0.1 2.4
v -13.1 0.1 2.3
v -13 0.1 2.3
v -12.9 0.1 2.3
v -12.8 0.1 2.3
v -12.7 0.1 2.3
v -12.6 0.1 2.3
v -12.5 0.1 2.3
v -12.4 0.1 2.3
v -12.3 0.1 2.3
v -12.1 0.1 2.3
v -12 0.1 2.3
v -11.9 0.1 2.3
v -11.8 0.1 2.3
v -13.2 0.1 2.2
v -13.1 0.1 2.2
v -13 0.1 2.2
v -12.9 0.1 2.2
v -12.8 0.1 2.2
v -12.7 0.1 2.2
v -12.6 0.1 2.2
v -12.3 0.1 2.2
v -12.2 0.1 2.2
v -12.1 0.1 2.2
v -12 0.1 2.2
v -11.9 0.1 2.2
v -13 0.1 2.1
v -12.9 0.1 2.1
v -12.8 0.1 2.1
v -12.7 0.1 2.1
v -12.5 0.1 2.1
v -12.4 0.1 2.1
v -12.3 0.1 2.1
v -12.2 0.1 2.1
v -12.1 0.1 2.1
v -12 0.1 2.1
v -12.8 0.1 2
v -12.7 0.1 2
v -12.6 0.1 2
v -12.5 0.1 2
v -12.3 0.1 2
v -12.2 0.1 2
v -12.1 0.1 2
v -12.7 0.1 1.9
v -12.6 0.1 1.9
v -12.5 0.1 1.9
v -12.4 0.1 1.9
v -12.3 0.1 1.9
v -12.2 0.1 1.9
v -12.5 0.1 1.8
v -12.3 0.1 1.8

# faces
f 3/26/1 2/26/1 1/26/1
f 4/26/1 2/26/1 3/26/1
f 7/23/1 6/23/1 5/23/1
f 8/23/1 6/23/1 7/23/1
f 13/19/1 10/19/1 9/19/1
f 14/19/1 10/19/1 13/19/1
f 15/23/1 12/23/1 11/23/1
f 16/23/1 12/23/1 15/23/1
f 19/19/1 18/19/1 17/19/1
f 20/19/1 18/19/1 19/19/1
f 25/15/1 22/15/1 21/15/1
f 26/15/1 22/15/1 25/15/1
f 27/33/1 24/33/1 23/33/1
f 28/33/1 24/33/1 27/33/1
f 33/11/1 30/11/1 29/11/1
f 34/11/1 30/11/1 33/11/1
f 35/33/1 32/33/1 31/33/1
f 36/33/1 32/33/1 35/33/1
f 39/2/1 38/2/1 37/2/1
f 40/2/1 38/2/1 39/2/1
f 45/2/1 42/2/1 41/2/1
f 46/2/1 42/2/1 45/2/1
f 47/19/1 44/19/1 43/19/1
f 48/19/1 44/19/1 47/19/1
f 51/1/1 50/1/1 49/1/1
f 52/1/1 50/1/1 51/1/1
f 53/19/2 54/19/2 55/19/2
f 55/19/2 54/19/2 56/19/2
f 57/1/2 58/1/2 61/1/2
f 61/1/2 58/1/2 62/1/2
f 59/11/2 60/11/2 63/11/2
f 63/11/2 60/11/2 64/11/2
f 65/2/2 66/2/2 67/2/2
f 67/2/2 66/2/2 68/2/2
f 69/6/2 70/6/2 73/6/2
f 73/6/2 70/6/2 74/6/2
f 71/2/2 72/2/2 75/2/2
f 75/2/2 72/2/2 76/2/2
f 77/6/2 78/6/2 81/6/2
f 81/6/2 78/6/2 82/6/2
f 79/30/2 80/30/2 83/30/2
f 83/30/2 80/30/2 84/30/2
f 85/1/2 86/1/2 87/1/2
f 87/1/2 86/1/2 88/1/2
f 89/14/2 90/14/2 93/14/2
f 93/14/2 90/14/2 94/14/2
f 91/6/2 92/6/2 95/6/2
f 95/6/2 92/6/2 96/6/2
f 97/14/2 98/14/2 101/14/2
f 101/14/2 98/14/2 102/14/2
f 99/14/2 100/14/2 103/14/2
f 103/14/2 100/14/2 104/14/2
f 105/22/2 106/22/2 107/22/2
f 107/22/2 106/22/2 108/22/2
f 111/1/3 110/1/3 109/1/3
f 112/1/3 110/1/3 111/1/3
f 115/2/3 114/2/3 113/2/3
f 116/2/3 114/2/3 115/2/3
f 119/5/3 118/5/3 117/5/3
f 120/5/3 118/5/3 119/5/3
f 121/6/3 120/6/3 119/6/3
f 122/6/3 120/6/3 121/6/3
f 125/2/3 124/2/3 123/2/3
f 126/2/3 124/2/3 125/2/3
f 129/6/3 128/6/3 127/6/3
f 130/6/3 128/6/3 129/6/3
f 133/11/3 132/11/3 131/11/3
f 134/11/3 132/11/3 133/11/3
f 137/5/3 136/5/3 135/5/3
f 138/5/3 136/5/3 137/5/3
f 139/14/3 138/14/3 137/14/3
f 140/14/3 138/14/3 139/14/3
f 143/15/3 142/15/3 141/15/3
f 144/15/3 142/15/3 143/15/3
f 147/14/3 146/14/3 145/14/3
f 148/14/3 146/14/3 147/14/3
f 151/19/3 150/19/3 149/19/3
f 152/19/3 150/19/3 151/19/3
f 155/22/3 154/22/3 153/22/3
f 156/22/3 154/22/3 155/22/3
f 159/19/3 158/19/3 157/19/3
f 160/19/3 158/19/3 159/19/3
f 163/23/3 162/23/3 161/23/3
f 164/23/3 162/23/3 163/23/3
f 167/26/3 166/26/3 165/26/3
f 168/26/3 166/26/3 167/26/3
f 169/22/4 170/22/4 171/22/4
f 171/22/4 170/22/4 172/22/4
f 173/14/4 174/14/4 175/14/4
f 175/14/4 174/14/4 176/14/4
f 177/6/4 178/6/4 179/6/4
f 179/6/4 178/6/4 180/6/4
f 181/1/4 182/1/4 183/1/4
f 183/1/4 182/1/4 184/1/4
f 185/26/4 186/26/4 187/26/4
f 187/26/4 186/26/4 188/26/4
f 187/28/4 188/28/4 189/28/4
f 189/28/4 188/28/4 190/28/4
f 191/30/4 192/30/4 193/30/4
f 193/30/4 192/30/4 194/30/4
f 195/23/4 196/23/4 197/23/4
f 197/23/4 196/23/4 198/23/4
f 197/31/4 198/31/4 199/31/4
f 199/31/4 198/31/4 200/31/4
f 201/2/4 202/2/4 203/2/4
f 203/2/4 202/2/4 204/2/4
f 205/33/4 206/33/4 207/33/4
f 207/33/4 206/33/4 208/33/4
f 209/2/4 210/2/4 211/2/4
f 211/2/4 210/2/4 212/2/4
f 213/33/4 214/33/4 215/33/4
f 215/33/4 214/33/4 216/33/4
f 215/34/4 216/34/4 217/34/4
f 217/34/4 216/34/4 218/34/4
f 219/11/4 220/11/4 221/11/4
f 221/11/4 220/11/4 222/11/4
f 223/19/4 224/19/4 225/19/4
f 225/19/4 224/19/4 226/19/4
f 230/1/5 228/1/5 227/1/5
f 231/1/5 228/1/5 230/1/5
f 232/1/5 228/1/5 231/1/5
f 236/2/5 230/2/5 229/2/5
f 237/3/5 231/3/5 230/3/5
f 237/2/5 230/2/5 236/2/5
f 238/4/5 232/4/5 231/4/5
f 238/3/5 231/3/5 237/3/5
f 239/5/5 233/5/5 232/5/5
f 239/4/5 232/4/5 238/4/5
f 240/6/5 234/6/5 233/6/5
f 240/5/5 233/5/5 239/5/5
f 241/6/5 234/6/5 240/6/5
f 244/2/5 236/2/5 235/2/5
f 245/7/5 237/7/5 236/7/5
f 245/2/5 236/2/5 244/2/5
f 246/8/5 238/8/5 237/8/5
f 246/7/5 237/7/5 245/7/5
f 247/9/5 239/9/5 238/9/5
f 247/8/5 238/8/5 246/8/5
f 248/4/5 240/4/5 239/4/5
f 248/9/5 239/9/5 247/9/5
f 249/6/5 242/6/5 241/6/5
f 249/10/5 241/10/5 240/10/5
f 250/6/5 242/6/5 249/6/5
f 254/11/5 244/11/5 243/11/5
f 255/12/5 245/12/5 244/12/5
f 255/11/5 244/11/5 254/11/5
f 256/7/5 246/7/5 245/7/5
f 256/12/5 245/12/5 255/12/5
f 256/7/5 247/7/5 246/7/5
f 257/7/5 247/7/5 256/7/5
f 258/3/5 248/3/5 247/3/5
f 258/7/5 247/7/5 257/7/5
f 259/4/5 240/4/5 248/4/5
f 259/3/5 248/3/5 258/3/5
f 260/10/5 249/10/5 240/10/5
f 260/4/5 240/4/5 259/4/5
f 261/13/5 250/13/5 249/13/5
f 261/10/5 249/10/5 260/10/5
f 262/5/5 251/5/5 250/5/5
f 262/13/5 250/13/5 261/13/5
f 263/14/5 252/14/5 251/14/5
f 263/5/5 251/5/5 262/5/5
f 264/14/5 252/14/5 263/14/5
f 267/15/5 254/15/5 253/15/5
f 268/16/5 255/16/5 254/16/5
f 268/15/5 254/15/5 267/15/5
f 269/17/5 256/17/5 255/17/5
f 269/16/5 255/16/5 268/16/5
f 270/12/5 257/12/5 256/12/5
f 270/17/5 256/17/5 269/17/5
f 271/7/5 258/7/5 257/7/5
f 271/8/5 259/8/5 258/8/5
f 272/9/5 260/9/5 259/9/5
f 272/8/5 259/8/5 271/8/5
f 273/4/5 261/4/5 260/4/5
f 273/9/5 260/9/5 272/9/5
f 274/13/5 263/13/5 262/13/5
f 274/18/5 264/18/5 263/18/5
f 275/14/5 265/14/5 264/14/5
f 275/18/5 264/18/5 274/18/5
f 276/14/5 265/14/5 275/14/5
f 279/19/5 267/19/5 266/19/5
f 280/20/5 268/20/5 267/20/5
f 280/19/5 267/19/5 279/19/5
f 281/12/5 257/12/5 270/12/5
f 281/16/5 270/16/5 269/16/5
f 282/7/5 271/7/5 257/7/5
f 282/12/5 257/12/5 281/12/5
f 282/7/5 272/7/5 271/7/5
f 283/7/5 272/7/5 282/7/5
f 284/3/5 273/3/5 272/3/5
f 284/7/5 272/7/5 283/7/5
f 285/4/5 261/4/5 273/4/5
f 285/3/5 273/3/5 284/3/5
f 286/10/5 262/10/5 261/10/5
f 286/4/5 261/4/5 285/4/5
f 287/13/5 274/13/5 262/13/5
f 287/10/5 262/10/5 286/10/5
f 287/13/5 275/13/5 274/13/5
f 288/13/5 275/13/5 287/13/5
f 289/18/5 276/18/5 275/18/5
f 289/13/5 275/13/5 288/13/5
f 290/22/5 277/22/5 276/22/5
f 290/18/5 276/18/5 289/18/5
f 291/22/5 277/22/5 290/22/5
f 293/19/5 279/19/5 278/19/5
f 294/20/5 280/20/5 279/20/5
f 294/19/5 279/19/5 293/19/5
f 295/20/5 268/20/5 280/20/5
f 295/20/5 280/20/5 294/20/5
f 296/21/5 269/21/5 268/21/5
f 296/20/5 268/20/5 295/20/5
f 297/16/5 281/16/5 269/16/5
f 297/21/5 269/21/5 296/21/5
f 298/17/5 282/17/5 281/17/5
f 298/16/5 281/16/5 297/16/5
f 299/12/5 283/12/5 282/12/5
f 299/17/5 282/17/5 298/17/5
f 300/8/5 285/8/5 284/8/5
f 300/7/5 284/7/5 283/7/5
f 301/9/5 286/9/5 285/9/5
f 301/8/5 285/8/5 300/8/5
f 302/4/5 287/4/5 286/4/5
f 302/9/5 286/9/5 301/9/5
f 303/13/5 289/13/5 288/13/5
f 303/10/5 288/10/5 287/10/5
f 304/14/5 290/14/5 289/14/5
f 304/13/5 289/13/5 303/13/5
f 305/14/5 290/14/5 304/14/5
f 307/23/5 293/23/5 292/23/5
f 308/24/5 294/24/5 293/24/5
f 308/23/5 293/23/5 307/23/5
f 309/12/5 283/12/5 299/12/5
f 309/16/5 299/16/5 298/16/5
f 310/7/5 300/7/5 283/7/5
f 310/12/5 283/12/5 309/12/5
f 310/7/5 301/7/5 300/7/5
f 311/7/5 301/7/5 310/7/5
f 312/3/5 302/3/5 301/3/5
f 312/7/5 301/7/5 311/7/5
f 313/4/5 287/4/5 302/4/5
f 313/3/5 302/3/5 312/3/5
f 314/10/5 303/10/5 287/10/5
f 314/4/5 287/4/5 313/4/5
f 315/6/5 304/6/5 303/6/5
f 315/10/5 303/10/5 314/10/5
f 316/6/5 304/6/5 315/6/5
f 317/26/5 307/26/5 306/26/5
f 317/27/5 308/27/5 307/27/5
f 318/24/5 294/24/5 308/24/5
f 318/27/5 308/27/5 317/27/5
f 319/25/5 295/25/5 294/25/5
f 319/24/5 294/24/5 318/24/5
f 320/20/5 296/20/5 295/20/5
f 320/25/5 295/25/5 319/25/5
f 320/20/5 297/20/5 296/20/5
f 321/20/5 297/20/5 320/20/5
f 322/21/5 298/21/5 297/21/5
f 322/20/5 297/20/5 321/20/5
f 323/16/5 309/16/5 298/16/5
f 323/21/5 298/21/5 322/21/5
f 324/17/5 310/17/5 309/17/5
f 324/16/5 309/16/5 323/16/5
f 325/12/5 311/12/5 310/12/5
f 325/17/5 310/17/5 324/17/5
f 326/7/5 312/7/5 311/7/5
f 326/8/5 313/8/5 312/8/5
f 327/9/5 314/9/5 313/9/5
f 327/8/5 313/8/5 326/8/5
f 328/1/5 315/1/5 314/1/5
f 328/9/5 314/9/5 327/9/5
f 329/1/5 315/1/5 328/1/5
f 330/26/5 317/26/5 306/26/5
f 331/28/5 318/28/5 317/28/5
f 331/26/5 317/26/5 330/26/5
f 332/29/5 319/29/5 318/29/5
f 332/28/5 318/28/5 331/28/5
f 333/24/5 320/24/5 319/24/5
f 333/29/5 319/29/5 332/29/5
f 334/25/5 321/25/5 320/25/5
f 334/24/5 320/24/5 333/24/5
f 335/20/5 322/20/5 321/20/5
f 335/25/5 321/25/5 334/25/5
f 335/20/5 323/20/5 322/20/5
f 336/20/5 323/20/5 335/20/5
f 337/12/5 311/12/5 325/12/5
f 337/16/5 325/16/5 324/16/5
f 338/7/5 327/7/5 326/7/5
f 338/12/5 311/12/5 337/12/5
f 338/7/5 326/7/5 311/7/5
f 339/7/5 327/7/5 338/7/5
f 340/30/5 328/30/5 327/30/5
f 340/7/5 327/7/5 339/7/5
f 341/30/5 328/30/5 340/30/5
f 342/23/5 333/23/5 332/23/5
f 343/31/5 334/31/5 333/31/5
f 343/23/5 333/23/5 342/23/5
f 344/32/5 335/32/5 334/32/5
f 344/31/5 334/31/5 343/31/5
f 345/25/5 336/25/5 335/25/5
f 345/32/5 335/32/5 344/32/5
f 346/20/5 323/20/5 336/20/5
f 346/21/5 324/21/5 323/21/5
f 347/16/5 337/16/5 324/16/5
f 347/21/5 324/21/5 346/21/5
f 348/17/5 338/17/5 337/17/5
f 348/16/5 337/16/5 347/16/5
f 349/12/5 339/12/5 338/12/5
f 349/17/5 338/17/5 348/17/5
f 350/2/5 340/2/5 339/2/5
f 350/12/5 339/12/5 349/12/5
f 351/2/5 340/2/5 350/2/5
f 352/33/5 345/33/5 344/33/5
f 353/25/5 336/25/5 345/25/5
f 353/33/5 345/33/5 352/33/5
f 354/20/5 346/20/5 336/20/5
f 354/25/5 336/25/5 353/25/5
f 354/20/5 347/20/5 346/20/5
f 355/20/5 347/20/5 354/20/5
f 356/16/5 349/16/5 348/16/5
f 356/21/5 348/21/5 347/21/5
f 357/2/5 350/2/5 349/2/5
f 357/16/5 349/16/5 356/16/5
f 358/2/5 350/2/5 357/2/5
f 359/33/5 354/33/5 353/33/5
f 360/34/5 355/34/5 354/34/5
f 360/33/5 354/33/5 359/33/5
f 361/20/5 347/20/5 355/20/5
f 361/34/5 355/34/5 360/34/5
f 362/21/5 356/21/5 347/21/5
f 362/20/5 347/20/5 361/20/5
f 363/11/5 357/11/5 356/11/5
f 363/21/5 356/21/5 362/21/5
f 364/11/5 357/11/5 363/11/5
f 365/19/5 363/19/5 362/19/5
f 365/19/5 362/19/5 361/19/5
f 366/19/5 363/19/5 365/19/5
f 367/1/6 368/1/6 370/1/6
f 370/1/6 368/1/6 371/1/6
f 371/1/6 368/1/6 372/1/6
f 369/2/6 370/2/6 376/2/6
f 370/3/6 371/3/6 377/3/6
f 376/2/6 370/2/6 377/2/6
f 371/4/6 372/4/6 378/4/6
f 377/3/6 371/3/6 378/3/6
f 372/5/6 373/5/6 379/5/6
f 378/4/6 372/4/6 379/4/6
f 373/6/6 374/6/6 380/6/6
f 379/5/6 373/5/6 380/5/6
f 380/6/6 374/6/6 381/6/6
f 375/2/6 376/2/6 384/2/6
f 376/7/6 377/7/6 385/7/6
f 384/2/6 376/2/6 385/2/6
f 377/8/6 378/8/6 386/8/6
f 385/7/6 377/7/6 386/7/6
f 378/9/6 379/9/6 387/9/6
f 386/8/6 378/8/6 387/8/6
f 379/4/6 380/4/6 388/4/6
f 387/9/6 379/9/6 388/9/6
f 381/6/6 382/6/6 389/6/6
f 380/10/6 381/10/6 389/10/6
f 389/6/6 382/6/6 390/6/6
f 383/11/6 384/11/6 394/11/6
f 384/12/6 385/12/6 395/12/6
f 394/11/6 384/11/6 395/11/6
f 385/7/6 386/7/6 396/7/6
f 395/12/6 385/12/6 396/12/6
f 386/7/6 387/7/6 396/7/6
f 396/7/6 387/7/6 397/7/6
f 387/3/6 388/3/6 398/3/6
f 397/7/6 387/7/6 398/7/6
f 388/4/6 380/4/6 399/4/6
f 398/3/6 388/3/6 399/3/6
f 380/10/6 389/10/6 400/10/6
f 399/4/6 380/4/6 400/4/6
f 389/13/6 390/13/6 401/13/6
f 400/10/6 389/10/6 401/10/6
f 390/5/6 391/5/6 402/5/6
f 401/13/6 390/13/6 402/13/6
f 391/14/6 392/14/6 403/14/6
f 402/5/6 391/5/6 403/5/6
f 403/14/6 392/14/6 404/14/6
f 393/15/6 394/15/6 407/15/6
f 394/16/6 395/16/6 408/16/6
f 407/15/6 394/15/6 408/15/6
f 395/17/6 396/17/6 409/17/6
f 408/16/6 395/16/6 409/16/6
f 396/12/6 397/12/6 410/12/6
f 409/17/6 396/17/6 410/17/6
f 397/7/6 398/7/6 411/7/6
f 398/8/6 399/8/6 411/8/6
f 399/9/6 400/9/6 412/9/6
f 411/8/6 399/8/6 412/8/6
f 400/4/6 401/4/6 413/4/6
f 412/9/6 400/9/6 413/9/6
f 402/13/6 403/13/6 414/13/6
f 403/18/6 404/18/6 414/18/6
f 404/14/6 405/14/6 415/14/6
f 414/18/6 404/18/6 415/18/6
f 415/14/6 405/14/6 416/14/6
f 406/19/6 407/19/6 419/19/6
f 407/20/6 408/20/6 420/20/6
f 419/19/6 407/19/6 420/19/6
f 410/12/6 397/12/6 421/12/6
f 409/16/6 410/16/6 421/16/6
f 397/7/6 411/7/6 422/7/6
f 421/12/6 397/12/6 422/12/6
f 411/7/6 412/7/6 422/7/6
f 422/7/6 412/7/6 423/7/6
f 412/3/6 413/3/6 424/3/6
f 423/7/6 412/7/6 424/7/6
f 413/4/6 401/4/6 425/4/6
f 424/3/6 413/3/6 425/3/6
f 401/10/6 402/10/6 426/10/6
f 425/4/6 401/4/6 426/4/6
f 402/13/6 414/13/6 427/13/6
f 426/10/6 402/10/6 427/10/6
f 414/13/6 415/13/6 427/13/6
f 427/13/6 415/13/6 428/13/6
f 415/18/6 416/18/6 429/18/6
f 428/13/6 415/13/6 429/13/6
f 416/22/6 417/22/6 430/22/6
f 429/18/6 416/18/6 430/18/6
f 430/22/6 417/22/6 431/22/6
f 418/19/6 419/19/6 433/19/6
f 419/20/6 420/20/6 434/20/6
f 433/19/6 419/19/6 434/19/6
f 420/20/6 408/20/6 435/20/6
f 434/20/6 420/20/6 435/20/6
f 408/21/6 409/21/6 436/21/6
f 435/20/6 408/20/6 436/20/6
f 409/16/6 421/16/6 437/16/6
f 436/21/6 409/21/6 437/21/6
f 421/17/6 422/17/6 438/17/6
f 437/16/6 421/16/6 438/16/6
f 422/12/6 423/12/6 439/12/6
f 438/17/6 422/17/6 439/17/6
f 424/8/6 425/8/6 440/8/6
f 423/7/6 424/7/6 440/7/6
f 425/9/6 426/9/6 441/9/6
f 440/8/6 425/8/6 441/8/6
f 426/4/6 427/4/6 442/4/6
f 441/9/6 426/9/6 442/9/6
f 428/13/6 429/13/6 443/13/6
f 427/10/6 428/10/6 443/10/6
f 429/14/6 430/14/6 444/14/6
f 443/13/6 429/13/6 444/13/6
f 444/14/6 430/14/6 445/14/6
f 432/23/6 433/23/6 447/23/6
f 433/24/6 434/24/6 448/24/6
f 447/23/6 433/23/6 448/23/6
f 439/12/6 423/12/6 449/12/6
f 438/16/6 439/16/6 449/16/6
f 423/7/6 440/7/6 450/7/6
f 449/12/6 423/12/6 450/12/6
f 440/7/6 441/7/6 450/7/6
f 450/7/6 441/7/6 451/7/6
f 441/3/6 442/3/6 452/3/6
f 451/7/6 441/7/6 452/7/6
f 442/4/6 427/4/6 453/4/6
f 452/3/6 442/3/6 453/3/6
f 427/10/6 443/10/6 454/10/6
f 453/4/6 427/4/6 454/4/6
f 443/6/6 444/6/6 455/6/6
f 454/10/6 443/10/6 455/10/6
f 455/6/6 444/6/6 456/6/6
f 446/26/6 447/26/6 457/26/6
f 447/27/6 448/27/6 457/27/6
f 448/24/6 434/24/6 458/24/6
f 457/27/6 448/27/6 458/27/6
f 434/25/6 435/25/6 459/25/6
f 458/24/6 434/24/6 459/24/6
f 435/20/6 436/20/6 460/20/6
f 459/25/6 435/25/6 460/25/6
f 436/20/6 437/20/6 460/20/6
f 460/20/6 437/20/6 461/20/6
f 437/21/6 438/21/6 462/21/6
f 461/20/6 437/20/6 462/20/6
f 438/16/6 449/16/6 463/16/6
f 462/21/6 438/21/6 463/21/6
f 449/17/6 450/17/6 464/17/6
f 463/16/6 449/16/6 464/16/6
f 450/12/6 451/12/6 465/12/6
f 464/17/6 450/17/6 465/17/6
f 451/7/6 452/7/6 466/7/6
f 452/8/6 453/8/6 466/8/6
f 453/9/6 454/9/6 467/9/6
f 466/8/6 453/8/6 467/8/6
f 454/1/6 455/1/6 468/1/6
f 467/9/6 454/9/6 468/9/6
f 468/1/6 455/1/6 469/1/6
f 446/26/6 457/26/6 470/26/6
f 457/28/6 458/28/6 471/28/6
f 470/26/6 457/26/6 471/26/6
f 458/29/6 459/29/6 472/29/6
f 471/28/6 458/28/6 472/28/6
f 459/24/6 460/24/6 473/24/6
f 472/29/6 459/29/6 473/29/6
f 460/25/6 461/25/6 474/25/6
f 473/24/6 460/24/6 474/24/6
f 461/20/6 462/20/6 475/20/6
f 474/25/6 461/25/6 475/25/6
f 462/20/6 463/20/6 475/20/6
f 475/20/6 463/20/6 476/20/6
f 465/12/6 451/12/6 477/12/6
f 464/16/6 465/16/6 477/16/6
f 466/7/6 467/7/6 478/7/6
f 477/12/6 451/12/6 478/12/6
f 451/7/6 466/7/6 478/7/6
f 478/7/6 467/7/6 479/7/6
f 467/30/6 468/30/6 480/30/6
f 479/7/6 467/7/6 480/7/6
f 480/30/6 468/30/6 481/30/6
f 472/23/6 473/23/6 482/23/6
f 473/31/6 474/31/6 483/31/6
f 482/23/6 473/23/6 483/23/6
f 474/32/6 475/32/6 484/32/6
f 483/31/6 474/31/6 484/31/6
f 475/25/6 476/25/6 485/25/6
f 484/32/6 475/32/6 485/32/6
f 476/20/6 463/20/6 486/20/6
f 463/21/6 464/21/6 486/21/6
f 464/16/6 477/16/6 487/16/6
f 486/21/6 464/21/6 487/21/6
f 477/17/6 478/17/6 488/17/6
f 487/16/6 477/16/6 488/16/6
f 478/12/6 479/12/6 489/12/6
f 488/17/6 478/17/6 489/17/6
f 479/2/6 480/2/6 490/2/6
f 489/12/6 479/12/6 490/12/6
f 490/2/6 480/2/6 491/2/6
f 484/33/6 485/33/6 492/33/6
f 485/25/6 476/25/6 493/25/6
f 492/33/6 485/33/6 493/33/6
f 476/20/6 486/20/6 494/20/6
f 493/25/6 476/25/6 494/25/6
f 486/20/6 487/20/6 494/20/6
f 494/20/6 487/20/6 495/20/6
f 488/16/6 489/16/6 496/16/6
f 487/21/6 488/21/6 496/21/6
f 489/2/6 490/2/6 497/2/6
f 496/16/6 489/16/6 497/16/6
f 497/2/6 490/2/6 498/2/6
f 493/33/6 494/33/6 499/33/6
f 494/34/6 495/34/6 500/34/6
f 499/33/6 494/33/6 500/33/6
f 495/20/6 487/20/6 501/20/6
f 500/34/6 495/34/6 501/34/6
f 487/21/6 496/21/6 502/21/6
f 501/20/6 487/20/6 502/20/6
f 496/11/6 497/11/6 503/11/6
f 502/21/6 496/21/6 503/21/6
f 503/11/6 497/11/6 504/11/6
f 502/19/6 503/19/6 505/19/6
f 501/19/6 502/19/6 505/19/6
f 505/19/6 503/19/6 506/19/6
