# MagicaVoxel @ Ephtracy

# group
o 

# material
mtllib computer.mtl
usemtl palette

# normals
vn -1 0 0
vn 1 0 0
vn 0 0 1
vn 0 0 -1
vn 0 -1 0
vn 0 1 0

# texcoords
vt 0.00585938 0.5
vt 0.00976563 0.5
vt 0.0136719 0.5
vt 0.0253906 0.5
vt 0.0292969 0.5
vt 0.0332031 0.5
vt 0.0371094 0.5

# verts
v 0 2 0
v 0 2 -0.3
v 0 2 -0.7
v 0 2 -1
v 0 2.3 -0.3
v 0 2.3 -0.7
v 0 2.5 0
v 0 2.5 -1
v 0.6 2.7 -0.2
v 0.6 2.7 -0.7
v 0.6 3.6 -0.2
v 0.6 3.6 -0.3
v 0.6 3.7 -0.2
v 0.6 3.7 -0.3
v 0.6 3.7 -0.7
v 0.7 2.5 -0.3
v 0.7 2.5 -0.6
v 0.7 2.7 -0.3
v 0.7 2.7 -0.6
v 0.7 2.8 -0.7
v 0.7 2.8 -0.9
v 0.7 3.6 -0.7
v 0.7 3.6 -0.9
v 1.4 2.9 -0.2
v 1.4 2.9 -0.3
v 1.4 3.5 -0.2
v 1.4 3.5 -0.3
v 1.6 2.5 0
v 1.6 2.5 -0.2
v 1.6 2.5 -0.3
v 1.6 2.6 0
v 1.6 2.6 -0.2
v 1.6 2.6 -0.3
v 1.9 2.5 -0.3
v 1.9 2.5 -0.7
v 1.9 2.6 -0.3
v 1.9 2.6 -0.6
v 1.9 2.6 -0.7
v 1.9 3.3 -0.3
v 1.9 3.3 -0.4
v 1.9 3.3 -0.5
v 1.9 3.4 -0.3
v 1.9 3.4 -0.4
v 1.9 3.4 -0.5
v 1.9 3.5 -0.3
v 1.9 3.5 -0.6
v 1.9 3.6 -0.3
v 1.9 3.6 -0.7
v 2 2.7 -0.2
v 2 2.7 -0.3
v 2 2.8 -0.2
v 2 2.8 -0.3
v 2 2.9 -0.2
v 2 2.9 -0.3
v 2 3 -0.2
v 2 3 -0.3
v 2 3.1 -0.2
v 2 3.1 -0.3
v 2 3.2 -0.2
v 2 3.2 -0.3
v 2.3 2.5 -0.4
v 2.3 2.5 -0.6
v 2.3 2.6 -0.4
v 2.3 2.6 -0.6
v 2.3 2.7 -0.6
v 2.3 2.8 -0.6
v 2.3 2.9 -0.6
v 2.3 3 -0.6
v 2.3 3.1 -0.6
v 2.3 3.2 -0.6
v 2.3 3.3 -0.3
v 2.3 3.3 -0.4
v 2.3 3.3 -0.5
v 2.3 3.3 -0.6
v 2.3 3.4 -0.3
v 2.3 3.4 -0.4
v 2.5 2 0
v 2.5 2 -0.1
v 2.5 2 -0.9
v 2.5 2 -1
v 2.5 2.3 0
v 2.5 2.3 -0.1
v 2.5 2.3 -0.9
v 2.5 2.3 -1
v 2.7 2 -0.1
v 2.7 2 -0.3
v 2.7 2 -0.7
v 2.7 2 -0.9
v 2.7 2.3 -0.1
v 2.7 2.3 -0.3
v 2.7 2.3 -0.7
v 2.7 2.3 -0.9
v 0.1 2 -0.1
v 0.1 2 -0.3
v 0.1 2 -0.7
v 0.1 2 -0.9
v 0.1 2.3 -0.1
v 0.1 2.3 -0.3
v 0.1 2.3 -0.7
v 0.1 2.3 -0.9
v 0.3 2 0
v 0.3 2 -0.1
v 0.3 2 -0.9
v 0.3 2 -1
v 0.3 2.3 0
v 0.3 2.3 -0.1
v 0.3 2.3 -0.9
v 0.3 2.3 -1
v 0.8 2.9 -0.2
v 0.8 2.9 -0.3
v 0.8 3.5 -0.2
v 0.8 3.5 -0.3
v 1.5 2.5 -0.3
v 1.5 2.5 -0.6
v 1.5 2.7 -0.3
v 1.5 2.7 -0.6
v 1.5 2.8 -0.7
v 1.5 2.8 -0.9
v 1.5 3.6 -0.7
v 1.5 3.6 -0.9
v 1.6 2.7 -0.2
v 1.6 2.7 -0.7
v 1.6 3.7 -0.2
v 1.6 3.7 -0.7
v 1.9 2.5 0
v 1.9 2.5 -0.2
v 1.9 2.5 -0.3
v 1.9 2.6 0
v 1.9 2.6 -0.3
v 2 2.6 -0.4
v 2 2.6 -0.6
v 2 2.7 -0.4
v 2 2.7 -0.6
v 2 2.8 -0.4
v 2 2.8 -0.6
v 2 2.9 -0.4
v 2 2.9 -0.6
v 2 3 -0.4
v 2 3 -0.6
v 2 3.1 -0.4
v 2 3.1 -0.6
v 2 3.2 -0.4
v 2 3.2 -0.6
v 2 3.3 -0.4
v 2 3.3 -0.5
v 2 3.3 -0.6
v 2.1 2.5 -0.4
v 2.1 2.5 -0.6
v 2.1 2.6 -0.4
v 2.1 2.6 -0.6
v 2.1 2.7 -0.2
v 2.1 2.7 -0.3
v 2.1 2.8 -0.2
v 2.1 2.8 -0.3
v 2.1 2.9 -0.2
v 2.1 2.9 -0.3
v 2.1 3 -0.2
v 2.1 3 -0.3
v 2.1 3.1 -0.2
v 2.1 3.1 -0.3
v 2.1 3.2 -0.2
v 2.1 3.2 -0.3
v 2.4 2.5 -0.3
v 2.4 2.5 -0.7
v 2.4 2.6 -0.4
v 2.4 2.6 -0.7
v 2.4 3.5 -0.4
v 2.4 3.5 -0.7
v 2.4 3.6 -0.3
v 2.4 3.6 -0.7
v 2.8 2 0
v 2.8 2 -0.3
v 2.8 2 -0.7
v 2.8 2 -1
v 2.8 2.3 0
v 2.8 2.3 -0.3
v 2.8 2.3 -0.7
v 2.8 2.3 -1
v 2.8 2.5 0
v 2.8 2.5 -1
v 0 2 0
v 0 2.5 0
v 0.2 2 0
v 0.2 2.3 0
v 0.3 2 0
v 0.3 2.3 0
v 1.5 2.4 0
v 1.5 2.5 0
v 1.6 2.4 0
v 1.6 2.5 0
v 1.6 2.6 0
v 1.8 2.5 0
v 1.8 2.6 0
v 1.9 2.5 0
v 1.9 2.6 0
v 2.5 2 0
v 2.5 2.3 0
v 2.7 2 0
v 2.7 2.3 0
v 2.8 2 0
v 2.8 2.3 0
v 2.8 2.5 0
v 0.6 2.7 -0.2
v 0.6 3.6 -0.2
v 0.6 3.7 -0.2
v 0.8 2.8 -0.2
v 0.8 2.9 -0.2
v 0.8 3.5 -0.2
v 1.4 2.8 -0.2
v 1.4 2.9 -0.2
v 1.4 3.5 -0.2
v 1.5 2.7 -0.2
v 1.5 3.6 -0.2
v 1.6 2.7 -0.2
v 1.6 3.7 -0.2
v 2 2.7 -0.2
v 2 2.8 -0.2
v 2 2.9 -0.2
v 2 3 -0.2
v 2 3.1 -0.2
v 2 3.2 -0.2
v 2.1 2.7 -0.2
v 2.1 2.8 -0.2
v 2.1 2.9 -0.2
v 2.1 3 -0.2
v 2.1 3.1 -0.2
v 2.1 3.2 -0.2
v 0.7 2.5 -0.3
v 0.7 2.7 -0.3
v 0.8 2.9 -0.3
v 0.8 3.5 -0.3
v 1.4 2.9 -0.3
v 1.4 3.5 -0.3
v 1.5 2.5 -0.3
v 1.5 2.7 -0.3
v 1.9 2.5 -0.3
v 1.9 2.6 -0.3
v 1.9 3.3 -0.3
v 1.9 3.4 -0.3
v 1.9 3.5 -0.3
v 1.9 3.6 -0.3
v 2 2.7 -0.3
v 2 2.8 -0.3
v 2 2.9 -0.3
v 2 3 -0.3
v 2 3.1 -0.3
v 2 3.2 -0.3
v 2.1 2.7 -0.3
v 2.1 2.8 -0.3
v 2.1 2.9 -0.3
v 2.1 3 -0.3
v 2.1 3.1 -0.3
v 2.1 3.2 -0.3
v 2.3 2.5 -0.3
v 2.3 2.6 -0.3
v 2.3 3.3 -0.3
v 2.3 3.4 -0.3
v 2.3 3.5 -0.3
v 2.4 2.5 -0.3
v 2.4 3.6 -0.3
v 1.9 3.3 -0.4
v 1.9 3.4 -0.4
v 2.3 3.3 -0.4
v 2.3 3.4 -0.4
v 2 2.6 -0.6
v 2 2.7 -0.6
v 2 2.8 -0.6
v 2 2.9 -0.6
v 2 3 -0.6
v 2 3.1 -0.6
v 2 3.2 -0.6
v 2 3.3 -0.6
v 2.1 2.5 -0.6
v 2.1 2.6 -0.6
v 2.3 2.5 -0.6
v 2.3 2.6 -0.6
v 2.3 2.7 -0.6
v 2.3 2.8 -0.6
v 2.3 2.9 -0.6
v 2.3 3 -0.6
v 2.3 3.1 -0.6
v 2.3 3.2 -0.6
v 2.3 3.3 -0.6
v 0 2 -0.7
v 0 2.3 -0.7
v 0.1 2 -0.7
v 0.1 2.3 -0.7
v 2.7 2 -0.7
v 2.7 2.3 -0.7
v 2.8 2 -0.7
v 2.8 2.3 -0.7
v 0.1 2 -0.9
v 0.1 2.3 -0.9
v 0.2 2 -0.9
v 0.2 2.3 -0.9
v 0.3 2 -0.9
v 0.3 2.3 -0.9
v 2.5 2 -0.9
v 2.5 2.3 -0.9
v 2.7 2 -0.9
v 2.7 2.3 -0.9
v 0.1 2 -0.1
v 0.1 2.3 -0.1
v 0.2 2 -0.1
v 0.2 2.3 -0.1
v 0.3 2 -0.1
v 0.3 2.3 -0.1
v 2.5 2 -0.1
v 2.5 2.3 -0.1
v 2.7 2 -0.1
v 2.7 2.3 -0.1
v 0 2 -0.3
v 0 2.3 -0.3
v 0.1 2 -0.3
v 0.1 2.3 -0.3
v 1.6 2.5 -0.3
v 1.6 2.6 -0.3
v 1.9 2.5 -0.3
v 1.9 2.6 -0.3
v 2.7 2 -0.3
v 2.7 2.3 -0.3
v 2.8 2 -0.3
v 2.8 2.3 -0.3
v 2 2.6 -0.4
v 2 2.7 -0.4
v 2 2.8 -0.4
v 2 2.9 -0.4
v 2 3 -0.4
v 2 3.1 -0.4
v 2 3.2 -0.4
v 2 3.3 -0.4
v 2.1 2.5 -0.4
v 2.1 2.6 -0.4
v 2.1 2.7 -0.4
v 2.1 2.8 -0.4
v 2.1 2.9 -0.4
v 2.1 3 -0.4
v 2.1 3.1 -0.4
v 2.1 3.2 -0.4
v 2.3 2.5 -0.4
v 2.3 2.6 -0.4
v 2.3 3.3 -0.4
v 0.7 2.5 -0.6
v 0.7 2.7 -0.6
v 1.5 2.5 -0.6
v 1.5 2.7 -0.6
v 0.6 2.7 -0.7
v 0.6 3.7 -0.7
v 0.7 2.8 -0.7
v 0.7 3.6 -0.7
v 1.5 2.7 -0.7
v 1.5 2.8 -0.7
v 1.5 3.6 -0.7
v 1.5 3.7 -0.7
v 1.6 2.7 -0.7
v 1.6 3.7 -0.7
v 1.9 2.5 -0.7
v 1.9 2.6 -0.7
v 1.9 3.6 -0.7
v 2 2.5 -0.7
v 2 2.6 -0.7
v 2 2.7 -0.7
v 2 2.8 -0.7
v 2 2.9 -0.7
v 2 3 -0.7
v 2 3.1 -0.7
v 2 3.2 -0.7
v 2 3.5 -0.7
v 2.3 2.7 -0.7
v 2.3 2.8 -0.7
v 2.3 2.9 -0.7
v 2.3 3 -0.7
v 2.3 3.1 -0.7
v 2.3 3.2 -0.7
v 2.4 2.5 -0.7
v 2.4 2.6 -0.7
v 2.4 3.5 -0.7
v 2.4 3.6 -0.7
v 0.7 2.8 -0.9
v 0.7 3.6 -0.9
v 1.5 2.8 -0.9
v 1.5 3.6 -0.9
v 0 2 -1
v 0 2.5 -1
v 0.2 2 -1
v 0.2 2.3 -1
v 0.3 2 -1
v 0.3 2.3 -1
v 2.5 2 -1
v 2.5 2.3 -1
v 2.7 2 -1
v 2.7 2.3 -1
v 2.8 2 -1
v 2.8 2.3 -1
v 2.8 2.5 -1
v 0 2 0
v 0.2 2 0
v 0.3 2 0
v 2.5 2 0
v 2.7 2 0
v 2.8 2 0
v 0.1 2 -0.1
v 0.2 2 -0.1
v 0.3 2 -0.1
v 2.5 2 -0.1
v 2.7 2 -0.1
v 0 2 -0.3
v 0.1 2 -0.3
v 2.7 2 -0.3
v 2.8 2 -0.3
v 0 2 -0.7
v 0.1 2 -0.7
v 2.7 2 -0.7
v 2.8 2 -0.7
v 0.1 2 -0.9
v 0.2 2 -0.9
v 0.3 2 -0.9
v 2.5 2 -0.9
v 2.7 2 -0.9
v 0 2 -1
v 0.2 2 -1
v 0.3 2 -1
v 2.5 2 -1
v 2.7 2 -1
v 2.8 2 -1
v 0.3 2.3 0
v 2.5 2.3 0
v 0.1 2.3 -0.1
v 0.2 2.3 -0.1
v 0.3 2.3 -0.1
v 2.5 2.3 -0.1
v 2.7 2.3 -0.1
v 0 2.3 -0.3
v 0.1 2.3 -0.3
v 2.7 2.3 -0.3
v 2.8 2.3 -0.3
v 0 2.3 -0.7
v 0.1 2.3 -0.7
v 2.7 2.3 -0.7
v 2.8 2.3 -0.7
v 0.1 2.3 -0.9
v 0.2 2.3 -0.9
v 0.3 2.3 -0.9
v 2.5 2.3 -0.9
v 2.7 2.3 -0.9
v 0.3 2.3 -1
v 2.5 2.3 -1
v 0.6 2.7 -0.2
v 1.5 2.7 -0.2
v 1.6 2.7 -0.2
v 2 2.7 -0.2
v 2.1 2.7 -0.2
v 0.7 2.7 -0.3
v 1.5 2.7 -0.3
v 2 2.7 -0.3
v 2.1 2.7 -0.3
v 0.7 2.7 -0.6
v 1.5 2.7 -0.6
v 0.6 2.7 -0.7
v 1.5 2.7 -0.7
v 1.6 2.7 -0.7
v 0.7 2.8 -0.7
v 1.5 2.8 -0.7
v 0.7 2.8 -0.9
v 1.5 2.8 -0.9
v 2 2.9 -0.2
v 2.1 2.9 -0.2
v 2 2.9 -0.3
v 2.1 2.9 -0.3
v 2 3.1 -0.2
v 2.1 3.1 -0.2
v 2 3.1 -0.3
v 2.1 3.1 -0.3
v 2 3.3 -0.4
v 2.3 3.3 -0.4
v 2 3.3 -0.5
v 2.3 3.3 -0.5
v 2 3.3 -0.6
v 2.3 3.3 -0.6
v 1.9 3.4 -0.3
v 2.3 3.4 -0.3
v 1.9 3.4 -0.4
v 2.3 3.4 -0.4
v 0.8 3.5 -0.2
v 1.4 3.5 -0.2
v 0.8 3.5 -0.3
v 1.4 3.5 -0.3
v 0 2.5 0
v 1.5 2.5 0
v 1.6 2.5 0
v 1.9 2.5 0
v 2.8 2.5 0
v 0.2 2.5 -0.2
v 1.5 2.5 -0.2
v 1.6 2.5 -0.2
v 1.9 2.5 -0.2
v 2.6 2.5 -0.2
v 0.7 2.5 -0.3
v 1.5 2.5 -0.3
v 1.6 2.5 -0.3
v 1.9 2.5 -0.3
v 2.3 2.5 -0.3
v 2.4 2.5 -0.3
v 2.1 2.5 -0.4
v 2.3 2.5 -0.4
v 0.7 2.5 -0.6
v 1.5 2.5 -0.6
v 2.1 2.5 -0.6
v 2.3 2.5 -0.6
v 1.9 2.5 -0.7
v 2 2.5 -0.7
v 2.4 2.5 -0.7
v 0.2 2.5 -0.8
v 2.6 2.5 -0.8
v 0 2.5 -1
v 2.8 2.5 -1
v 1.6 2.6 0
v 1.8 2.6 0
v 1.9 2.6 0
v 1.6 2.6 -0.2
v 1.8 2.6 -0.2
v 1.6 2.6 -0.3
v 1.9 2.6 -0.3
v 2 2.6 -0.4
v 2.1 2.6 -0.4
v 2 2.6 -0.6
v 2.1 2.6 -0.6
v 2 2.8 -0.2
v 2.1 2.8 -0.2
v 2 2.8 -0.3
v 2.1 2.8 -0.3
v 0.8 2.9 -0.2
v 1.4 2.9 -0.2
v 0.8 2.9 -0.3
v 1.4 2.9 -0.3
v 2 3 -0.2
v 2.1 3 -0.2
v 2 3 -0.3
v 2.1 3 -0.3
v 2 3.2 -0.2
v 2.1 3.2 -0.2
v 2 3.2 -0.3
v 2.1 3.2 -0.3
v 1.9 3.3 -0.3
v 2.3 3.3 -0.3
v 1.9 3.3 -0.4
v 2.3 3.3 -0.4
v 1.9 3.6 -0.3
v 2.4 3.6 -0.3
v 0.7 3.6 -0.7
v 1.5 3.6 -0.7
v 1.9 3.6 -0.7
v 2.4 3.6 -0.7
v 0.7 3.6 -0.9
v 1.5 3.6 -0.9
v 0.6 3.7 -0.2
v 1.6 3.7 -0.2
v 0.6 3.7 -0.3
v 1.5 3.7 -0.3
v 0.6 3.7 -0.7
v 1.5 3.7 -0.7
v 1.6 3.7 -0.7

# faces
f 5/2/1 2/2/1 1/2/1
f 6/2/1 4/2/1 3/2/1
f 7/2/1 5/2/1 1/2/1
f 7/2/1 6/2/1 5/2/1
f 8/2/1 4/2/1 6/2/1
f 8/2/1 6/2/1 7/2/1
f 11/4/1 10/4/1 9/4/1
f 12/4/1 10/4/1 11/4/1
f 13/5/1 12/5/1 11/5/1
f 14/4/1 10/4/1 12/4/1
f 14/5/1 12/5/1 13/5/1
f 15/4/1 10/4/1 14/4/1
f 18/6/1 17/6/1 16/6/1
f 19/6/1 17/6/1 18/6/1
f 22/6/1 21/6/1 20/6/1
f 23/6/1 21/6/1 22/6/1
f 26/4/1 25/4/1 24/4/1
f 27/4/1 25/4/1 26/4/1
f 31/4/1 29/4/1 28/4/1
f 32/5/1 30/5/1 29/5/1
f 32/4/1 29/4/1 31/4/1
f 33/5/1 30/5/1 32/5/1
f 36/3/1 35/3/1 34/3/1
f 37/3/1 35/3/1 36/3/1
f 38/3/1 35/3/1 37/3/1
f 39/7/1 37/7/1 36/7/1
f 40/7/1 37/7/1 39/7/1
f 41/7/1 37/7/1 40/7/1
f 43/5/1 41/5/1 40/5/1
f 44/7/1 37/7/1 41/7/1
f 44/5/1 41/5/1 43/5/1
f 45/7/1 43/7/1 42/7/1
f 45/7/1 44/7/1 43/7/1
f 46/5/1 38/5/1 37/5/1
f 46/7/1 44/7/1 45/7/1
f 46/7/1 37/7/1 44/7/1
f 47/5/1 46/5/1 45/5/1
f 48/5/1 38/5/1 46/5/1
f 48/5/1 46/5/1 47/5/1
f 51/3/1 50/3/1 49/3/1
f 52/3/1 50/3/1 51/3/1
f 55/3/1 54/3/1 53/3/1
f 56/3/1 54/3/1 55/3/1
f 59/3/1 58/3/1 57/3/1
f 60/3/1 58/3/1 59/3/1
f 63/5/1 62/5/1 61/5/1
f 64/5/1 62/5/1 63/5/1
f 65/7/1 64/7/1 63/7/1
f 66/7/1 65/7/1 63/7/1
f 67/7/1 66/7/1 63/7/1
f 68/7/1 67/7/1 63/7/1
f 69/7/1 68/7/1 63/7/1
f 70/7/1 69/7/1 63/7/1
f 72/7/1 70/7/1 63/7/1
f 73/7/1 70/7/1 72/7/1
f 74/7/1 70/7/1 73/7/1
f 75/5/1 72/5/1 71/5/1
f 76/5/1 72/5/1 75/5/1
f 81/2/1 78/2/1 77/2/1
f 82/2/1 78/2/1 81/2/1
f 83/2/1 80/2/1 79/2/1
f 84/2/1 80/2/1 83/2/1
f 89/3/1 86/3/1 85/3/1
f 90/3/1 86/3/1 89/3/1
f 91/3/1 88/3/1 87/3/1
f 92/3/1 88/3/1 91/3/1
f 93/2/2 94/2/2 97/2/2
f 97/2/2 94/2/2 98/2/2
f 95/2/2 96/2/2 99/2/2
f 99/2/2 96/2/2 100/2/2
f 101/3/2 102/3/2 105/3/2
f 105/3/2 102/3/2 106/3/2
f 103/3/2 104/3/2 107/3/2
f 107/3/2 104/3/2 108/3/2
f 109/4/2 110/4/2 111/4/2
f 111/4/2 110/4/2 112/4/2
f 113/6/2 114/6/2 115/6/2
f 115/6/2 114/6/2 116/6/2
f 117/6/2 118/6/2 119/6/2
f 119/6/2 118/6/2 120/6/2
f 121/5/2 122/5/2 123/5/2
f 123/5/2 122/5/2 124/5/2
f 125/5/2 126/5/2 128/5/2
f 126/5/2 127/5/2 128/5/2
f 128/5/2 127/5/2 129/5/2
f 130/7/2 131/7/2 132/7/2
f 132/7/2 131/7/2 133/7/2
f 132/7/2 133/7/2 134/7/2
f 134/7/2 133/7/2 135/7/2
f 134/7/2 135/7/2 136/7/2
f 136/7/2 135/7/2 137/7/2
f 136/7/2 137/7/2 138/7/2
f 138/7/2 137/7/2 139/7/2
f 138/7/2 139/7/2 140/7/2
f 140/7/2 139/7/2 141/7/2
f 140/7/2 141/7/2 142/7/2
f 142/7/2 141/7/2 143/7/2
f 142/7/2 143/7/2 144/7/2
f 144/7/2 143/7/2 145/7/2
f 145/7/2 143/7/2 146/7/2
f 147/7/2 148/7/2 149/7/2
f 149/7/2 148/7/2 150/7/2
f 151/3/2 152/3/2 153/3/2
f 153/3/2 152/3/2 154/3/2
f 155/3/2 156/3/2 157/3/2
f 157/3/2 156/3/2 158/3/2
f 159/3/2 160/3/2 161/3/2
f 161/3/2 160/3/2 162/3/2
f 163/5/2 164/5/2 165/5/2
f 165/5/2 164/5/2 166/5/2
f 163/5/2 165/5/2 167/5/2
f 165/7/2 166/7/2 167/7/2
f 167/7/2 166/7/2 168/7/2
f 163/5/2 167/5/2 169/5/2
f 167/5/2 168/5/2 169/5/2
f 169/5/2 168/5/2 170/5/2
f 171/3/2 172/3/2 175/3/2
f 175/3/2 172/3/2 176/3/2
f 173/3/2 174/3/2 177/3/2
f 177/3/2 174/3/2 178/3/2
f 175/2/2 176/2/2 179/2/2
f 176/2/2 177/2/2 179/2/2
f 177/2/2 178/2/2 179/2/2
f 179/2/2 178/2/2 180/2/2
f 183/2/3 182/2/3 181/2/3
f 184/2/3 182/2/3 183/2/3
f 185/3/3 184/3/3 183/3/3
f 186/2/3 182/2/3 184/2/3
f 186/3/3 184/3/3 185/3/3
f 187/2/3 182/2/3 186/2/3
f 188/2/3 182/2/3 187/2/3
f 189/2/3 187/2/3 186/2/3
f 189/1/3 188/1/3 187/1/3
f 190/1/3 188/1/3 189/1/3
f 192/2/3 190/2/3 189/2/3
f 192/4/3 191/4/3 190/4/3
f 193/4/3 191/4/3 192/4/3
f 194/2/3 192/2/3 189/2/3
f 194/5/3 193/5/3 192/5/3
f 195/5/3 193/5/3 194/5/3
f 197/2/3 189/2/3 186/2/3
f 197/2/3 194/2/3 189/2/3
f 198/2/3 197/2/3 196/2/3
f 199/2/3 194/2/3 197/2/3
f 199/2/3 197/2/3 198/2/3
f 200/3/3 199/3/3 198/3/3
f 201/2/3 194/2/3 199/2/3
f 201/3/3 199/3/3 200/3/3
f 202/2/3 194/2/3 201/2/3
f 206/4/3 204/4/3 203/4/3
f 207/4/3 204/4/3 206/4/3
f 208/4/3 204/4/3 207/4/3
f 209/4/3 206/4/3 203/4/3
f 209/5/3 207/5/3 206/5/3
f 210/5/3 207/5/3 209/5/3
f 211/4/3 204/4/3 208/4/3
f 212/4/3 210/4/3 209/4/3
f 212/4/3 211/4/3 210/4/3
f 212/4/3 209/4/3 203/4/3
f 213/5/3 205/5/3 204/5/3
f 213/4/3 211/4/3 212/4/3
f 213/4/3 204/4/3 211/4/3
f 214/5/3 213/5/3 212/5/3
f 215/5/3 205/5/3 213/5/3
f 215/5/3 213/5/3 214/5/3
f 222/3/3 217/3/3 216/3/3
f 223/3/3 217/3/3 222/3/3
f 224/3/3 219/3/3 218/3/3
f 225/3/3 219/3/3 224/3/3
f 226/3/3 221/3/3 220/3/3
f 227/3/3 221/3/3 226/3/3
f 232/1/3 231/1/3 230/1/3
f 233/1/3 231/1/3 232/1/3
f 234/6/3 229/6/3 228/6/3
f 235/6/3 229/6/3 234/6/3
f 242/7/3 238/7/3 237/7/3
f 243/7/3 238/7/3 242/7/3
f 244/7/3 238/7/3 243/7/3
f 245/7/3 238/7/3 244/7/3
f 246/7/3 238/7/3 245/7/3
f 247/7/3 238/7/3 246/7/3
f 248/7/3 242/7/3 237/7/3
f 249/7/3 244/7/3 243/7/3
f 250/7/3 244/7/3 249/7/3
f 251/7/3 246/7/3 245/7/3
f 252/7/3 246/7/3 251/7/3
f 253/7/3 238/7/3 247/7/3
f 254/3/3 237/3/3 236/3/3
f 255/7/3 253/7/3 252/7/3
f 255/3/3 237/3/3 254/3/3
f 255/7/3 252/7/3 251/7/3
f 255/7/3 250/7/3 249/7/3
f 255/7/3 248/7/3 237/7/3
f 255/7/3 251/7/3 250/7/3
f 255/7/3 249/7/3 248/7/3
f 256/7/3 238/7/3 253/7/3
f 256/7/3 253/7/3 255/7/3
f 257/7/3 240/7/3 239/7/3
f 258/5/3 241/5/3 240/5/3
f 258/7/3 240/7/3 257/7/3
f 259/5/3 256/5/3 255/5/3
f 259/5/3 257/5/3 256/5/3
f 259/5/3 258/5/3 257/5/3
f 259/5/3 255/5/3 254/5/3
f 260/5/3 241/5/3 258/5/3
f 260/5/3 258/5/3 259/5/3
f 263/5/3 262/5/3 261/5/3
f 264/5/3 262/5/3 263/5/3
f 274/7/3 266/7/3 265/7/3
f 275/5/3 274/5/3 273/5/3
f 276/7/3 266/7/3 274/7/3
f 276/5/3 274/5/3 275/5/3
f 277/3/3 267/3/3 266/3/3
f 277/7/3 266/7/3 276/7/3
f 278/7/3 268/7/3 267/7/3
f 278/3/3 267/3/3 277/3/3
f 279/3/3 269/3/3 268/3/3
f 279/7/3 268/7/3 278/7/3
f 280/7/3 270/7/3 269/7/3
f 280/3/3 269/3/3 279/3/3
f 281/3/3 271/3/3 270/3/3
f 281/7/3 270/7/3 280/7/3
f 282/7/3 272/7/3 271/7/3
f 282/3/3 271/3/3 281/3/3
f 283/7/3 272/7/3 282/7/3
f 286/2/3 285/2/3 284/2/3
f 287/2/3 285/2/3 286/2/3
f 290/3/3 289/3/3 288/3/3
f 291/3/3 289/3/3 290/3/3
f 294/2/3 293/2/3 292/2/3
f 295/2/3 293/2/3 294/2/3
f 296/3/3 295/3/3 294/3/3
f 297/3/3 295/3/3 296/3/3
f 300/2/3 299/2/3 298/2/3
f 301/2/3 299/2/3 300/2/3
f 302/2/4 303/2/4 304/2/4
f 304/2/4 303/2/4 305/2/4
f 304/3/4 305/3/4 306/3/4
f 306/3/4 305/3/4 307/3/4
f 308/2/4 309/2/4 310/2/4
f 310/2/4 309/2/4 311/2/4
f 312/2/4 313/2/4 314/2/4
f 314/2/4 313/2/4 315/2/4
f 316/5/4 317/5/4 318/5/4
f 318/5/4 317/5/4 319/5/4
f 320/3/4 321/3/4 322/3/4
f 322/3/4 321/3/4 323/3/4
f 324/7/4 325/7/4 333/7/4
f 325/3/4 326/3/4 334/3/4
f 333/7/4 325/7/4 334/7/4
f 326/7/4 327/7/4 335/7/4
f 334/3/4 326/3/4 335/3/4
f 327/3/4 328/3/4 336/3/4
f 335/7/4 327/7/4 336/7/4
f 328/7/4 329/7/4 337/7/4
f 336/3/4 328/3/4 337/3/4
f 329/3/4 330/3/4 338/3/4
f 337/7/4 329/7/4 338/7/4
f 330/7/4 331/7/4 339/7/4
f 338/3/4 330/3/4 339/3/4
f 332/3/4 333/3/4 340/3/4
f 337/7/4 338/7/4 341/7/4
f 340/3/4 333/3/4 341/3/4
f 333/7/4 334/7/4 341/7/4
f 338/7/4 339/7/4 341/7/4
f 334/7/4 335/7/4 341/7/4
f 336/7/4 337/7/4 341/7/4
f 335/7/4 336/7/4 341/7/4
f 339/7/4 331/7/4 342/7/4
f 341/7/4 339/7/4 342/7/4
f 343/6/4 344/6/4 345/6/4
f 345/6/4 344/6/4 346/6/4
f 347/4/4 348/4/4 349/4/4
f 349/4/4 348/4/4 350/4/4
f 347/4/4 349/4/4 351/4/4
f 351/4/4 349/4/4 352/4/4
f 350/4/4 348/4/4 353/4/4
f 353/4/4 348/4/4 354/4/4
f 351/5/4 352/5/4 355/5/4
f 352/5/4 353/5/4 355/5/4
f 353/5/4 354/5/4 355/5/4
f 355/5/4 354/5/4 356/5/4
f 357/3/4 358/3/4 360/3/4
f 358/5/4 359/5/4 361/5/4
f 360/3/4 358/3/4 361/3/4
f 361/5/4 359/5/4 362/5/4
f 362/5/4 359/5/4 363/5/4
f 363/5/4 359/5/4 364/5/4
f 364/5/4 359/5/4 365/5/4
f 365/5/4 359/5/4 366/5/4
f 366/5/4 359/5/4 367/5/4
f 367/5/4 359/5/4 368/5/4
f 361/7/4 362/7/4 369/7/4
f 362/3/4 363/3/4 369/3/4
f 363/7/4 364/7/4 370/7/4
f 369/3/4 363/3/4 370/3/4
f 364/3/4 365/3/4 371/3/4
f 370/7/4 364/7/4 371/7/4
f 365/7/4 366/7/4 372/7/4
f 371/3/4 365/3/4 372/3/4
f 366/3/4 367/3/4 373/3/4
f 372/7/4 366/7/4 373/7/4
f 367/7/4 368/7/4 374/7/4
f 373/3/4 367/3/4 374/3/4
f 360/5/4 361/5/4 375/5/4
f 372/7/4 373/7/4 376/7/4
f 375/5/4 361/5/4 376/5/4
f 361/7/4 369/7/4 376/7/4
f 373/7/4 374/7/4 376/7/4
f 371/7/4 372/7/4 376/7/4
f 370/7/4 371/7/4 376/7/4
f 369/7/4 370/7/4 376/7/4
f 374/7/4 368/7/4 377/7/4
f 376/7/4 374/7/4 377/7/4
f 368/5/4 359/5/4 377/5/4
f 377/5/4 359/5/4 378/5/4
f 379/6/4 380/6/4 381/6/4
f 381/6/4 380/6/4 382/6/4
f 383/2/4 384/2/4 385/2/4
f 385/2/4 384/2/4 386/2/4
f 385/3/4 386/3/4 387/3/4
f 386/2/4 384/2/4 388/2/4
f 387/3/4 386/3/4 388/3/4
f 388/2/4 384/2/4 390/2/4
f 389/2/4 390/2/4 391/2/4
f 390/2/4 384/2/4 392/2/4
f 391/2/4 390/2/4 392/2/4
f 391/3/4 392/3/4 393/3/4
f 392/2/4 384/2/4 394/2/4
f 393/3/4 392/3/4 394/3/4
f 394/2/4 384/2/4 395/2/4
f 402/2/5 397/2/5 396/2/5
f 403/3/5 398/3/5 397/3/5
f 403/2/5 397/2/5 402/2/5
f 404/3/5 398/3/5 403/3/5
f 405/2/5 400/2/5 399/2/5
f 406/3/5 401/3/5 400/3/5
f 406/2/5 400/2/5 405/2/5
f 407/2/5 402/2/5 396/2/5
f 408/2/5 402/2/5 407/2/5
f 409/3/5 401/3/5 406/3/5
f 410/3/5 401/3/5 409/3/5
f 415/2/5 412/2/5 411/2/5
f 419/3/5 414/3/5 413/3/5
f 420/2/5 415/2/5 411/2/5
f 420/2/5 416/2/5 415/2/5
f 421/3/5 417/3/5 416/3/5
f 421/2/5 416/2/5 420/2/5
f 422/3/5 417/3/5 421/3/5
f 423/2/5 419/2/5 418/2/5
f 424/3/5 414/3/5 419/3/5
f 424/2/5 419/2/5 423/2/5
f 425/3/5 414/3/5 424/3/5
f 430/2/5 427/2/5 426/2/5
f 431/2/5 427/2/5 430/2/5
f 434/2/5 429/2/5 428/2/5
f 434/2/5 432/2/5 431/2/5
f 434/2/5 431/2/5 430/2/5
f 434/2/5 430/2/5 429/2/5
f 435/2/5 432/2/5 434/2/5
f 437/2/5 434/2/5 433/2/5
f 437/2/5 436/2/5 435/2/5
f 437/2/5 435/2/5 434/2/5
f 438/2/5 436/2/5 437/2/5
f 439/2/5 436/2/5 438/2/5
f 440/2/5 436/2/5 439/2/5
f 441/2/5 439/2/5 438/2/5
f 442/2/5 439/2/5 441/2/5
f 443/2/5 439/2/5 442/2/5
f 444/2/5 439/2/5 443/2/5
f 445/2/5 439/2/5 444/2/5
f 446/2/5 444/2/5 443/2/5
f 447/2/5 444/2/5 446/2/5
f 453/4/5 449/4/5 448/4/5
f 454/5/5 450/5/5 449/5/5
f 454/4/5 449/4/5 453/4/5
f 455/3/5 452/3/5 451/3/5
f 456/3/5 452/3/5 455/3/5
f 457/4/5 453/4/5 448/4/5
f 458/5/5 450/5/5 454/5/5
f 459/4/5 457/4/5 448/4/5
f 459/4/5 458/4/5 457/4/5
f 460/5/5 450/5/5 458/5/5
f 460/4/5 458/4/5 459/4/5
f 461/5/5 450/5/5 460/5/5
f 464/6/5 463/6/5 462/6/5
f 465/6/5 463/6/5 464/6/5
f 468/3/5 467/3/5 466/3/5
f 469/3/5 467/3/5 468/3/5
f 472/3/5 471/3/5 470/3/5
f 473/3/5 471/3/5 472/3/5
f 476/5/5 475/5/5 474/5/5
f 477/5/5 475/5/5 476/5/5
f 478/7/5 477/7/5 476/7/5
f 479/7/5 477/7/5 478/7/5
f 482/7/5 481/7/5 480/7/5
f 483/7/5 481/7/5 482/7/5
f 486/4/5 485/4/5 484/4/5
f 487/4/5 485/4/5 486/4/5
f 488/2/6 489/2/6 493/2/6
f 489/1/6 490/1/6 494/1/6
f 493/2/6 489/2/6 494/2/6
f 494/1/6 490/1/6 495/1/6
f 491/2/6 492/2/6 496/2/6
f 496/2/6 492/2/6 497/2/6
f 494/1/6 495/1/6 498/1/6
f 493/1/6 494/1/6 498/1/6
f 498/1/6 495/1/6 499/1/6
f 499/1/6 495/1/6 500/1/6
f 496/1/6 497/1/6 501/1/6
f 501/1/6 497/1/6 502/1/6
f 502/1/6 497/1/6 503/1/6
f 493/1/6 498/1/6 506/1/6
f 499/1/6 500/1/6 507/1/6
f 500/1/6 501/1/6 507/1/6
f 504/1/6 505/1/6 508/1/6
f 508/1/6 505/1/6 509/1/6
f 506/1/6 507/1/6 510/1/6
f 507/1/6 501/1/6 510/1/6
f 503/1/6 497/1/6 512/1/6
f 488/2/6 493/2/6 513/2/6
f 511/1/6 512/1/6 513/1/6
f 493/1/6 506/1/6 513/1/6
f 510/1/6 511/1/6 513/1/6
f 506/1/6 510/1/6 513/1/6
f 497/2/6 492/2/6 514/2/6
f 513/1/6 512/1/6 514/1/6
f 512/1/6 497/1/6 514/1/6
f 488/2/6 513/2/6 515/2/6
f 513/2/6 514/2/6 515/2/6
f 514/2/6 492/2/6 516/2/6
f 515/2/6 514/2/6 516/2/6
f 517/4/6 518/4/6 520/4/6
f 518/5/6 519/5/6 521/5/6
f 520/4/6 518/4/6 521/4/6
f 520/5/6 521/5/6 522/5/6
f 521/5/6 519/5/6 523/5/6
f 522/5/6 521/5/6 523/5/6
f 524/7/6 525/7/6 526/7/6
f 526/7/6 525/7/6 527/7/6
f 528/3/6 529/3/6 530/3/6
f 530/3/6 529/3/6 531/3/6
f 532/5/6 533/5/6 534/5/6
f 534/5/6 533/5/6 535/5/6
f 536/3/6 537/3/6 538/3/6
f 538/3/6 537/3/6 539/3/6
f 540/3/6 541/3/6 542/3/6
f 542/3/6 541/3/6 543/3/6
f 544/7/6 545/7/6 546/7/6
f 546/7/6 545/7/6 547/7/6
f 548/5/6 549/5/6 552/5/6
f 552/5/6 549/5/6 553/5/6
f 550/6/6 551/6/6 554/6/6
f 554/6/6 551/6/6 555/6/6
f 556/5/6 557/5/6 558/5/6
f 558/5/6 557/5/6 559/5/6
f 558/4/6 559/4/6 560/4/6
f 559/5/6 557/5/6 561/5/6
f 560/4/6 559/4/6 561/4/6
f 561/5/6 557/5/6 562/5/6
