# MagicaVoxel @ Ephtracy

# group
o 

# material
mtllib Floor-2.mtl
usemtl palette

# normals
vn -1 0 0
vn 1 0 0
vn 0 1 0
vn 0 -1 0
vn 0 0 1
vn 0 0 -1

# texcoords
vt 0.00195313 0.5
vt 0.00585938 0.5
vt 0.00976563 0.5
vt 0.0136719 0.5
vt 0.0175781 0.5
vt 0.0214844 0.5
vt 0.0253906 0.5
vt 0.0292969 0.5
vt 0.0332031 0.5
vt 0.0371094 0.5
vt 0.0410156 0.5
vt 0.0449219 0.5

# verts
v 12 0.2 -3.2
v 12 0.1 -3.2
v 12 0.3 -3.3
v 12 0.2 -3.3
v 12 0.3 -3.7
v 12 0.2 -3.7
v 12 0.3 -3.8
v 12 0.2 -3.8
v 12 0.3 -3.9
v 12 0.2 -3.9
v 12 0.3 -4
v 12 0.2 -4
v 12 0.3 -4.1
v 12 0.2 -4.1
v 12 0.3 -4.3
v 12 0.2 -4.3
v 12 0.3 -4.7
v 12 0.2 -4.7
v 12 0.3 -4.8
v 12 0.2 -4.8
v 12 0.1 -4.8
v 13.6 0.3 -4.1
v 13.6 0.2 -4.1
v 13.6 0.3 -4.3
v 13.6 0.2 -4.3
v 13.6 0.3 -4.4
v 13.6 0.2 -4.4
v 13.6 0.3 -4.5
v 13.6 0.2 -4.5
v 13.6 0.3 -4.6
v 13.6 0.2 -4.6
v 13.6 0.3 -4.7
v 13.6 0.2 -4.7
v 13.6 0.3 -4.8
v 13.6 0.2 -4.8
v 13.5 0.3 -4.1
v 13.5 0.2 -4.1
v 13.5 0.3 -4.8
v 13.5 0.2 -4.8
v 15.1 0.3 -3.3
v 15.1 0.2 -3.3
v 15.1 0.3 -4
v 15.1 0.2 -4
v 15.2 0.2 -3.2
v 15.2 0.1 -3.2
v 15.2 0.3 -4.1
v 15.2 0.2 -4.1
v 15.2 0.3 -4.2
v 15.2 0.2 -4.2
v 15.2 0.3 -4.3
v 15.2 0.2 -4.3
v 15.2 0.3 -4.4
v 15.2 0.2 -4.4
v 15.2 0.3 -4.5
v 15.2 0.2 -4.5
v 15.2 0.3 -4.6
v 15.2 0.2 -4.6
v 15.2 0.3 -4.7
v 15.2 0.2 -4.7
v 15.2 0.3 -4.8
v 15.2 0.2 -4.8
v 15.2 0.1 -4.8
v 12 0.3 -3.3
v 12 0.3 -3.7
v 12 0.3 -3.8
v 12 0.3 -3.9
v 12 0.3 -4
v 12 0.3 -4.1
v 12 0.3 -4.3
v 12 0.3 -4.7
v 12 0.3 -4.8
v 12.1 0.3 -3.3
v 12.1 0.3 -3.4
v 12.1 0.3 -3.8
v 12.1 0.3 -3.9
v 12.1 0.3 -4.5
v 12.1 0.3 -4.6
v 12.2 0.3 -3.6
v 12.2 0.3 -3.7
v 12.2 0.3 -4.4
v 12.2 0.3 -4.5
v 12.3 0.3 -3.5
v 12.3 0.3 -3.6
v 12.3 0.3 -3.7
v 12.3 0.3 -4.3
v 12.3 0.3 -4.4
v 12.3 0.3 -4.5
v 12.3 0.3 -4.6
v 12.4 0.3 -3.3
v 12.4 0.3 -3.4
v 12.4 0.3 -3.5
v 12.4 0.3 -3.6
v 12.4 0.3 -4.1
v 12.4 0.3 -4.2
v 12.5 0.3 -3.4
v 12.5 0.3 -3.5
v 12.5 0.3 -3.6
v 12.5 0.3 -3.7
v 12.5 0.3 -3.8
v 12.5 0.3 -4.1
v 12.5 0.3 -4.2
v 12.6 0.3 -3.4
v 12.6 0.3 -3.5
v 12.6 0.3 -4.2
v 12.6 0.3 -4.3
v 12.6 0.3 -4.4
v 12.6 0.3 -4.5
v 12.7 0.3 -3.5
v 12.7 0.3 -3.6
v 12.7 0.3 -3.7
v 12.7 0.3 -3.8
v 12.9 0.3 -4.2
v 12.9 0.3 -4.3
v 12.9 0.3 -4.4
v 12.9 0.3 -4.5
v 12.9 0.3 -4.6
v 12.9 0.3 -4.7
v 13 0.3 -3.6
v 13 0.3 -3.7
v 13 0.3 -3.8
v 13 0.3 -4.2
v 13 0.3 -4.3
v 13 0.3 -4.6
v 13 0.3 -4.7
v 13.1 0.3 -3.3
v 13.1 0.3 -3.4
v 13.1 0.3 -3.5
v 13.1 0.3 -4.6
v 13.1 0.3 -4.7
v 13.2 0.3 -3.5
v 13.2 0.3 -3.6
v 13.2 0.3 -3.8
v 13.2 0.3 -3.9
v 13.2 0.3 -4.1
v 13.2 0.3 -4.2
v 13.2 0.3 -4.3
v 13.3 0.3 -3.5
v 13.3 0.3 -3.6
v 13.3 0.3 -4.1
v 13.3 0.3 -4.2
v 13.3 0.3 -4.4
v 13.3 0.3 -4.6
v 13.3 0.3 -4.7
v 13.4 0.3 -3.6
v 13.4 0.3 -3.7
v 13.4 0.3 -3.8
v 13.4 0.3 -4.1
v 13.4 0.3 -4.2
v 13.4 0.3 -4.5
v 13.4 0.3 -4.6
v 13.4 0.3 -4.7
v 13.5 0.3 -3.5
v 13.5 0.3 -3.6
v 13.5 0.3 -4.1
v 13.5 0.3 -4.8
v 13.6 0.3 -3.7
v 13.6 0.3 -3.8
v 13.6 0.3 -3.9
v 13.6 0.3 -4.1
v 13.6 0.3 -4.3
v 13.6 0.3 -4.4
v 13.6 0.3 -4.5
v 13.6 0.3 -4.6
v 13.6 0.3 -4.7
v 13.6 0.3 -4.8
v 13.7 0.3 -3.3
v 13.7 0.3 -3.4
v 13.7 0.3 -4.1
v 13.7 0.3 -4.2
v 13.7 0.3 -4.5
v 13.7 0.3 -4.6
v 13.8 0.3 -3.6
v 13.8 0.3 -3.7
v 13.8 0.3 -3.8
v 13.8 0.3 -3.9
v 13.8 0.3 -4.2
v 13.8 0.3 -4.3
v 13.9 0.3 -3.3
v 13.9 0.3 -3.4
v 13.9 0.3 -3.5
v 13.9 0.3 -3.6
v 13.9 0.3 -3.7
v 13.9 0.3 -4.2
v 13.9 0.3 -4.3
v 13.9 0.3 -4.4
v 13.9 0.3 -4.5
v 14 0.3 -3.6
v 14 0.3 -3.7
v 14 0.3 -3.8
v 14 0.3 -4.2
v 14 0.3 -4.3
v 14 0.3 -4.6
v 14 0.3 -4.7
v 14.1 0.3 -3.4
v 14.1 0.3 -3.5
v 14.1 0.3 -3.7
v 14.1 0.3 -3.8
v 14.1 0.3 -4.1
v 14.1 0.3 -4.2
v 14.2 0.3 -3.5
v 14.2 0.3 -3.6
v 14.2 0.3 -3.8
v 14.2 0.3 -3.9
v 14.3 0.3 -3.3
v 14.3 0.3 -3.4
v 14.3 0.3 -3.5
v 14.3 0.3 -3.6
v 14.3 0.3 -3.7
v 14.3 0.3 -3.8
v 14.3 0.3 -3.9
v 14.4 0.3 -3.7
v 14.4 0.3 -3.8
v 14.4 0.3 -4.1
v 14.4 0.3 -4.2
v 14.4 0.3 -4.3
v 14.4 0.3 -4.5
v 14.4 0.3 -4.6
v 14.5 0.3 -3.3
v 14.5 0.3 -3.4
v 14.5 0.3 -3.5
v 14.6 0.3 -3.4
v 14.6 0.3 -3.5
v 14.6 0.3 -4.2
v 14.6 0.3 -4.3
v 14.6 0.3 -4.6
v 14.6 0.3 -4.7
v 14.7 0.3 -3.5
v 14.7 0.3 -3.6
v 14.7 0.3 -3.7
v 14.7 0.3 -4.1
v 14.7 0.3 -4.2
v 14.8 0.3 -3.4
v 14.8 0.3 -3.5
v 14.8 0.3 -3.7
v 14.8 0.3 -3.8
v 14.8 0.3 -3.9
v 14.8 0.3 -4.1
v 14.8 0.3 -4.2
v 14.8 0.3 -4.3
v 14.8 0.3 -4.5
v 14.8 0.3 -4.6
v 14.8 0.3 -4.7
v 14.9 0.3 -4.2
v 14.9 0.3 -4.3
v 14.9 0.3 -4.4
v 14.9 0.3 -4.5
v 15 0.3 -3.3
v 15 0.3 -3.4
v 15 0.3 -3.5
v 15 0.3 -3.6
v 15 0.3 -3.7
v 15 0.3 -3.8
v 15 0.3 -3.9
v 15 0.3 -4.1
v 15 0.3 -4.2
v 15 0.3 -4.3
v 15 0.3 -4.4
v 15.1 0.3 -3.3
v 15.1 0.3 -4
v 15.1 0.3 -4.1
v 15.1 0.3 -4.2
v 15.1 0.3 -4.3
v 15.1 0.3 -4.4
v 15.2 0.3 -4.1
v 15.2 0.3 -4.2
v 15.2 0.3 -4.3
v 15.2 0.3 -4.4
v 15.2 0.3 -4.5
v 15.2 0.3 -4.6
v 15.2 0.3 -4.7
v 15.2 0.3 -4.8
v 12 0.2 -3.2
v 12 0.2 -3.3
v 12 0.2 -4
v 12 0.2 -4.1
v 12.1 0.2 -3.3
v 12.4 0.2 -3.3
v 12.4 0.2 -4.1
v 12.5 0.2 -4.1
v 13.1 0.2 -3.3
v 13.2 0.2 -4.1
v 13.3 0.2 -4.1
v 13.4 0.2 -4.1
v 13.5 0.2 -4.1
v 13.5 0.2 -4.8
v 13.6 0.2 -4.1
v 13.6 0.2 -4.3
v 13.6 0.2 -4.4
v 13.6 0.2 -4.5
v 13.6 0.2 -4.6
v 13.6 0.2 -4.7
v 13.6 0.2 -4.8
v 13.7 0.2 -3.3
v 13.7 0.2 -4.1
v 13.9 0.2 -3.3
v 14.1 0.2 -4.1
v 14.3 0.2 -3.3
v 14.4 0.2 -4.1
v 14.5 0.2 -3.3
v 14.7 0.2 -4.1
v 14.8 0.2 -4.1
v 15 0.2 -3.3
v 15 0.2 -4.1
v 15.1 0.2 -3.3
v 15.1 0.2 -4
v 15.1 0.2 -4.1
v 15.2 0.2 -3.2
v 15.2 0.2 -4.1
v 12 0.1 -3.2
v 12 0.1 -4.8
v 15.2 0.1 -3.2
v 15.2 0.1 -4.8
v 12 0.2 -3.2
v 15.2 0.2 -3.2
v 12 0.1 -3.2
v 15.2 0.1 -3.2
v 12 0.3 -3.3
v 12.1 0.3 -3.3
v 12.4 0.3 -3.3
v 13.1 0.3 -3.3
v 13.7 0.3 -3.3
v 13.9 0.3 -3.3
v 14.3 0.3 -3.3
v 14.5 0.3 -3.3
v 15 0.3 -3.3
v 15.1 0.3 -3.3
v 12 0.2 -3.3
v 12.1 0.2 -3.3
v 12.4 0.2 -3.3
v 13.1 0.2 -3.3
v 13.7 0.2 -3.3
v 13.9 0.2 -3.3
v 14.3 0.2 -3.3
v 14.5 0.2 -3.3
v 15 0.2 -3.3
v 15.1 0.2 -3.3
v 12 0.3 -4.1
v 12.4 0.3 -4.1
v 12.5 0.3 -4.1
v 13.2 0.3 -4.1
v 13.3 0.3 -4.1
v 13.4 0.3 -4.1
v 13.5 0.3 -4.1
v 13.6 0.3 -4.1
v 13.7 0.3 -4.1
v 14.1 0.3 -4.1
v 14.4 0.3 -4.1
v 14.7 0.3 -4.1
v 14.8 0.3 -4.1
v 15 0.3 -4.1
v 15.1 0.3 -4.1
v 15.2 0.3 -4.1
v 12 0.2 -4.1
v 12.4 0.2 -4.1
v 12.5 0.2 -4.1
v 13.2 0.2 -4.1
v 13.3 0.2 -4.1
v 13.4 0.2 -4.1
v 13.5 0.2 -4.1
v 13.6 0.2 -4.1
v 13.7 0.2 -4.1
v 14.1 0.2 -4.1
v 14.4 0.2 -4.1
v 14.7 0.2 -4.1
v 14.8 0.2 -4.1
v 15 0.2 -4.1
v 15.1 0.2 -4.1
v 15.2 0.2 -4.1
v 12 0.3 -4
v 15.1 0.3 -4
v 12 0.2 -4
v 15.1 0.2 -4
v 12 0.3 -4.8
v 13.5 0.3 -4.8
v 13.6 0.3 -4.8
v 15.2 0.3 -4.8
v 12 0.2 -4.8
v 13.5 0.2 -4.8
v 13.6 0.2 -4.8
v 15.2 0.2 -4.8
v 12 0.1 -4.8
v 15.2 0.1 -4.8

# faces
f 4/1/1 2/1/1 1/1/1
f 5/2/1 4/2/1 3/2/1
f 6/1/1 2/1/1 4/1/1
f 6/2/1 4/2/1 5/2/1
f 7/3/1 6/3/1 5/3/1
f 8/1/1 2/1/1 6/1/1
f 8/3/1 6/3/1 7/3/1
f 9/2/1 8/2/1 7/2/1
f 10/1/1 2/1/1 8/1/1
f 10/2/1 8/2/1 9/2/1
f 11/6/1 10/6/1 9/6/1
f 12/1/1 2/1/1 10/1/1
f 12/6/1 10/6/1 11/6/1
f 14/1/1 2/1/1 12/1/1
f 15/4/1 14/4/1 13/4/1
f 16/1/1 2/1/1 14/1/1
f 16/4/1 14/4/1 15/4/1
f 17/2/1 16/2/1 15/2/1
f 18/1/1 2/1/1 16/1/1
f 18/2/1 16/2/1 17/2/1
f 19/6/1 18/6/1 17/6/1
f 20/1/1 2/1/1 18/1/1
f 20/6/1 18/6/1 19/6/1
f 21/1/1 2/1/1 20/1/1
f 24/3/1 23/3/1 22/3/1
f 25/3/1 23/3/1 24/3/1
f 26/4/1 25/4/1 24/4/1
f 27/4/1 25/4/1 26/4/1
f 28/5/1 27/5/1 26/5/1
f 29/5/1 27/5/1 28/5/1
f 30/12/1 29/12/1 28/12/1
f 31/12/1 29/12/1 30/12/1
f 32/7/1 31/7/1 30/7/1
f 33/7/1 31/7/1 32/7/1
f 34/6/1 33/6/1 32/6/1
f 35/6/1 33/6/1 34/6/1
f 36/6/2 37/6/2 38/6/2
f 38/6/2 37/6/2 39/6/2
f 40/6/2 41/6/2 42/6/2
f 42/6/2 41/6/2 43/6/2
f 44/1/2 45/1/2 47/1/2
f 46/2/2 47/2/2 48/2/2
f 47/1/2 45/1/2 49/1/2
f 48/2/2 47/2/2 49/2/2
f 48/4/2 49/4/2 50/4/2
f 49/1/2 45/1/2 51/1/2
f 50/4/2 49/4/2 51/4/2
f 50/3/2 51/3/2 52/3/2
f 51/1/2 45/1/2 53/1/2
f 52/3/2 51/3/2 53/3/2
f 52/5/2 53/5/2 54/5/2
f 53/1/2 45/1/2 55/1/2
f 54/5/2 53/5/2 55/5/2
f 54/9/2 55/9/2 56/9/2
f 55/1/2 45/1/2 57/1/2
f 56/9/2 55/9/2 57/9/2
f 56/12/2 57/12/2 58/12/2
f 57/1/2 45/1/2 59/1/2
f 58/12/2 57/12/2 59/12/2
f 58/6/2 59/6/2 60/6/2
f 59/1/2 45/1/2 61/1/2
f 60/6/2 59/6/2 61/6/2
f 61/1/2 45/1/2 62/1/2
f 72/2/3 64/2/3 63/2/3
f 73/2/3 64/2/3 72/2/3
f 74/3/3 65/3/3 64/3/3
f 74/2/3 66/2/3 65/2/3
f 75/6/3 67/6/3 66/6/3
f 75/2/3 66/2/3 74/2/3
f 76/2/3 70/2/3 69/2/3
f 77/2/3 70/2/3 76/2/3
f 78/2/3 64/2/3 73/2/3
f 79/3/3 74/3/3 64/3/3
f 79/2/3 64/2/3 78/2/3
f 80/2/3 76/2/3 69/2/3
f 81/4/3 77/4/3 76/4/3
f 81/2/3 76/2/3 80/2/3
f 82/2/3 78/2/3 73/2/3
f 83/4/3 79/4/3 78/4/3
f 83/2/3 78/2/3 82/2/3
f 84/3/3 74/3/3 79/3/3
f 84/4/3 79/4/3 83/4/3
f 85/4/3 69/4/3 68/4/3
f 85/2/3 80/2/3 69/2/3
f 86/4/3 81/4/3 80/4/3
f 86/2/3 80/2/3 85/2/3
f 87/4/3 77/4/3 81/4/3
f 87/4/3 81/4/3 86/4/3
f 88/2/3 70/2/3 77/2/3
f 88/4/3 77/4/3 87/4/3
f 89/3/3 73/3/3 72/3/3
f 90/2/3 82/2/3 73/2/3
f 90/3/3 73/3/3 89/3/3
f 91/4/3 83/4/3 82/4/3
f 91/2/3 82/2/3 90/2/3
f 92/5/3 84/5/3 83/5/3
f 92/4/3 83/4/3 91/4/3
f 93/4/3 85/4/3 68/4/3
f 94/4/3 85/4/3 93/4/3
f 95/4/3 90/4/3 89/4/3
f 95/2/3 91/2/3 90/2/3
f 96/5/3 92/5/3 91/5/3
f 96/2/3 91/2/3 95/2/3
f 97/5/3 84/5/3 92/5/3
f 97/5/3 92/5/3 96/5/3
f 98/3/3 74/3/3 84/3/3
f 98/5/3 84/5/3 97/5/3
f 99/4/3 75/4/3 74/4/3
f 99/3/3 74/3/3 98/3/3
f 100/9/3 94/9/3 93/9/3
f 101/4/3 85/4/3 94/4/3
f 101/9/3 94/9/3 100/9/3
f 102/4/3 96/4/3 95/4/3
f 102/4/3 95/4/3 89/4/3
f 103/3/3 97/3/3 96/3/3
f 103/4/3 96/4/3 102/4/3
f 104/4/3 85/4/3 101/4/3
f 104/10/3 101/10/3 100/10/3
f 105/3/3 86/3/3 85/3/3
f 105/4/3 85/4/3 104/4/3
f 106/4/3 87/4/3 86/4/3
f 106/3/3 86/3/3 105/3/3
f 107/5/3 88/5/3 87/5/3
f 107/4/3 87/4/3 106/4/3
f 108/3/3 97/3/3 103/3/3
f 108/7/3 103/7/3 102/7/3
f 109/5/3 98/5/3 97/5/3
f 109/3/3 97/3/3 108/3/3
f 110/4/3 99/4/3 98/4/3
f 110/5/3 98/5/3 109/5/3
f 111/4/3 75/4/3 99/4/3
f 111/4/3 99/4/3 110/4/3
f 112/5/3 105/5/3 104/5/3
f 112/10/3 104/10/3 100/10/3
f 113/3/3 106/3/3 105/3/3
f 113/5/3 105/5/3 112/5/3
f 114/5/3 107/5/3 106/5/3
f 114/3/3 106/3/3 113/3/3
f 115/5/3 88/5/3 107/5/3
f 115/5/3 107/5/3 114/5/3
f 116/2/3 70/2/3 88/2/3
f 116/5/3 88/5/3 115/5/3
f 117/6/3 71/6/3 70/6/3
f 117/2/3 70/2/3 116/2/3
f 118/5/3 110/5/3 109/5/3
f 118/5/3 109/5/3 108/5/3
f 119/2/3 111/2/3 110/2/3
f 119/5/3 110/5/3 118/5/3
f 120/4/3 75/4/3 111/4/3
f 120/2/3 111/2/3 119/2/3
f 121/10/3 114/10/3 113/10/3
f 121/10/3 112/10/3 100/10/3
f 121/10/3 113/10/3 112/10/3
f 122/10/3 114/10/3 121/10/3
f 123/4/3 116/4/3 115/4/3
f 123/4/3 117/4/3 116/4/3
f 124/6/3 71/6/3 117/6/3
f 124/4/3 117/4/3 123/4/3
f 125/4/3 102/4/3 89/4/3
f 126/7/3 108/7/3 102/7/3
f 126/4/3 102/4/3 125/4/3
f 127/5/3 118/5/3 108/5/3
f 127/7/3 108/7/3 126/7/3
f 128/4/3 123/4/3 115/4/3
f 128/7/3 124/7/3 123/7/3
f 129/6/3 71/6/3 124/6/3
f 129/7/3 124/7/3 128/7/3
f 130/5/3 118/5/3 127/5/3
f 130/4/3 127/4/3 126/4/3
f 131/8/3 119/8/3 118/8/3
f 131/5/3 118/5/3 130/5/3
f 132/4/3 75/4/3 120/4/3
f 132/4/3 120/4/3 119/4/3
f 133/6/3 67/6/3 75/6/3
f 133/4/3 75/4/3 132/4/3
f 134/10/3 121/10/3 100/10/3
f 135/5/3 122/5/3 121/5/3
f 135/10/3 121/10/3 134/10/3
f 136/10/3 114/10/3 122/10/3
f 136/5/3 122/5/3 135/5/3
f 137/4/3 130/4/3 126/4/3
f 137/3/3 131/3/3 130/3/3
f 138/8/3 119/8/3 131/8/3
f 138/3/3 131/3/3 137/3/3
f 139/11/3 135/11/3 134/11/3
f 140/10/3 136/10/3 135/10/3
f 140/11/3 135/11/3 139/11/3
f 141/10/3 114/10/3 136/10/3
f 141/10/3 136/10/3 140/10/3
f 141/5/3 115/5/3 114/5/3
f 142/4/3 128/4/3 115/4/3
f 142/4/3 129/4/3 128/4/3
f 143/6/3 71/6/3 129/6/3
f 143/4/3 129/4/3 142/4/3
f 144/8/3 119/8/3 138/8/3
f 144/5/3 138/5/3 137/5/3
f 145/4/3 132/4/3 119/4/3
f 145/8/3 119/8/3 144/8/3
f 146/5/3 133/5/3 132/5/3
f 146/4/3 132/4/3 145/4/3
f 147/3/3 140/3/3 139/3/3
f 148/5/3 141/5/3 140/5/3
f 148/3/3 140/3/3 147/3/3
f 149/5/3 115/5/3 141/5/3
f 149/5/3 141/5/3 148/5/3
f 149/4/3 142/4/3 115/4/3
f 150/12/3 143/12/3 142/12/3
f 150/4/3 142/4/3 149/4/3
f 151/6/3 71/6/3 143/6/3
f 151/12/3 143/12/3 150/12/3
f 152/5/3 144/5/3 137/5/3
f 152/4/3 137/4/3 126/4/3
f 153/7/3 145/7/3 144/7/3
f 153/5/3 144/5/3 152/5/3
f 154/6/3 150/6/3 149/6/3
f 154/6/3 149/6/3 148/6/3
f 154/6/3 148/6/3 147/6/3
f 154/6/3 151/6/3 150/6/3
f 155/6/3 71/6/3 151/6/3
f 155/6/3 151/6/3 154/6/3
f 156/7/3 145/7/3 153/7/3
f 156/2/3 146/2/3 145/2/3
f 157/5/3 133/5/3 146/5/3
f 157/2/3 146/2/3 156/2/3
f 158/6/3 67/6/3 133/6/3
f 158/5/3 133/5/3 157/5/3
f 166/5/3 126/5/3 125/5/3
f 167/4/3 152/4/3 126/4/3
f 167/5/3 126/5/3 166/5/3
f 168/3/3 160/3/3 159/3/3
f 169/3/3 160/3/3 168/3/3
f 170/5/3 162/5/3 161/5/3
f 170/12/3 163/12/3 162/12/3
f 171/7/3 164/7/3 163/7/3
f 171/12/3 163/12/3 170/12/3
f 172/7/3 156/7/3 153/7/3
f 172/3/3 153/3/3 152/3/3
f 173/3/3 157/3/3 156/3/3
f 173/7/3 156/7/3 172/7/3
f 174/4/3 158/4/3 157/4/3
f 174/3/3 157/3/3 173/3/3
f 175/6/3 67/6/3 158/6/3
f 175/4/3 158/4/3 174/4/3
f 176/3/3 160/3/3 169/3/3
f 176/2/3 169/2/3 168/2/3
f 177/4/3 161/4/3 160/4/3
f 177/3/3 160/3/3 176/3/3
f 178/4/3 167/4/3 166/4/3
f 179/4/3 152/4/3 167/4/3
f 179/4/3 167/4/3 178/4/3
f 180/3/3 172/3/3 152/3/3
f 180/4/3 152/4/3 179/4/3
f 181/4/3 173/4/3 172/4/3
f 181/3/3 172/3/3 180/3/3
f 182/3/3 174/3/3 173/3/3
f 182/4/3 173/4/3 181/4/3
f 183/2/3 176/2/3 168/2/3
f 183/5/3 177/5/3 176/5/3
f 184/4/3 161/4/3 177/4/3
f 184/5/3 177/5/3 183/5/3
f 185/5/3 170/5/3 161/5/3
f 185/4/3 161/4/3 184/4/3
f 186/7/3 171/7/3 170/7/3
f 186/5/3 170/5/3 185/5/3
f 187/5/3 181/5/3 180/5/3
f 187/2/3 182/2/3 181/2/3
f 188/3/3 174/3/3 182/3/3
f 188/2/3 182/2/3 187/2/3
f 189/2/3 175/2/3 174/2/3
f 189/3/3 174/3/3 188/3/3
f 190/7/3 185/7/3 184/7/3
f 190/7/3 184/7/3 183/7/3
f 190/2/3 183/2/3 168/2/3
f 191/7/3 185/7/3 190/7/3
f 192/7/3 164/7/3 171/7/3
f 192/7/3 171/7/3 186/7/3
f 193/6/3 165/6/3 164/6/3
f 193/7/3 164/7/3 192/7/3
f 194/2/3 179/2/3 178/2/3
f 194/4/3 180/4/3 179/4/3
f 195/5/3 187/5/3 180/5/3
f 195/4/3 180/4/3 194/4/3
f 196/3/3 188/3/3 187/3/3
f 196/2/3 189/2/3 188/2/3
f 197/2/3 175/2/3 189/2/3
f 197/2/3 189/2/3 196/2/3
f 198/2/3 190/2/3 168/2/3
f 199/10/3 191/10/3 190/10/3
f 199/2/3 190/2/3 198/2/3
f 200/5/3 187/5/3 195/5/3
f 200/5/3 195/5/3 194/5/3
f 201/3/3 196/3/3 187/3/3
f 201/5/3 187/5/3 200/5/3
f 202/2/3 175/2/3 197/2/3
f 202/4/3 197/4/3 196/4/3
f 203/6/3 67/6/3 175/6/3
f 203/2/3 175/2/3 202/2/3
f 204/2/3 194/2/3 178/2/3
f 205/5/3 200/5/3 194/5/3
f 205/2/3 194/2/3 204/2/3
f 206/4/3 201/4/3 200/4/3
f 206/5/3 200/5/3 205/5/3
f 207/3/3 196/3/3 201/3/3
f 207/4/3 201/4/3 206/4/3
f 208/4/3 202/4/3 196/4/3
f 208/3/3 196/3/3 207/3/3
f 209/3/3 203/3/3 202/3/3
f 209/4/3 202/4/3 208/4/3
f 210/6/3 67/6/3 203/6/3
f 210/3/3 203/3/3 209/3/3
f 211/5/3 209/5/3 208/5/3
f 211/5/3 208/5/3 207/5/3
f 212/2/3 210/2/3 209/2/3
f 212/5/3 209/5/3 211/5/3
f 213/9/3 199/9/3 198/9/3
f 214/10/3 191/10/3 199/10/3
f 214/9/3 199/9/3 213/9/3
f 215/7/3 185/7/3 191/7/3
f 215/10/3 191/10/3 214/10/3
f 216/7/3 192/7/3 186/7/3
f 216/10/3 186/10/3 185/10/3
f 217/12/3 193/12/3 192/12/3
f 217/7/3 192/7/3 216/7/3
f 218/4/3 205/4/3 204/4/3
f 219/5/3 206/5/3 205/5/3
f 219/4/3 205/4/3 218/4/3
f 220/2/3 207/2/3 206/2/3
f 220/5/3 206/5/3 219/5/3
f 221/5/3 219/5/3 218/5/3
f 221/3/3 220/3/3 219/3/3
f 222/2/3 207/2/3 220/2/3
f 222/3/3 220/3/3 221/3/3
f 223/2/3 214/2/3 213/2/3
f 223/9/3 215/9/3 214/9/3
f 224/7/3 185/7/3 215/7/3
f 224/9/3 215/9/3 223/9/3
f 225/12/3 193/12/3 217/12/3
f 225/10/3 217/10/3 216/10/3
f 226/6/3 165/6/3 193/6/3
f 226/12/3 193/12/3 225/12/3
f 227/2/3 207/2/3 222/2/3
f 227/2/3 222/2/3 221/2/3
f 228/5/3 211/5/3 207/5/3
f 228/2/3 207/2/3 227/2/3
f 229/4/3 212/4/3 211/4/3
f 229/5/3 211/5/3 228/5/3
f 230/2/3 223/2/3 213/2/3
f 231/10/3 224/10/3 223/10/3
f 231/2/3 223/2/3 230/2/3
f 232/5/3 221/5/3 218/5/3
f 232/2/3 227/2/3 221/2/3
f 233/3/3 228/3/3 227/3/3
f 233/2/3 227/2/3 232/2/3
f 234/4/3 212/4/3 229/4/3
f 234/4/3 229/4/3 228/4/3
f 235/2/3 210/2/3 212/2/3
f 235/4/3 212/4/3 234/4/3
f 236/6/3 67/6/3 210/6/3
f 236/2/3 210/2/3 235/2/3
f 237/4/3 231/4/3 230/4/3
f 238/10/3 224/10/3 231/10/3
f 238/4/3 231/4/3 237/4/3
f 239/7/3 185/7/3 224/7/3
f 239/10/3 224/10/3 238/10/3
f 240/10/3 225/10/3 216/10/3
f 240/10/3 216/10/3 185/10/3
f 241/4/3 226/4/3 225/4/3
f 241/10/3 225/10/3 240/10/3
f 242/6/3 165/6/3 226/6/3
f 242/4/3 226/4/3 241/4/3
f 243/9/3 239/9/3 238/9/3
f 243/5/3 238/5/3 237/5/3
f 244/7/3 185/7/3 239/7/3
f 244/9/3 239/9/3 243/9/3
f 245/10/3 240/10/3 185/10/3
f 245/7/3 185/7/3 244/7/3
f 246/9/3 241/9/3 240/9/3
f 246/10/3 240/10/3 245/10/3
f 247/5/3 232/5/3 218/5/3
f 248/4/3 233/4/3 232/4/3
f 248/5/3 232/5/3 247/5/3
f 249/3/3 228/3/3 233/3/3
f 249/4/3 233/4/3 248/4/3
f 250/4/3 234/4/3 228/4/3
f 250/3/3 228/3/3 249/3/3
f 251/2/3 235/2/3 234/2/3
f 251/4/3 234/4/3 250/4/3
f 252/4/3 236/4/3 235/4/3
f 252/2/3 235/2/3 251/2/3
f 253/6/3 67/6/3 236/6/3
f 253/4/3 236/4/3 252/4/3
f 254/5/3 243/5/3 237/5/3
f 255/4/3 244/4/3 243/4/3
f 255/5/3 243/5/3 254/5/3
f 256/10/3 245/10/3 244/10/3
f 256/4/3 244/4/3 255/4/3
f 257/5/3 246/5/3 245/5/3
f 257/10/3 245/10/3 256/10/3
f 258/6/3 248/6/3 247/6/3
f 258/6/3 250/6/3 249/6/3
f 258/6/3 249/6/3 248/6/3
f 258/6/3 253/6/3 252/6/3
f 258/6/3 252/6/3 251/6/3
f 258/6/3 251/6/3 250/6/3
f 259/6/3 67/6/3 253/6/3
f 259/6/3 253/6/3 258/6/3
f 260/4/3 255/4/3 254/4/3
f 260/4/3 256/4/3 255/4/3
f 261/4/3 256/4/3 260/4/3
f 262/8/3 257/8/3 256/8/3
f 262/4/3 256/4/3 261/4/3
f 263/5/3 246/5/3 257/5/3
f 263/8/3 257/8/3 262/8/3
f 264/2/3 261/2/3 260/2/3
f 265/4/3 262/4/3 261/4/3
f 265/2/3 261/2/3 264/2/3
f 266/3/3 263/3/3 262/3/3
f 266/4/3 262/4/3 265/4/3
f 267/5/3 246/5/3 263/5/3
f 267/3/3 263/3/3 266/3/3
f 268/9/3 241/9/3 246/9/3
f 268/5/3 246/5/3 267/5/3
f 269/12/3 242/12/3 241/12/3
f 269/9/3 241/9/3 268/9/3
f 270/6/3 165/6/3 242/6/3
f 270/12/3 242/12/3 269/12/3
f 271/6/3 165/6/3 270/6/3
f 276/1/3 273/1/3 272/1/3
f 277/1/3 276/1/3 272/1/3
f 278/1/3 275/1/3 274/1/3
f 279/1/3 278/1/3 274/1/3
f 280/1/3 277/1/3 272/1/3
f 281/1/3 279/1/3 274/1/3
f 282/1/3 281/1/3 274/1/3
f 283/1/3 282/1/3 274/1/3
f 284/1/3 283/1/3 274/1/3
f 286/1/3 284/1/3 274/1/3
f 286/1/3 285/1/3 284/1/3
f 287/1/3 285/1/3 286/1/3
f 288/1/3 285/1/3 287/1/3
f 289/1/3 285/1/3 288/1/3
f 290/1/3 285/1/3 289/1/3
f 291/1/3 285/1/3 290/1/3
f 292/1/3 285/1/3 291/1/3
f 293/1/3 280/1/3 272/1/3
f 294/1/3 286/1/3 274/1/3
f 295/1/3 293/1/3 272/1/3
f 296/1/3 294/1/3 274/1/3
f 297/1/3 295/1/3 272/1/3
f 298/1/3 296/1/3 274/1/3
f 299/1/3 297/1/3 272/1/3
f 300/1/3 298/1/3 274/1/3
f 301/1/3 300/1/3 274/1/3
f 302/1/3 299/1/3 272/1/3
f 303/1/3 301/1/3 274/1/3
f 304/1/3 302/1/3 272/1/3
f 305/1/3 303/1/3 274/1/3
f 306/1/3 303/1/3 305/1/3
f 307/1/3 304/1/3 272/1/3
f 307/1/3 305/1/3 304/1/3
f 307/1/3 306/1/3 305/1/3
f 308/1/3 306/1/3 307/1/3
f 309/1/4 310/1/4 311/1/4
f 311/1/4 310/1/4 312/1/4
f 315/1/5 314/1/5 313/1/5
f 316/1/5 314/1/5 315/1/5
f 327/2/5 318/2/5 317/2/5
f 328/3/5 319/3/5 318/3/5
f 328/2/5 318/2/5 327/2/5
f 329/4/5 320/4/5 319/4/5
f 329/3/5 319/3/5 328/3/5
f 330/5/5 321/5/5 320/5/5
f 330/4/5 320/4/5 329/4/5
f 331/4/5 322/4/5 321/4/5
f 331/5/5 321/5/5 330/5/5
f 332/2/5 323/2/5 322/2/5
f 332/4/5 322/4/5 331/4/5
f 333/4/5 324/4/5 323/4/5
f 333/2/5 323/2/5 332/2/5
f 334/5/5 325/5/5 324/5/5
f 334/4/5 324/4/5 333/4/5
f 335/6/5 326/6/5 325/6/5
f 335/5/5 325/5/5 334/5/5
f 336/6/5 326/6/5 335/6/5
f 353/4/5 338/4/5 337/4/5
f 354/9/5 339/9/5 338/9/5
f 354/4/5 338/4/5 353/4/5
f 355/10/5 340/10/5 339/10/5
f 355/9/5 339/9/5 354/9/5
f 356/11/5 341/11/5 340/11/5
f 356/10/5 340/10/5 355/10/5
f 357/3/5 342/3/5 341/3/5
f 357/11/5 341/11/5 356/11/5
f 358/6/5 343/6/5 342/6/5
f 358/3/5 342/3/5 357/3/5
f 359/6/5 343/6/5 358/6/5
f 360/3/5 345/3/5 344/3/5
f 361/2/5 346/2/5 345/2/5
f 361/3/5 345/3/5 360/3/5
f 362/9/5 347/9/5 346/9/5
f 362/2/5 346/2/5 361/2/5
f 363/2/5 348/2/5 347/2/5
f 363/9/5 347/9/5 362/9/5
f 364/4/5 349/4/5 348/4/5
f 364/2/5 348/2/5 363/2/5
f 365/5/5 350/5/5 349/5/5
f 365/4/5 349/4/5 364/4/5
f 366/4/5 351/4/5 350/4/5
f 366/5/5 350/5/5 365/5/5
f 367/2/5 352/2/5 351/2/5
f 367/4/5 351/4/5 366/4/5
f 368/2/5 352/2/5 367/2/5
f 369/6/6 370/6/6 371/6/6
f 371/6/6 370/6/6 372/6/6
f 373/6/6 374/6/6 377/6/6
f 377/6/6 374/6/6 378/6/6
f 375/6/6 376/6/6 379/6/6
f 379/6/6 376/6/6 380/6/6
f 377/1/6 378/1/6 381/1/6
f 378/1/6 379/1/6 381/1/6
f 379/1/6 380/1/6 381/1/6
f 381/1/6 380/1/6 382/1/6
