# MagicaVoxel @ Ephtracy

# group
o 

# material
mtllib Pot.mtl
usemtl palette

# normals
vn -1 0 0
vn 1 0 0
vn 0 0 1
vn 0 0 -1
vn 0 -1 0
vn 0 1 0

# texcoords
vt 0.00195313 0.5
vt 0.138672 0.5
vt 0.166016 0.5
vt 0.240234 0.5
vt 0.369141 0.5

# verts
v 0.2 2.7 -0.2
v 0.2 2.7 -0.5
v 0.2 2.9 -0.1
v 0.2 2.9 -0.2
v 0.2 2.9 -0.5
v 0.2 2.9 -0.6
v 0.2 3.2 -0.1
v 0.2 3.2 -0.6
v 0.3 2.2 -0.2
v 0.3 2.2 -0.5
v 0.3 2.5 -0.2
v 0.3 2.5 -0.3
v 0.3 2.7 -0.1
v 0.3 2.7 -0.2
v 0.3 2.7 -0.3
v 0.3 2.7 -0.5
v 0.3 2.7 -0.6
v 0.3 2.9 -0.1
v 0.3 2.9 -0.2
v 0.3 2.9 -0.5
v 0.3 2.9 -0.6
v 0.4 2.2 -0.1
v 0.4 2.2 -0.2
v 0.4 2.2 -0.5
v 0.4 2.2 -0.6
v 0.4 2.5 -0.1
v 0.4 2.5 -0.2
v 0.4 2.6 0
v 0.4 2.6 -0.1
v 0.4 2.6 -0.2
v 0.4 2.6 -0.6
v 0.4 2.6 -0.7
v 0.4 2.7 0
v 0.4 2.7 -0.1
v 0.4 2.7 -0.2
v 0.4 2.7 -0.5
v 0.4 2.7 -0.6
v 0.4 2.7 -0.7
v 0.6 2.6 0
v 0.6 2.6 -0.1
v 0.6 2.6 -0.6
v 0.6 2.6 -0.7
v 0.6 2.7 0
v 0.6 2.7 -0.1
v 0.6 2.7 -0.6
v 0.6 2.7 -0.7
v 0.6 3.1 -0.4
v 0.6 3.1 -0.5
v 0.6 3.2 -0.4
v 0.6 3.2 -0.5
v 0.7 3.1 -0.3
v 0.7 3.1 -0.4
v 0.7 3.2 -0.3
v 0.7 3.2 -0.4
v 0.8 2.6 0
v 0.8 2.6 -0.1
v 0.8 2.6 -0.6
v 0.8 2.6 -0.7
v 0.8 2.7 0
v 0.8 2.7 -0.1
v 0.8 2.7 -0.6
v 0.8 2.7 -0.7
v 0.8 3.2 -0.3
v 0.8 3.2 -0.4
v 0.8 3.2 -0.5
v 0.8 3.3 -0.3
v 0.8 3.3 -0.4
v 0.8 3.3 -0.5
v 1 3.2 -0.4
v 1 3.2 -0.5
v 1 3.3 -0.4
v 1 3.4 -0.4
v 1 3.4 -0.5
v 1.1 3.1 -0.2
v 1.1 3.1 -0.5
v 1.1 3.2 -0.2
v 1.1 3.2 -0.3
v 1.1 3.2 -0.5
v 1.3 2.3 -0.2
v 1.3 2.3 -0.3
v 1.3 2.4 -0.2
v 1.3 2.4 -0.3
v 1.3 2.8 -0.3
v 1.3 2.8 -0.4
v 1.3 2.9 -0.3
v 1.3 2.9 -0.4
v 1.3 2.9 -0.6
v 1.3 3 -0.4
v 1.3 3 -0.5
v 1.3 3 -0.6
v 1.4 2.4 -0.2
v 1.4 2.4 -0.3
v 1.4 2.5 -0.2
v 1.4 2.5 -0.3
v 1.4 2.5 -0.4
v 1.4 2.6 -0.2
v 1.4 2.6 -0.3
v 1.4 2.6 -0.4
v 1.4 2.7 -0.2
v 1.4 2.7 -0.3
v 1.4 2.7 -0.4
v 1.4 2.8 -0.3
v 1.4 2.8 -0.4
v 1.4 2.8 -0.5
v 1.4 2.9 -0.4
v 1.4 2.9 -0.5
v 1.4 3 -0.4
v 1.4 3 -0.5
v 1.4 3.1 -0.3
v 1.4 3.1 -0.4
v 1.4 3.2 -0.3
v 1.4 3.2 -0.4
v 1.4 3.2 -0.5
v 1.5 2.7 -0.2
v 1.5 2.7 -0.3
v 1.5 2.8 -0.2
v 1.5 2.8 -0.3
v 1.5 2.9 -0.3
v 1.5 2.9 -0.4
v 1.5 3 -0.3
v 1.5 3 -0.4
v 1.5 3.1 -0.3
v 1.5 3.1 -0.4
v 0.3 3.1 -0.2
v 0.3 3.1 -0.5
v 0.3 3.2 -0.2
v 0.3 3.2 -0.5
v 0.5 2.6 0
v 0.5 2.6 -0.1
v 0.5 2.6 -0.6
v 0.5 2.6 -0.7
v 0.5 2.7 0
v 0.5 2.7 -0.1
v 0.5 2.7 -0.6
v 0.5 2.7 -0.7
v 0.7 2.6 0
v 0.7 2.6 -0.1
v 0.7 2.6 -0.6
v 0.7 2.6 -0.7
v 0.7 2.7 0
v 0.7 2.7 -0.1
v 0.7 2.7 -0.6
v 0.7 2.7 -0.7
v 0.8 3.1 -0.3
v 0.8 3.1 -0.4
v 0.8 3.1 -0.5
v 0.8 3.2 -0.3
v 0.8 3.2 -0.4
v 0.8 3.2 -0.5
v 0.9 2.6 0
v 0.9 2.6 -0.1
v 0.9 2.6 -0.6
v 0.9 2.6 -0.7
v 0.9 2.7 0
v 0.9 2.7 -0.1
v 0.9 2.7 -0.6
v 0.9 2.7 -0.7
v 0.9 3.2 -0.4
v 0.9 3.2 -0.5
v 0.9 3.3 -0.4
v 0.9 3.3 -0.5
v 1 2.2 -0.1
v 1 2.2 -0.2
v 1 2.2 -0.5
v 1 2.2 -0.6
v 1 2.5 -0.1
v 1 2.5 -0.2
v 1 2.7 -0.1
v 1 2.7 -0.2
v 1 2.7 -0.5
v 1 2.7 -0.6
v 1.1 2.2 -0.2
v 1.1 2.2 -0.5
v 1.1 2.7 -0.1
v 1.1 2.7 -0.2
v 1.1 2.7 -0.5
v 1.1 2.7 -0.6
v 1.1 2.9 -0.1
v 1.1 2.9 -0.2
v 1.1 2.9 -0.5
v 1.1 2.9 -0.6
v 1.1 3.2 -0.4
v 1.1 3.2 -0.5
v 1.1 3.3 -0.4
v 1.1 3.3 -0.5
v 1.2 2.7 -0.2
v 1.2 2.7 -0.5
v 1.2 2.9 -0.1
v 1.2 2.9 -0.2
v 1.2 2.9 -0.5
v 1.2 2.9 -0.6
v 1.2 3 -0.4
v 1.2 3 -0.5
v 1.2 3.1 -0.4
v 1.2 3.1 -0.5
v 1.2 3.2 -0.1
v 1.2 3.2 -0.3
v 1.2 3.2 -0.4
v 1.2 3.2 -0.6
v 1.2 3.3 -0.4
v 1.2 3.3 -0.5
v 1.2 3.4 -0.4
v 1.2 3.4 -0.5
v 1.3 3 -0.4
v 1.3 3 -0.5
v 1.3 3.1 -0.4
v 1.3 3.1 -0.5
v 1.4 2.3 -0.2
v 1.4 2.3 -0.3
v 1.4 2.4 -0.2
v 1.4 2.4 -0.3
v 1.4 2.8 -0.3
v 1.4 2.8 -0.4
v 1.4 2.9 -0.3
v 1.4 2.9 -0.4
v 1.4 2.9 -0.5
v 1.4 2.9 -0.6
v 1.4 3 -0.4
v 1.4 3 -0.5
v 1.4 3 -0.6
v 1.4 3.2 -0.3
v 1.4 3.2 -0.4
v 1.4 3.3 -0.3
v 1.4 3.3 -0.4
v 1.5 2.4 -0.2
v 1.5 2.4 -0.3
v 1.5 2.5 -0.2
v 1.5 2.5 -0.3
v 1.5 2.5 -0.4
v 1.5 2.6 -0.3
v 1.5 2.6 -0.4
v 1.5 2.7 -0.3
v 1.5 2.7 -0.4
v 1.5 2.8 -0.3
v 1.5 2.8 -0.4
v 1.5 2.8 -0.5
v 1.5 2.9 -0.4
v 1.5 2.9 -0.5
v 1.5 3 -0.4
v 1.5 3 -0.5
v 1.5 3.1 -0.3
v 1.5 3.1 -0.4
v 1.5 3.2 -0.3
v 1.5 3.2 -0.4
v 1.5 3.2 -0.5
v 1.6 2.6 -0.2
v 1.6 2.6 -0.3
v 1.6 2.8 -0.2
v 1.6 2.8 -0.3
v 1.6 2.9 -0.3
v 1.6 2.9 -0.4
v 1.6 3 -0.3
v 1.6 3 -0.4
v 1.6 3.1 -0.3
v 1.6 3.1 -0.4
v 0.4 2.6 0
v 0.4 2.7 0
v 0.5 2.6 0
v 0.5 2.7 0
v 0.6 2.6 0
v 0.6 2.7 0
v 0.7 2.6 0
v 0.7 2.7 0
v 0.8 2.6 0
v 0.8 2.7 0
v 0.9 2.6 0
v 0.9 2.7 0
v 0.2 2.9 -0.1
v 0.2 3.2 -0.1
v 0.3 2.7 -0.1
v 0.3 2.9 -0.1
v 0.4 2.2 -0.1
v 0.4 2.5 -0.1
v 0.4 2.6 -0.1
v 0.4 2.7 -0.1
v 0.5 2.6 -0.1
v 0.5 2.7 -0.1
v 0.6 2.6 -0.1
v 0.6 2.7 -0.1
v 0.7 2.6 -0.1
v 0.7 2.7 -0.1
v 0.8 2.6 -0.1
v 0.8 2.7 -0.1
v 0.9 2.6 -0.1
v 0.9 2.7 -0.1
v 1 2.2 -0.1
v 1 2.5 -0.1
v 1 2.7 -0.1
v 1.1 2.7 -0.1
v 1.1 2.9 -0.1
v 1.2 2.9 -0.1
v 1.2 3.2 -0.1
v 0.2 2.7 -0.2
v 0.2 2.9 -0.2
v 0.3 2.2 -0.2
v 0.3 2.5 -0.2
v 0.3 2.7 -0.2
v 0.3 2.9 -0.2
v 0.4 2.2 -0.2
v 0.4 2.5 -0.2
v 0.4 2.6 -0.2
v 0.4 2.7 -0.2
v 1 2.2 -0.2
v 1 2.5 -0.2
v 1 2.7 -0.2
v 1.1 2.2 -0.2
v 1.1 2.7 -0.2
v 1.1 2.9 -0.2
v 1.2 2.7 -0.2
v 1.2 2.9 -0.2
v 1.3 2.3 -0.2
v 1.3 2.4 -0.2
v 1.4 2.3 -0.2
v 1.4 2.4 -0.2
v 1.4 2.5 -0.2
v 1.4 2.6 -0.2
v 1.4 2.7 -0.2
v 1.5 2.4 -0.2
v 1.5 2.5 -0.2
v 1.5 2.7 -0.2
v 1.5 2.8 -0.2
v 1.6 2.6 -0.2
v 1.6 2.8 -0.2
v 0.7 3.1 -0.3
v 0.7 3.2 -0.3
v 0.8 3.1 -0.3
v 0.8 3.2 -0.3
v 0.8 3.3 -0.3
v 0.9 3.2 -0.3
v 0.9 3.3 -0.3
v 1.1 3.2 -0.3
v 1.2 3.2 -0.3
v 1.2 3.3 -0.3
v 1.3 2.8 -0.3
v 1.3 2.9 -0.3
v 1.4 2.5 -0.3
v 1.4 2.6 -0.3
v 1.4 2.7 -0.3
v 1.4 2.8 -0.3
v 1.4 2.9 -0.3
v 1.4 3.1 -0.3
v 1.4 3.2 -0.3
v 1.4 3.3 -0.3
v 1.5 2.5 -0.3
v 1.5 2.6 -0.3
v 1.5 2.7 -0.3
v 1.5 2.8 -0.3
v 1.5 2.9 -0.3
v 1.5 3 -0.3
v 1.5 3.1 -0.3
v 1.5 3.2 -0.3
v 1.6 2.9 -0.3
v 1.6 3 -0.3
v 1.6 3.1 -0.3
v 0.6 3.1 -0.4
v 0.6 3.2 -0.4
v 0.7 3.1 -0.4
v 0.7 3.2 -0.4
v 1 3.3 -0.4
v 1 3.4 -0.4
v 1.2 3 -0.4
v 1.2 3.1 -0.4
v 1.2 3.3 -0.4
v 1.2 3.4 -0.4
v 1.3 2.9 -0.4
v 1.3 3 -0.4
v 1.3 3.1 -0.4
v 1.4 2.8 -0.4
v 1.4 2.9 -0.4
v 1.4 3 -0.4
v 1.4 3.1 -0.4
v 1.5 2.8 -0.4
v 1.5 2.9 -0.4
v 1.5 3 -0.4
v 1.5 3.1 -0.4
v 0.3 3.1 -0.5
v 0.3 3.2 -0.5
v 0.6 3.1 -0.5
v 0.6 3.2 -0.5
v 0.8 3.1 -0.5
v 0.8 3.2 -0.5
v 0.9 3.2 -0.5
v 1 3.2 -0.5
v 1.1 3.1 -0.5
v 1.1 3.2 -0.5
v 0.3 3.1 -0.2
v 0.3 3.2 -0.2
v 0.6 3.1 -0.2
v 0.7 3.1 -0.2
v 1.1 3.1 -0.2
v 1.1 3.2 -0.2
v 1.3 2.3 -0.3
v 1.3 2.4 -0.3
v 1.4 2.3 -0.3
v 1.4 2.4 -0.3
v 1.4 2.5 -0.3
v 1.5 2.4 -0.3
v 1.5 2.5 -0.3
v 1.5 2.6 -0.3
v 1.5 2.7 -0.3
v 1.5 2.8 -0.3
v 1.6 2.6 -0.3
v 1.6 2.8 -0.3
v 0.9 3.2 -0.4
v 0.9 3.3 -0.4
v 1 3.2 -0.4
v 1 3.3 -0.4
v 1.1 3.2 -0.4
v 1.1 3.3 -0.4
v 1.2 3.2 -0.4
v 1.2 3.3 -0.4
v 1.3 2.8 -0.4
v 1.3 2.9 -0.4
v 1.4 2.5 -0.4
v 1.4 2.6 -0.4
v 1.4 2.7 -0.4
v 1.4 2.8 -0.4
v 1.4 2.9 -0.4
v 1.4 3.2 -0.4
v 1.4 3.3 -0.4
v 1.5 2.5 -0.4
v 1.5 2.6 -0.4
v 1.5 2.7 -0.4
v 1.5 2.8 -0.4
v 1.5 2.9 -0.4
v 1.5 3 -0.4
v 1.5 3.1 -0.4
v 1.6 2.9 -0.4
v 1.6 3 -0.4
v 1.6 3.1 -0.4
v 0.2 2.7 -0.5
v 0.2 2.9 -0.5
v 0.3 2.2 -0.5
v 0.3 2.7 -0.5
v 0.3 2.9 -0.5
v 0.4 2.2 -0.5
v 0.4 2.7 -0.5
v 0.8 3.2 -0.5
v 0.8 3.3 -0.5
v 0.9 3.2 -0.5
v 0.9 3.3 -0.5
v 1 2.2 -0.5
v 1 2.7 -0.5
v 1 3.2 -0.5
v 1 3.4 -0.5
v 1.1 2.2 -0.5
v 1.1 2.7 -0.5
v 1.1 2.9 -0.5
v 1.1 3.2 -0.5
v 1.1 3.3 -0.5
v 1.2 2.7 -0.5
v 1.2 2.9 -0.5
v 1.2 3 -0.5
v 1.2 3.1 -0.5
v 1.2 3.3 -0.5
v 1.2 3.4 -0.5
v 1.3 3 -0.5
v 1.3 3.1 -0.5
v 1.4 2.8 -0.5
v 1.4 2.9 -0.5
v 1.4 3 -0.5
v 1.4 3.2 -0.5
v 1.5 2.8 -0.5
v 1.5 2.9 -0.5
v 1.5 3 -0.5
v 1.5 3.2 -0.5
v 0.2 2.9 -0.6
v 0.2 3.2 -0.6
v 0.3 2.7 -0.6
v 0.3 2.9 -0.6
v 0.4 2.2 -0.6
v 0.4 2.6 -0.6
v 0.4 2.7 -0.6
v 0.5 2.6 -0.6
v 0.5 2.7 -0.6
v 0.6 2.6 -0.6
v 0.6 2.7 -0.6
v 0.7 2.6 -0.6
v 0.7 2.7 -0.6
v 0.8 2.6 -0.6
v 0.8 2.7 -0.6
v 0.9 2.6 -0.6
v 0.9 2.7 -0.6
v 1 2.2 -0.6
v 1 2.7 -0.6
v 1.1 2.7 -0.6
v 1.1 2.9 -0.6
v 1.2 2.9 -0.6
v 1.2 3.2 -0.6
v 1.3 2.9 -0.6
v 1.3 3 -0.6
v 1.4 2.9 -0.6
v 1.4 3 -0.6
v 0.4 2.6 -0.7
v 0.4 2.7 -0.7
v 0.5 2.6 -0.7
v 0.5 2.7 -0.7
v 0.6 2.6 -0.7
v 0.6 2.7 -0.7
v 0.7 2.6 -0.7
v 0.7 2.7 -0.7
v 0.8 2.6 -0.7
v 0.8 2.7 -0.7
v 0.9 2.6 -0.7
v 0.9 2.7 -0.7
v 0.4 2.2 -0.1
v 1 2.2 -0.1
v 0.3 2.2 -0.2
v 0.4 2.2 -0.2
v 1 2.2 -0.2
v 1.1 2.2 -0.2
v 0.3 2.2 -0.5
v 0.4 2.2 -0.5
v 1 2.2 -0.5
v 1.1 2.2 -0.5
v 0.4 2.2 -0.6
v 1 2.2 -0.6
v 1.3 2.3 -0.2
v 1.4 2.3 -0.2
v 1.3 2.3 -0.3
v 1.4 2.3 -0.3
v 1.4 2.4 -0.2
v 1.5 2.4 -0.2
v 1.4 2.4 -0.3
v 1.5 2.4 -0.3
v 1.4 2.5 -0.3
v 1.5 2.5 -0.3
v 1.4 2.5 -0.4
v 1.5 2.5 -0.4
v 0.4 2.6 0
v 0.5 2.6 0
v 0.6 2.6 0
v 0.7 2.6 0
v 0.8 2.6 0
v 0.9 2.6 0
v 0.4 2.6 -0.1
v 0.5 2.6 -0.1
v 0.6 2.6 -0.1
v 0.7 2.6 -0.1
v 0.8 2.6 -0.1
v 0.9 2.6 -0.1
v 1.4 2.6 -0.2
v 1.6 2.6 -0.2
v 1.4 2.6 -0.3
v 1.5 2.6 -0.3
v 1.6 2.6 -0.3
v 0.4 2.6 -0.6
v 0.5 2.6 -0.6
v 0.6 2.6 -0.6
v 0.7 2.6 -0.6
v 0.8 2.6 -0.6
v 0.9 2.6 -0.6
v 0.4 2.6 -0.7
v 0.5 2.6 -0.7
v 0.6 2.6 -0.7
v 0.7 2.6 -0.7
v 0.8 2.6 -0.7
v 0.9 2.6 -0.7
v 0.3 2.7 -0.1
v 0.4 2.7 -0.1
v 1 2.7 -0.1
v 1.1 2.7 -0.1
v 0.2 2.7 -0.2
v 0.3 2.7 -0.2
v 0.4 2.7 -0.2
v 1 2.7 -0.2
v 1.1 2.7 -0.2
v 1.2 2.7 -0.2
v 0.3 2.7 -0.3
v 0.2 2.7 -0.5
v 0.3 2.7 -0.5
v 0.4 2.7 -0.5
v 1 2.7 -0.5
v 1.1 2.7 -0.5
v 1.2 2.7 -0.5
v 0.3 2.7 -0.6
v 0.4 2.7 -0.6
v 1 2.7 -0.6
v 1.1 2.7 -0.6
v 1.3 2.8 -0.3
v 1.4 2.8 -0.3
v 1.3 2.8 -0.4
v 1.4 2.8 -0.4
v 1.5 2.8 -0.4
v 1.4 2.8 -0.5
v 1.5 2.8 -0.5
v 0.2 2.9 -0.1
v 0.3 2.9 -0.1
v 1.1 2.9 -0.1
v 1.2 2.9 -0.1
v 0.2 2.9 -0.2
v 0.3 2.9 -0.2
v 1.1 2.9 -0.2
v 1.2 2.9 -0.2
v 1.5 2.9 -0.3
v 1.6 2.9 -0.3
v 1.3 2.9 -0.4
v 1.4 2.9 -0.4
v 1.5 2.9 -0.4
v 1.6 2.9 -0.4
v 0.2 2.9 -0.5
v 0.3 2.9 -0.5
v 1.1 2.9 -0.5
v 1.2 2.9 -0.5
v 1.4 2.9 -0.5
v 0.2 2.9 -0.6
v 0.3 2.9 -0.6
v 1.1 2.9 -0.6
v 1.2 2.9 -0.6
v 1.3 2.9 -0.6
v 1.4 2.9 -0.6
v 1.2 3 -0.4
v 1.3 3 -0.4
v 1.4 3 -0.4
v 1.5 3 -0.4
v 1.2 3 -0.5
v 1.3 3 -0.5
v 1.4 3 -0.5
v 1.5 3 -0.5
v 1.4 3.1 -0.3
v 1.5 3.1 -0.3
v 1.4 3.1 -0.4
v 1.5 3.1 -0.4
v 0.8 3.2 -0.3
v 0.9 3.2 -0.3
v 1.1 3.2 -0.3
v 1.2 3.2 -0.3
v 1.4 3.2 -0.3
v 0.8 3.2 -0.4
v 0.9 3.2 -0.4
v 1 3.2 -0.4
v 1.2 3.2 -0.4
v 1.4 3.2 -0.4
v 0.8 3.2 -0.5
v 0.9 3.2 -0.5
v 1 3.2 -0.5
v 1.1 3.2 -0.5
v 1.1 3.3 -0.4
v 1.2 3.3 -0.4
v 1.1 3.3 -0.5
v 1.2 3.3 -0.5
v 1.3 2.4 -0.2
v 1.4 2.4 -0.2
v 1.3 2.4 -0.3
v 1.4 2.4 -0.3
v 1.4 2.5 -0.2
v 1.5 2.5 -0.2
v 1.4 2.5 -0.3
v 1.5 2.5 -0.3
v 0.4 2.7 0
v 0.5 2.7 0
v 0.6 2.7 0
v 0.7 2.7 0
v 0.8 2.7 0
v 0.9 2.7 0
v 0.4 2.7 -0.1
v 0.5 2.7 -0.1
v 0.6 2.7 -0.1
v 0.7 2.7 -0.1
v 0.8 2.7 -0.1
v 0.9 2.7 -0.1
v 1.4 2.7 -0.2
v 1.5 2.7 -0.2
v 1.4 2.7 -0.3
v 1.5 2.7 -0.3
v 0.4 2.7 -0.6
v 0.5 2.7 -0.6
v 0.6 2.7 -0.6
v 0.7 2.7 -0.6
v 0.8 2.7 -0.6
v 0.9 2.7 -0.6
v 0.4 2.7 -0.7
v 0.5 2.7 -0.7
v 0.6 2.7 -0.7
v 0.7 2.7 -0.7
v 0.8 2.7 -0.7
v 0.9 2.7 -0.7
v 1.5 2.8 -0.2
v 1.6 2.8 -0.2
v 1.4 2.8 -0.3
v 1.5 2.8 -0.3
v 1.6 2.8 -0.3
v 1.4 2.8 -0.4
v 1.5 2.8 -0.4
v 1.3 2.9 -0.3
v 1.4 2.9 -0.3
v 1.3 2.9 -0.4
v 1.4 2.9 -0.4
v 1.5 2.9 -0.4
v 1.4 2.9 -0.5
v 1.5 2.9 -0.5
v 1.3 3 -0.4
v 1.4 3 -0.4
v 1.3 3 -0.5
v 1.4 3 -0.5
v 1.3 3 -0.6
v 1.4 3 -0.6
v 0.3 3.1 -0.2
v 0.6 3.1 -0.2
v 0.7 3.1 -0.2
v 1.1 3.1 -0.2
v 0.7 3.1 -0.3
v 0.8 3.1 -0.3
v 1.5 3.1 -0.3
v 1.6 3.1 -0.3
v 0.6 3.1 -0.4
v 0.7 3.1 -0.4
v 0.8 3.1 -0.4
v 1.2 3.1 -0.4
v 1.3 3.1 -0.4
v 1.5 3.1 -0.4
v 1.6 3.1 -0.4
v 0.3 3.1 -0.5
v 0.6 3.1 -0.5
v 0.8 3.1 -0.5
v 1.1 3.1 -0.5
v 1.2 3.1 -0.5
v 1.3 3.1 -0.5
v 0.2 3.2 -0.1
v 1.2 3.2 -0.1
v 0.3 3.2 -0.2
v 1.1 3.2 -0.2
v 0.7 3.2 -0.3
v 0.8 3.2 -0.3
v 1.1 3.2 -0.3
v 1.2 3.2 -0.3
v 1.4 3.2 -0.3
v 1.5 3.2 -0.3
v 0.6 3.2 -0.4
v 0.7 3.2 -0.4
v 0.8 3.2 -0.4
v 1.1 3.2 -0.4
v 1.2 3.2 -0.4
v 1.4 3.2 -0.4
v 1.5 3.2 -0.4
v 0.3 3.2 -0.5
v 0.6 3.2 -0.5
v 0.8 3.2 -0.5
v 0.9 3.2 -0.5
v 1 3.2 -0.5
v 1.1 3.2 -0.5
v 1.4 3.2 -0.5
v 1.5 3.2 -0.5
v 0.2 3.2 -0.6
v 1.2 3.2 -0.6
v 0.8 3.3 -0.3
v 0.9 3.3 -0.3
v 1.2 3.3 -0.3
v 1.4 3.3 -0.3
v 0.8 3.3 -0.4
v 0.9 3.3 -0.4
v 1 3.3 -0.4
v 1.2 3.3 -0.4
v 1.4 3.3 -0.4
v 0.8 3.3 -0.5
v 0.9 3.3 -0.5
v 1 3.4 -0.4
v 1.2 3.4 -0.4
v 1 3.4 -0.5
v 1.2 3.4 -0.5

# faces
f 4/2/1 2/2/1 1/2/1
f 5/2/1 2/2/1 4/2/1
f 7/3/1 4/3/1 3/3/1
f 7/3/1 6/3/1 5/3/1
f 7/3/1 5/3/1 4/3/1
f 8/3/1 6/3/1 7/3/1
f 11/2/1 10/2/1 9/2/1
f 12/2/1 10/2/1 11/2/1
f 14/1/1 12/1/1 11/1/1
f 15/2/1 10/2/1 12/2/1
f 15/1/1 12/1/1 14/1/1
f 16/2/1 10/2/1 15/2/1
f 18/2/1 14/2/1 13/2/1
f 19/2/1 14/2/1 18/2/1
f 20/2/1 17/2/1 16/2/1
f 21/2/1 17/2/1 20/2/1
f 26/2/1 23/2/1 22/2/1
f 27/2/1 23/2/1 26/2/1
f 29/1/1 27/1/1 26/1/1
f 30/1/1 27/1/1 29/1/1
f 31/2/1 25/2/1 24/2/1
f 33/3/1 29/3/1 28/3/1
f 34/2/1 30/2/1 29/2/1
f 34/3/1 29/3/1 33/3/1
f 35/2/1 30/2/1 34/2/1
f 36/2/1 31/2/1 24/2/1
f 37/3/1 32/3/1 31/3/1
f 37/2/1 31/2/1 36/2/1
f 38/3/1 32/3/1 37/3/1
f 43/3/1 40/3/1 39/3/1
f 44/3/1 40/3/1 43/3/1
f 45/3/1 42/3/1 41/3/1
f 46/3/1 42/3/1 45/3/1
f 49/4/1 48/4/1 47/4/1
f 50/4/1 48/4/1 49/4/1
f 53/5/1 52/5/1 51/5/1
f 54/5/1 52/5/1 53/5/1
f 59/3/1 56/3/1 55/3/1
f 60/3/1 56/3/1 59/3/1
f 61/3/1 58/3/1 57/3/1
f 62/3/1 58/3/1 61/3/1
f 66/5/1 64/5/1 63/5/1
f 67/4/1 65/4/1 64/4/1
f 67/5/1 64/5/1 66/5/1
f 68/4/1 65/4/1 67/4/1
f 71/4/1 70/4/1 69/4/1
f 72/4/1 70/4/1 71/4/1
f 73/4/1 70/4/1 72/4/1
f 76/3/1 75/3/1 74/3/1
f 77/3/1 75/3/1 76/3/1
f 78/3/1 75/3/1 77/3/1
f 81/4/1 80/4/1 79/4/1
f 82/4/1 80/4/1 81/4/1
f 85/5/1 84/5/1 83/5/1
f 86/5/1 84/5/1 85/5/1
f 88/4/1 87/4/1 86/4/1
f 89/4/1 87/4/1 88/4/1
f 90/4/1 87/4/1 89/4/1
f 93/4/1 92/4/1 91/4/1
f 94/4/1 92/4/1 93/4/1
f 97/5/1 95/5/1 94/5/1
f 98/5/1 95/5/1 97/5/1
f 99/4/1 97/4/1 96/4/1
f 99/4/1 98/4/1 97/4/1
f 100/4/1 98/4/1 99/4/1
f 101/4/1 98/4/1 100/4/1
f 102/5/1 101/5/1 100/5/1
f 103/5/1 101/5/1 102/5/1
f 105/4/1 104/4/1 103/4/1
f 106/4/1 104/4/1 105/4/1
f 110/4/1 108/4/1 107/4/1
f 111/5/1 110/5/1 109/5/1
f 112/4/1 108/4/1 110/4/1
f 112/5/1 110/5/1 111/5/1
f 113/4/1 108/4/1 112/4/1
f 116/4/1 115/4/1 114/4/1
f 117/4/1 115/4/1 116/4/1
f 120/4/1 119/4/1 118/4/1
f 121/4/1 119/4/1 120/4/1
f 122/5/1 121/5/1 120/5/1
f 123/5/1 121/5/1 122/5/1
f 124/3/2 125/3/2 126/3/2
f 126/3/2 125/3/2 127/3/2
f 128/3/2 129/3/2 132/3/2
f 132/3/2 129/3/2 133/3/2
f 130/3/2 131/3/2 134/3/2
f 134/3/2 131/3/2 135/3/2
f 136/3/2 137/3/2 140/3/2
f 140/3/2 137/3/2 141/3/2
f 138/3/2 139/3/2 142/3/2
f 142/3/2 139/3/2 143/3/2
f 144/5/2 145/5/2 147/5/2
f 145/4/2 146/4/2 148/4/2
f 147/5/2 145/5/2 148/5/2
f 148/4/2 146/4/2 149/4/2
f 150/3/2 151/3/2 154/3/2
f 154/3/2 151/3/2 155/3/2
f 152/3/2 153/3/2 156/3/2
f 156/3/2 153/3/2 157/3/2
f 158/4/2 159/4/2 160/4/2
f 160/4/2 159/4/2 161/4/2
f 162/2/2 163/2/2 166/2/2
f 166/2/2 163/2/2 167/2/2
f 166/1/2 167/1/2 168/1/2
f 168/1/2 167/1/2 169/1/2
f 164/2/2 165/2/2 170/2/2
f 170/2/2 165/2/2 171/2/2
f 172/3/2 173/3/2 175/3/2
f 175/3/2 173/3/2 176/3/2
f 174/2/2 175/2/2 178/2/2
f 178/2/2 175/2/2 179/2/2
f 176/2/2 177/2/2 180/2/2
f 180/2/2 177/2/2 181/2/2
f 182/4/2 183/4/2 184/4/2
f 184/4/2 183/4/2 185/4/2
f 186/3/2 187/3/2 189/3/2
f 189/3/2 187/3/2 190/3/2
f 188/3/2 189/3/2 192/3/2
f 190/3/2 191/3/2 192/3/2
f 189/3/2 190/3/2 192/3/2
f 192/3/2 191/3/2 193/3/2
f 188/3/2 192/3/2 194/3/2
f 193/3/2 191/3/2 195/3/2
f 188/3/2 194/3/2 196/3/2
f 194/3/2 195/3/2 196/3/2
f 196/3/2 195/3/2 197/3/2
f 197/3/2 195/3/2 198/3/2
f 195/3/2 191/3/2 199/3/2
f 198/3/2 195/3/2 199/3/2
f 200/4/2 201/4/2 202/4/2
f 202/4/2 201/4/2 203/4/2
f 204/4/2 205/4/2 206/4/2
f 206/4/2 205/4/2 207/4/2
f 208/4/2 209/4/2 210/4/2
f 210/4/2 209/4/2 211/4/2
f 212/5/2 213/5/2 214/5/2
f 214/5/2 213/5/2 215/5/2
f 216/4/2 217/4/2 218/4/2
f 215/4/2 216/4/2 218/4/2
f 218/4/2 217/4/2 219/4/2
f 219/4/2 217/4/2 220/4/2
f 221/5/2 222/5/2 223/5/2
f 223/5/2 222/5/2 224/5/2
f 225/4/2 226/4/2 227/4/2
f 227/4/2 226/4/2 228/4/2
f 228/5/2 229/5/2 230/5/2
f 230/5/2 229/5/2 231/5/2
f 230/4/2 231/4/2 232/4/2
f 232/4/2 231/4/2 233/4/2
f 232/5/2 233/5/2 234/5/2
f 234/5/2 233/5/2 235/5/2
f 235/4/2 236/4/2 237/4/2
f 237/4/2 236/4/2 238/4/2
f 239/4/2 240/4/2 242/4/2
f 241/5/2 242/5/2 243/5/2
f 242/4/2 240/4/2 244/4/2
f 243/5/2 242/5/2 244/5/2
f 244/4/2 240/4/2 245/4/2
f 246/4/2 247/4/2 248/4/2
f 248/4/2 247/4/2 249/4/2
f 250/4/2 251/4/2 252/4/2
f 252/4/2 251/4/2 253/4/2
f 252/5/2 253/5/2 254/5/2
f 254/5/2 253/5/2 255/5/2
f 258/3/3 257/3/3 256/3/3
f 259/3/3 257/3/3 258/3/3
f 262/3/3 261/3/3 260/3/3
f 263/3/3 261/3/3 262/3/3
f 266/3/3 265/3/3 264/3/3
f 267/3/3 265/3/3 266/3/3
f 271/3/3 269/3/3 268/3/3
f 275/2/3 271/2/3 270/2/3
f 276/1/3 274/1/3 273/1/3
f 277/2/3 271/2/3 275/2/3
f 278/1/3 276/1/3 273/1/3
f 278/1/3 277/1/3 276/1/3
f 279/2/3 271/2/3 277/2/3
f 279/1/3 277/1/3 278/1/3
f 280/1/3 278/1/3 273/1/3
f 281/2/3 271/2/3 279/2/3
f 282/1/3 280/1/3 273/1/3
f 282/1/3 281/1/3 280/1/3
f 283/2/3 271/2/3 281/2/3
f 283/1/3 281/1/3 282/1/3
f 284/1/3 282/1/3 273/1/3
f 285/2/3 271/2/3 283/2/3
f 286/2/3 273/2/3 272/2/3
f 287/1/3 284/1/3 273/1/3
f 287/2/3 273/2/3 286/2/3
f 287/1/3 285/1/3 284/1/3
f 288/2/3 271/2/3 285/2/3
f 288/1/3 285/1/3 287/1/3
f 289/2/3 271/2/3 288/2/3
f 290/3/3 269/3/3 271/3/3
f 290/2/3 271/2/3 289/2/3
f 291/3/3 269/3/3 290/3/3
f 292/3/3 269/3/3 291/3/3
f 297/2/3 294/2/3 293/2/3
f 298/2/3 294/2/3 297/2/3
f 299/2/3 296/2/3 295/2/3
f 300/1/3 297/1/3 296/1/3
f 300/2/3 296/2/3 299/2/3
f 301/1/3 297/1/3 300/1/3
f 302/1/3 297/1/3 301/1/3
f 306/3/3 304/3/3 303/3/3
f 306/3/3 305/3/3 304/3/3
f 307/3/3 305/3/3 306/3/3
f 309/3/3 308/3/3 307/3/3
f 310/3/3 308/3/3 309/3/3
f 313/4/3 312/4/3 311/4/3
f 314/4/3 312/4/3 313/4/3
f 318/4/3 315/4/3 314/4/3
f 319/4/3 315/4/3 318/4/3
f 320/4/3 317/4/3 316/4/3
f 322/4/3 321/4/3 320/4/3
f 322/4/3 320/4/3 316/4/3
f 323/4/3 321/4/3 322/4/3
f 326/5/3 325/5/3 324/5/3
f 327/5/3 325/5/3 326/5/3
f 329/5/3 328/5/3 327/5/3
f 330/5/3 328/5/3 329/5/3
f 331/4/3 330/4/3 329/4/3
f 332/4/3 330/4/3 331/4/3
f 333/4/3 330/4/3 332/4/3
f 339/5/3 335/5/3 334/5/3
f 340/5/3 335/5/3 339/5/3
f 342/5/3 333/5/3 332/5/3
f 343/5/3 333/5/3 342/5/3
f 344/5/3 337/5/3 336/5/3
f 345/5/3 337/5/3 344/5/3
f 346/5/3 339/5/3 338/5/3
f 347/5/3 339/5/3 346/5/3
f 350/5/3 342/5/3 341/5/3
f 351/5/3 342/5/3 350/5/3
f 352/4/3 349/4/3 348/4/3
f 353/5/3 350/5/3 349/5/3
f 353/4/3 349/4/3 352/4/3
f 354/5/3 350/5/3 353/5/3
f 357/4/3 356/4/3 355/4/3
f 358/4/3 356/4/3 357/4/3
f 363/4/3 360/4/3 359/4/3
f 364/4/3 360/4/3 363/4/3
f 366/4/3 362/4/3 361/4/3
f 367/4/3 362/4/3 366/4/3
f 369/4/3 366/4/3 365/4/3
f 370/4/3 366/4/3 369/4/3
f 372/4/3 369/4/3 368/4/3
f 373/4/3 369/4/3 372/4/3
f 374/4/3 371/4/3 370/4/3
f 375/4/3 371/4/3 374/4/3
f 378/3/3 377/3/3 376/3/3
f 379/3/3 377/3/3 378/3/3
f 382/3/3 381/3/3 380/3/3
f 383/3/3 382/3/3 380/3/3
f 384/3/3 383/3/3 380/3/3
f 385/3/3 383/3/3 384/3/3
f 386/3/4 387/3/4 388/3/4
f 388/3/4 387/3/4 389/3/4
f 389/3/4 387/3/4 390/3/4
f 390/3/4 387/3/4 391/3/4
f 392/4/4 393/4/4 394/4/4
f 394/4/4 393/4/4 395/4/4
f 395/4/4 396/4/4 397/4/4
f 397/4/4 396/4/4 398/4/4
f 400/4/4 401/4/4 402/4/4
f 399/4/4 400/4/4 402/4/4
f 402/4/4 401/4/4 403/4/4
f 404/4/4 405/4/4 406/4/4
f 406/4/4 405/4/4 407/4/4
f 408/4/4 409/4/4 410/4/4
f 410/4/4 409/4/4 411/4/4
f 412/5/4 413/5/4 417/5/4
f 417/5/4 413/5/4 418/5/4
f 410/5/4 411/5/4 419/5/4
f 419/5/4 411/5/4 420/5/4
f 414/5/4 415/5/4 421/5/4
f 415/4/4 416/4/4 422/4/4
f 421/5/4 415/5/4 422/5/4
f 416/5/4 417/5/4 423/5/4
f 422/4/4 416/4/4 423/4/4
f 423/5/4 417/5/4 424/5/4
f 425/4/4 426/4/4 428/4/4
f 426/5/4 427/5/4 429/5/4
f 428/4/4 426/4/4 429/4/4
f 429/5/4 427/5/4 430/5/4
f 431/2/4 432/2/4 434/2/4
f 434/2/4 432/2/4 435/2/4
f 433/2/4 434/2/4 436/2/4
f 436/2/4 434/2/4 437/2/4
f 438/4/4 439/4/4 440/4/4
f 440/4/4 439/4/4 441/4/4
f 442/3/4 443/3/4 446/3/4
f 446/3/4 443/3/4 447/3/4
f 444/4/4 445/4/4 449/4/4
f 449/4/4 445/4/4 450/4/4
f 447/3/4 448/3/4 451/3/4
f 451/3/4 448/3/4 452/3/4
f 450/4/4 445/4/4 455/4/4
f 455/4/4 445/4/4 456/4/4
f 453/4/4 454/4/4 457/4/4
f 457/4/4 454/4/4 458/4/4
f 459/4/4 460/4/4 463/4/4
f 463/4/4 460/4/4 464/4/4
f 461/4/4 462/4/4 465/4/4
f 465/4/4 462/4/4 466/4/4
f 467/3/4 468/3/4 470/3/4
f 469/2/4 470/2/4 473/2/4
f 471/2/4 472/2/4 474/2/4
f 473/2/4 470/2/4 475/2/4
f 471/2/4 474/2/4 476/2/4
f 474/2/4 475/2/4 476/2/4
f 475/2/4 470/2/4 477/2/4
f 476/2/4 475/2/4 477/2/4
f 471/2/4 476/2/4 478/2/4
f 477/2/4 470/2/4 479/2/4
f 471/2/4 478/2/4 480/2/4
f 478/2/4 479/2/4 480/2/4
f 479/2/4 470/2/4 481/2/4
f 480/2/4 479/2/4 481/2/4
f 471/2/4 480/2/4 482/2/4
f 481/2/4 470/2/4 483/2/4
f 471/2/4 482/2/4 484/2/4
f 482/2/4 483/2/4 484/2/4
f 483/2/4 470/2/4 485/2/4
f 484/2/4 483/2/4 485/2/4
f 485/2/4 470/2/4 486/2/4
f 470/3/4 468/3/4 487/3/4
f 486/2/4 470/2/4 487/2/4
f 487/3/4 468/3/4 488/3/4
f 488/3/4 468/3/4 489/3/4
f 490/4/4 491/4/4 492/4/4
f 492/4/4 491/4/4 493/4/4
f 494/3/4 495/3/4 496/3/4
f 496/3/4 495/3/4 497/3/4
f 498/3/4 499/3/4 500/3/4
f 500/3/4 499/3/4 501/3/4
f 502/3/4 503/3/4 504/3/4
f 504/3/4 503/3/4 505/3/4
f 509/2/5 507/2/5 506/2/5
f 510/2/5 507/2/5 509/2/5
f 512/2/5 509/2/5 508/2/5
f 512/2/5 510/2/5 509/2/5
f 513/2/5 510/2/5 512/2/5
f 514/3/5 511/3/5 510/3/5
f 514/2/5 510/2/5 513/2/5
f 515/3/5 511/3/5 514/3/5
f 516/2/5 514/2/5 513/2/5
f 517/2/5 514/2/5 516/2/5
f 520/4/5 519/4/5 518/4/5
f 521/4/5 519/4/5 520/4/5
f 524/4/5 523/4/5 522/4/5
f 525/4/5 523/4/5 524/4/5
f 528/5/5 527/5/5 526/5/5
f 529/5/5 527/5/5 528/5/5
f 536/3/5 531/3/5 530/3/5
f 537/3/5 531/3/5 536/3/5
f 538/3/5 533/3/5 532/3/5
f 539/3/5 533/3/5 538/3/5
f 540/3/5 535/3/5 534/3/5
f 541/3/5 535/3/5 540/3/5
f 544/4/5 543/4/5 542/4/5
f 545/4/5 543/4/5 544/4/5
f 546/4/5 543/4/5 545/4/5
f 553/3/5 548/3/5 547/3/5
f 554/3/5 548/3/5 553/3/5
f 555/3/5 550/3/5 549/3/5
f 556/3/5 550/3/5 555/3/5
f 557/3/5 552/3/5 551/3/5
f 558/3/5 552/3/5 557/3/5
f 564/2/5 560/2/5 559/2/5
f 565/2/5 560/2/5 564/2/5
f 566/2/5 562/2/5 561/2/5
f 567/2/5 562/2/5 566/2/5
f 569/2/5 564/2/5 563/2/5
f 570/2/5 569/2/5 563/2/5
f 571/2/5 569/2/5 570/2/5
f 574/3/5 568/3/5 567/3/5
f 575/3/5 568/3/5 574/3/5
f 576/2/5 572/2/5 571/2/5
f 577/2/5 572/2/5 576/2/5
f 578/2/5 574/2/5 573/2/5
f 579/2/5 574/2/5 578/2/5
f 582/5/5 581/5/5 580/5/5
f 583/5/5 581/5/5 582/5/5
f 585/4/5 584/4/5 583/4/5
f 586/4/5 584/4/5 585/4/5
f 591/3/5 588/3/5 587/3/5
f 592/3/5 588/3/5 591/3/5
f 593/3/5 590/3/5 589/3/5
f 594/3/5 590/3/5 593/3/5
f 599/4/5 596/4/5 595/4/5
f 600/4/5 596/4/5 599/4/5
f 605/4/5 598/4/5 597/4/5
f 606/3/5 602/3/5 601/3/5
f 607/3/5 602/3/5 606/3/5
f 608/3/5 604/3/5 603/3/5
f 609/3/5 604/3/5 608/3/5
f 610/4/5 605/4/5 597/4/5
f 611/4/5 605/4/5 610/4/5
f 616/4/5 613/4/5 612/4/5
f 617/4/5 613/4/5 616/4/5
f 618/4/5 615/4/5 614/4/5
f 619/4/5 615/4/5 618/4/5
f 622/5/5 621/5/5 620/5/5
f 623/5/5 621/5/5 622/5/5
f 629/5/5 625/5/5 624/5/5
f 630/4/5 626/4/5 625/4/5
f 630/5/5 625/5/5 629/5/5
f 631/4/5 626/4/5 630/4/5
f 632/5/5 628/5/5 627/5/5
f 633/5/5 628/5/5 632/5/5
f 634/4/5 630/4/5 629/4/5
f 635/4/5 630/4/5 634/4/5
f 636/4/5 626/4/5 631/4/5
f 637/4/5 626/4/5 636/4/5
f 640/4/5 639/4/5 638/4/5
f 641/4/5 639/4/5 640/4/5
f 642/4/6 643/4/6 644/4/6
f 644/4/6 643/4/6 645/4/6
f 646/4/6 647/4/6 648/4/6
f 648/4/6 647/4/6 649/4/6
f 650/3/6 651/3/6 656/3/6
f 656/3/6 651/3/6 657/3/6
f 652/3/6 653/3/6 658/3/6
f 658/3/6 653/3/6 659/3/6
f 654/3/6 655/3/6 660/3/6
f 660/3/6 655/3/6 661/3/6
f 662/4/6 663/4/6 664/4/6
f 664/4/6 663/4/6 665/4/6
f 666/3/6 667/3/6 672/3/6
f 672/3/6 667/3/6 673/3/6
f 668/3/6 669/3/6 674/3/6
f 674/3/6 669/3/6 675/3/6
f 670/3/6 671/3/6 676/3/6
f 676/3/6 671/3/6 677/3/6
f 678/4/6 679/4/6 681/4/6
f 681/4/6 679/4/6 682/4/6
f 680/5/6 681/5/6 683/5/6
f 683/5/6 681/5/6 684/5/6
f 685/5/6 686/5/6 687/5/6
f 687/5/6 686/5/6 688/5/6
f 688/4/6 689/4/6 690/4/6
f 690/4/6 689/4/6 691/4/6
f 692/4/6 693/4/6 694/4/6
f 694/4/6 693/4/6 695/4/6
f 694/4/6 695/4/6 696/4/6
f 696/4/6 695/4/6 697/4/6
f 699/5/6 700/5/6 702/5/6
f 700/1/6 701/1/6 702/1/6
f 702/1/6 701/1/6 703/1/6
f 698/1/6 699/1/6 706/1/6
f 699/5/6 702/5/6 706/5/6
f 706/5/6 702/5/6 707/5/6
f 703/1/6 701/1/6 708/1/6
f 704/5/6 705/5/6 711/5/6
f 711/5/6 705/5/6 712/5/6
f 698/1/6 706/1/6 713/1/6
f 713/1/6 706/1/6 714/1/6
f 708/1/6 701/1/6 715/1/6
f 715/1/6 701/1/6 716/1/6
f 709/4/6 710/4/6 717/4/6
f 717/4/6 710/4/6 718/4/6
f 719/3/6 720/3/6 721/3/6
f 721/3/6 720/3/6 722/3/6
f 722/3/6 720/3/6 725/3/6
f 725/3/6 720/3/6 726/3/6
f 723/5/6 724/5/6 730/5/6
f 730/5/6 724/5/6 731/5/6
f 727/5/6 728/5/6 734/5/6
f 734/5/6 728/5/6 735/5/6
f 719/3/6 721/3/6 736/3/6
f 729/4/6 730/4/6 737/4/6
f 730/4/6 731/4/6 737/4/6
f 737/4/6 731/4/6 738/4/6
f 732/3/6 733/3/6 741/3/6
f 734/4/6 735/4/6 742/4/6
f 742/4/6 735/4/6 743/4/6
f 739/3/6 740/3/6 744/3/6
f 719/3/6 736/3/6 744/3/6
f 740/3/6 741/3/6 744/3/6
f 736/3/6 737/3/6 744/3/6
f 737/3/6 738/3/6 744/3/6
f 738/3/6 739/3/6 744/3/6
f 741/3/6 733/3/6 745/3/6
f 744/3/6 741/3/6 745/3/6
f 746/5/6 747/5/6 750/5/6
f 747/4/6 748/4/6 751/4/6
f 750/5/6 747/5/6 751/5/6
f 751/4/6 748/4/6 752/4/6
f 748/5/6 749/5/6 753/5/6
f 752/4/6 748/4/6 753/4/6
f 753/5/6 749/5/6 754/5/6
f 750/4/6 751/4/6 755/4/6
f 755/4/6 751/4/6 756/4/6
f 757/4/6 758/4/6 759/4/6
f 759/4/6 758/4/6 760/4/6
